<?xml version="1.0" encoding="utf-8"?>
<!-- Generator: Adobe Illustrator 19.0.0, SVG Export Plug-In . SVG Version: 6.00 Build 0)  -->
<svg version="1.1" xmlns="http://www.w3.org/2000/svg" xmlns:xlink="http://www.w3.org/1999/xlink" x="0px" y="0px"
	 viewBox="0 0 500 500" style="enable-background:new 0 0 500 500;" xml:space="preserve">
<style type="text/css">
	.st0{enable-background:new    ;}
	.st1{fill:#86AE32;}
	.st2{fill:#658226;}
	.st3{fill:#93BF37;}
	.st4{fill:#AAD63E;}
	.st5{fill:#260B09;}
	.st6{fill:#67BC58;}
	.st7{fill:#509344;}
	.st8{fill:#71CC60;}
	.st9{opacity:0.16;fill:#575B5E;}
	.st10{fill:#575B5E;}
	.st11{fill:#EDC998;}
	.st12{fill:#4A7F78;}
	.st13{fill:#BC8F3F;}
	.st14{fill:#575A5D;}
</style>
<g id="Objects">
	<g>
		<g class="st0">
			<g>
				<polygon class="st1" points="69.4,293.8 69.5,309.5 254.6,417 254.6,401.3 				"/>
			</g>
			<g>
				<polygon class="st2" points="254.6,401.3 254.6,417 441,309.5 440.9,293.8 				"/>
			</g>
			<g>
				<polygon class="st3" points="69.4,293.8 254.6,401.3 440.9,293.8 255.8,186.2 				"/>
			</g>
		</g>
		<g>
			<path class="st4" d="M103,287.2c0,3.4,2.8,6.2,6.2,6.2C109.2,290,106.4,287.2,103,287.2z"/>
			<path class="st4" d="M115,288.5c0,2.7-2.2,4.9-4.9,4.9C110.1,290.7,112.3,288.5,115,288.5z"/>
		</g>
		<g>
			<path class="st4" d="M133.4,312.2c0,3.4,2.8,6.2,6.2,6.2C139.6,315,136.8,312.2,133.4,312.2z"/>
			<path class="st4" d="M145.4,313.6c0,2.7-2.2,4.9-4.9,4.9C140.5,315.7,142.7,313.6,145.4,313.6z"/>
		</g>
		<g>
			<path class="st4" d="M370.1,309.1c0,3.4,2.8,6.2,6.2,6.2C376.3,311.9,373.5,309.1,370.1,309.1z"/>
			<path class="st4" d="M382.1,310.5c0,2.7-2.2,4.9-4.9,4.9C377.2,312.6,379.4,310.5,382.1,310.5z"/>
		</g>
		<g>
			<path class="st4" d="M378.3,270.6c0,3.4,2.8,6.2,6.2,6.2C384.5,273.3,381.8,270.6,378.3,270.6z"/>
			<path class="st4" d="M390.4,271.9c0,2.7-2.2,4.9-4.9,4.9C385.5,274.1,387.7,271.9,390.4,271.9z"/>
		</g>
		<g>
			<path class="st4" d="M285.8,363c0,3.4,2.8,6.2,6.2,6.2C292,365.8,289.2,363,285.8,363z"/>
			<path class="st4" d="M297.8,364.4c0,2.7-2.2,4.9-4.9,4.9C292.9,366.6,295.1,364.4,297.8,364.4z"/>
		</g>
		<g>
			<path class="st4" d="M136.9,255.1c0,3.4,2.8,6.2,6.2,6.2C143.2,257.9,140.4,255.1,136.9,255.1z"/>
			<path class="st4" d="M149,256.4c0,2.7-2.2,4.9-4.9,4.9C144.1,258.6,146.3,256.4,149,256.4z"/>
		</g>
		<g>
			<path class="st4" d="M227.1,368.2c0,3.4,2.8,6.2,6.2,6.2C233.3,371,230.5,368.2,227.1,368.2z"/>
			<path class="st4" d="M239.1,369.5c0,2.7-2.2,4.9-4.9,4.9C234.2,371.7,236.4,369.5,239.1,369.5z"/>
		</g>
		<g>
			<path class="st5" d="M140,172.2l0-10.4c0-2.9,0-5.6,0-8.3c0-0.1,0-0.2-0.1-0.4c0-0.1,0-0.2,0-0.3c0-0.1-0.1-0.3-0.2-0.4
				c0-0.1-0.1-0.2-0.1-0.3c-0.1-0.1-0.2-0.3-0.4-0.4c-0.1-0.1-0.1-0.1-0.2-0.2c-0.2-0.2-0.5-0.4-0.8-0.6c-0.3-0.2-0.6-0.3-0.9-0.5
				l0,0c-0.2-0.1-0.5-0.2-0.7-0.2c-0.1,0-0.1,0-0.2-0.1c-0.1,0-0.1,0-0.2,0c-0.1,0-0.2,0-0.2-0.1c-0.2,0-0.4-0.1-0.6-0.1
				c0,0-0.1,0-0.1,0c0,0-0.1,0-0.1,0c-0.1,0-0.2,0-0.3,0c-0.2,0-0.4,0-0.6,0c0,0-0.1,0-0.1,0c0,0-0.1,0-0.1,0c-0.1,0-0.3,0-0.4,0
				c-0.2,0-0.4,0-0.7,0c0,0,0,0,0,0c0,0,0,0,0,0c-0.2,0-0.5,0.1-0.7,0.1c-0.1,0-0.1,0-0.2,0c-0.2,0-0.4,0.1-0.6,0.1
				c-0.1,0-0.2,0.1-0.4,0.1c0,0-0.1,0-0.1,0c-0.4,0.1-0.8,0.3-1.1,0.5c0,0-0.1,0.1-0.1,0.1c-0.1,0.1-0.2,0.1-0.3,0.2
				c-0.1,0.1-0.3,0.2-0.4,0.3c0,0,0,0-0.1,0.1c0,0,0,0-0.1,0c-0.1,0.1-0.3,0.3-0.4,0.4c0,0,0,0,0,0.1c0,0,0,0,0,0c0,0,0,0,0,0.1
				c0,0.1-0.1,0.1-0.1,0.2c-0.1,0.1-0.1,0.2-0.2,0.3c0,0,0,0,0,0c0,0,0,0,0,0c0,0,0,0,0,0.1c0,0.1-0.1,0.2-0.1,0.2
				c0,0.1,0,0.2,0,0.3c0,0,0,0,0,0v0c0,0,0,0,0,0l-0.2,139.6c0,0.1,0,0.2,0.1,0.4c0,0.1,0,0.2,0,0.3c0,0.1,0.1,0.3,0.2,0.4
				c0,0.1,0.1,0.2,0.1,0.3c0.1,0.1,0.2,0.3,0.4,0.4c0.1,0.1,0.1,0.1,0.2,0.2c0.2,0.2,0.5,0.4,0.8,0.6c0.3,0.2,0.6,0.3,0.9,0.5
				c0,0,0,0,0,0c0.2,0.1,0.5,0.2,0.7,0.2c0.1,0,0.1,0,0.2,0.1c0.1,0,0.1,0,0.2,0c0.1,0,0.2,0,0.2,0.1c0.2,0,0.4,0.1,0.6,0.1
				c0,0,0.1,0,0.1,0c0,0,0.1,0,0.1,0c0.1,0,0.2,0,0.3,0c0.2,0,0.4,0,0.6,0c0,0,0.1,0,0.1,0c0,0,0.1,0,0.1,0c0.1,0,0.3,0,0.4,0
				c0.2,0,0.4,0,0.7,0c0,0,0,0,0,0c0,0,0,0,0,0c0.2,0,0.5-0.1,0.7-0.1c0.1,0,0.1,0,0.2,0c0.2,0,0.4-0.1,0.6-0.1
				c0.1,0,0.2-0.1,0.4-0.1c0,0,0.1,0,0.1,0c0.4-0.1,0.8-0.3,1.1-0.5c0,0,0.1-0.1,0.1-0.1c0.1-0.1,0.2-0.1,0.3-0.2
				c0.1-0.1,0.3-0.2,0.4-0.3c0,0,0,0,0.1-0.1c0,0,0,0,0.1,0c0.1-0.1,0.3-0.3,0.4-0.4c0,0,0,0,0-0.1c0,0,0,0,0,0c0,0,0,0,0-0.1
				c0-0.1,0.1-0.1,0.1-0.2c0.1-0.1,0.1-0.2,0.2-0.3c0,0,0,0,0,0c0,0,0,0,0,0c0,0,0,0,0-0.1c0-0.1,0.1-0.2,0.1-0.2c0-0.1,0-0.2,0-0.3
				c0,0,0,0,0,0v0c0,0,0,0,0,0l0.1-115.7C140,175.7,140,173.9,140,172.2z"/>
			<g>
				<circle class="st6" cx="133.9" cy="141.9" r="69.8"/>
				<path class="st7" d="M138.9,72.4c24.3,7.5,42,30.1,42,56.9c0,32.9-26.7,59.6-59.6,59.6c-26.9,0-49.6-17.8-57-42.3
					c2.4,36.4,32.6,65.2,69.5,65.2c38.5,0,69.8-31.2,69.8-69.8C203.7,105.1,175.1,75,138.9,72.4z"/>
				<circle class="st8" cx="111.7" cy="113.6" r="32.7"/>
			</g>
			<g>
				<circle class="st6" cx="76.7" cy="122.7" r="46.3"/>
				<path class="st7" d="M80,76.6c16.1,5,27.9,20,27.9,37.8c0,21.8-17.7,39.5-39.5,39.5c-17.8,0-32.9-11.8-37.8-28.1
					c1.6,24.1,21.6,43.2,46.1,43.2c25.6,0,46.3-20.7,46.3-46.3C123,98.3,104,78.3,80,76.6z"/>
				<circle class="st8" cx="61.9" cy="103.9" r="21.7"/>
			</g>
		</g>
	</g>
	<g>
		<g>
			<path class="st9" d="M267.1,312.9c7.2,4.1,7.2,10.8,0.1,15c-7.1,4.1-18.7,4.1-25.8,0s-7.2-10.8-0.1-15
				C248.4,308.8,260,308.8,267.1,312.9z"/>
		</g>
		<g>
			<g>
				<path class="st10" d="M257.4,320.5c0,0-0.2,3.3,0.2,4.1c0.3,0.9,3,2,5,1.3c2-0.7,3.1-1.7,3.8-2.7c0.6-0.9,2.8-2.1,3.4-3.1
					c0.8-1.6-0.8-3-2.2-3.3c-1.4-0.3-3.1,0.1-4.5,1.3C261.7,319.5,257.4,320.5,257.4,320.5z"/>
				<path class="st10" d="M242.4,316.1c0,0-0.2,3.3,0.2,4.1c0.3,0.9,3,2,5,1.3c2-0.7,3.1-1.7,3.8-2.7c0.6-0.9,2.8-2.1,3.4-3.1
					c0.8-1.6-0.8-3-2.2-3.3c-1.4-0.3-3.1,0.1-4.5,1.3C246.7,315.1,242.4,316.1,242.4,316.1z"/>
				<path class="st11" d="M242.1,274.5c0,0-0.5,4.7,0.5,9.8c1,5.1,0,29-0.3,32.2c0,0,1.6,3.8,5.6,0.3c0-9.2,3.5-25.5,2.3-35.6
					C249.1,271.1,242.1,274.5,242.1,274.5z"/>
				<path class="st11" d="M242.4,276c0.2,0.6,0.7,5.9,8.9,9.1c4.4,2.3,5.1,6.3,5.4,9.7c0.3,3.5,0.3,25.7,0.7,26.3
					c0.3,0.7,1.7,3.3,5.2,0c0.3-9.6,1.9-42.1,1.2-46.1C263.1,271.1,241.9,274.1,242.4,276z"/>
				<path class="st12" d="M242.1,274.5l-0.8,21c0,0,6.6,4.4,10.8,0.4c-0.2-1.3,0.2-9.1,0.2-9.1l1.1,10.6c0,0,7.1,4.6,11.7-0.4
					c-0.4-6.4-1-17.4-1-17.4S245.4,283.1,242.1,274.5z"/>
			</g>
			<g>
				<path class="st11" d="M245.6,247.4c0,0-4,0.1-4.3,4c-0.3,3.8,3.2,5.9,7.4,5.3C252.8,256.1,245.6,247.4,245.6,247.4z"/>
				<path class="st13" d="M255.4,244.7c0,0,6.9,2,9.6,6.3c1.1,1.7,1.2,6.9-0.3,10.4c-1.5,3.5,0,15.7-0.5,18.2
					c-0.5,2.5-7.5,3.7-11.7,3c-4.1-0.7-10.5-3.5-10.4-8.2c0.4-13.5,0.4-20.2,1-23.4c0.6-3.1,2.7-5.2,2.7-5.2
					S248.1,243.3,255.4,244.7z"/>
				<g>
					<path class="st11" d="M251.4,224.6c0,0,3.8-1.1,7,0.9c3.2,2,3.7,4.2,3.6,7.3s0.1,7.7-1.5,11.1c-1.6,3.5-8.5,0.6-10.6-0.7
						c-2.1-1.4-4.3-6.8-4.1-11C246.1,228,247.6,225.4,251.4,224.6z"/>
					<path class="st11" d="M248.5,241.3c0,0,1.6,3.2,1.6,4.4c0,1.2,2.5,2.6,5.7,2.1c3.2-0.6,3.5-1.3,3.5-1.3s-1.6-2.3-2.1-4.3
						C256.9,240.3,248.5,241.3,248.5,241.3z"/>
					<path class="st14" d="M261.8,230.5c0,0-0.7-5.5-1.9-7.4c-3.2-1.2-10-0.6-12.5,1.9c-1.8,1.6-2.7,6.3-2.7,6.3s-0.4,3.5,2.5,8.4
						c0,0,1.6,2.2,1.9,3.4c0.6-0.1,3.7,1.8,6.6,0l1.3-4c0,0-2.5-3.8-0.9-5.2c1.6-1.3,2.2,1.3,2.2,1.3l0.6-1.3l-1-3.7L261.8,230.5z"
						/>
				</g>
				<path class="st11" d="M264.6,252.3c0,0-2.1-2.1-4.7,0.6c-2.7,2.7-0.6,6.8,2.9,8c3.5,1.2,11.2,0.3,14.4-2.4
					c3.2-2.7-1.2-14.4-4.4-16.8c0,0-1.2-3.1-1.9-4.3c-0.7-1.2-3.2-2.5-3.4-1.8c-0.1,0.7,0,3.8,0.4,4.6c-0.4-0.1-2.2-0.1-2.2,0.3
					c0,0.4,0.9,1.2,2.4,1.3s2.2,1.2,2.2,1.2s3.7,8,2.9,10.6C272.1,254.8,269,255.1,264.6,252.3z"/>
			</g>
		</g>
	</g>
	<g>
		<path class="st9" d="M165.4,278.8c16,9.2,16.1,24.2,0.2,33.4c-15.9,9.2-41.7,9.2-57.7,0s-16.1-24.2-0.2-33.4
			C123.6,269.6,149.4,269.6,165.4,278.8z"/>
	</g>
</g>
<g id="Designed_by_Freepik">
</g>
</svg>
