<?xml version="1.0" encoding="utf-8"?>
<!-- Generator: Adobe Illustrator 19.0.0, SVG Export Plug-In . SVG Version: 6.00 Build 0)  -->
<svg version="1.1" id="OBJECTS" xmlns="http://www.w3.org/2000/svg" xmlns:xlink="http://www.w3.org/1999/xlink" x="0px" y="0px"
	 viewBox="0 0 500 500" style="enable-background:new 0 0 500 500;" xml:space="preserve">
<style type="text/css">
	.st0{fill:#8DB1B7;}
	.st1{fill:#B2CFD8;}
	.st2{fill:#FFFFFF;}
	.st3{fill:url(#SVGID_1_);}
	.st4{fill:none;stroke:#FFFFFF;stroke-width:0.7536;stroke-miterlimit:10;}
	.st5{enable-background:new    ;}
	.st6{fill:url(#SVGID_2_);}
	.st7{fill:#ED7614;}
	.st8{fill:#FF8D27;}
	.st9{clip-path:url(#SVGID_4_);enable-background:new    ;}
	.st10{fill:#6C6C6C;}
	.st11{fill:#707070;}
	.st12{fill:#747474;}
	.st13{fill:#787878;}
	.st14{fill:#7C7C7C;}
	.st15{fill:#808080;}
	.st16{fill:#848484;}
	.st17{fill:#898989;}
	.st18{fill:#8D8D8D;}
	.st19{fill:#919191;}
	.st20{fill:#959595;}
	.st21{fill:#999999;}
	.st22{fill:#9D9D9D;}
	.st23{fill:#A1A1A1;}
	.st24{fill:#A6A6A6;}
	.st25{fill:#AAAAAA;}
	.st26{fill:#AEAEAE;}
	.st27{fill:#B2B2B2;}
	.st28{fill:#B6B6B6;}
	.st29{fill:#BABABA;}
	.st30{fill:#BEBEBE;}
	.st31{fill:#C3C3C3;}
	.st32{fill:#C7C7C7;}
	.st33{fill:#CBCBCB;}
	.st34{fill:#CFCFCF;}
	.st35{fill:#D5D5D5;}
	.st36{fill:#D7D7D7;}
	.st37{fill:#D9D9D9;}
	.st38{fill:#DBDBDB;}
	.st39{fill:#DCDCDC;}
	.st40{clip-path:url(#SVGID_6_);enable-background:new    ;}
	.st41{fill:#858585;}
	.st42{fill:#8A8A8A;}
	.st43{fill:#8F8F8F;}
	.st44{fill:#949494;}
	.st45{fill:#9E9E9E;}
	.st46{fill:#A3A3A3;}
	.st47{fill:#A8A8A8;}
	.st48{fill:#ADADAD;}
	.st49{fill:#B3B3B3;}
	.st50{fill:#B8B8B8;}
	.st51{fill:#BDBDBD;}
	.st52{fill:#C2C2C2;}
	.st53{fill:#CCCCCC;}
	.st54{clip-path:url(#SVGID_8_);enable-background:new    ;}
	.st55{fill:#D1D1D1;}
	.st56{fill:#D6D6D6;}
	.st57{fill:#E0E0E0;}
	.st58{fill:#E6E6E6;}
	.st59{fill:#EBEBEB;}
	.st60{fill:#F0F0F0;}
	.st61{fill:#F5F5F5;}
	.st62{fill:#FAFAFA;}
	.st63{clip-path:url(#SVGID_10_);enable-background:new    ;}
	.st64{clip-path:url(#SVGID_12_);enable-background:new    ;}
	.st65{clip-path:url(#SVGID_14_);enable-background:new    ;}
	.st66{clip-path:url(#SVGID_16_);enable-background:new    ;}
	.st67{clip-path:url(#SVGID_18_);enable-background:new    ;}
	.st68{clip-path:url(#SVGID_20_);enable-background:new    ;}
	.st69{fill:url(#SVGID_21_);}
	.st70{fill:url(#SVGID_22_);}
	.st71{fill:#B72F0F;}
	.st72{fill:#D14428;}
</style>
<g>
	<g>
		<path class="st0" d="M321.1,340.3c10.7,6.2,22.6-0.3,22.5-12.9l0-227.7c0-14.1-7.5-27.1-19.7-34.1l-78.6-45.4
			c-10.6-6.1-24.7,0.2-24.7,11.8"/>
		<path class="st1" d="M321.1,340.3l-5.7-3.3L232,288.8c-7-4.1-11.4-11.6-11.4-19.7l0-237.2c0-6.8,6.1-11.4,12.2-10.5
			c1.3,0.2,2.6,0.6,3.8,1.3l81.2,46.9c11.9,6.8,19.2,19.5,19.2,33.2l0,228.3C337,339.2,328.2,344.3,321.1,340.3z"/>
		<polygon class="st2" points="225.9,47.1 331.7,108.2 331.7,322 225.9,260.9 		"/>
	</g>
	<g>
		<path class="st2" d="M270.5,54.8l21.8,12.6c1.2,0.7,1.9,2,1.9,3.3l0,0c0,1.4-1.6,2.4-2.8,1.6l-21.6-12.5c-1.2-0.7-2-2-2-3.5l0,0
			C267.8,55,269.3,54.1,270.5,54.8z"/>
		<linearGradient id="SVGID_1_" gradientUnits="userSpaceOnUse" x1="267.7802" y1="63.6139" x2="293.6669" y2="63.6139">
			<stop  offset="0" style="stop-color:#962FE0"/>
			<stop  offset="0.5332" style="stop-color:#5C8CF0"/>
			<stop  offset="1" style="stop-color:#27E1FF"/>
		</linearGradient>
		<path class="st3" d="M268.6,55.9c0,1.4,0.8,2.7,2,3.5l21.6,12.5c0.5,0.3,1,0.3,1.5,0.2c-0.6,0.5-1.5,0.7-2.2,0.3l-21.6-12.5
			c-1.2-0.7-2-2-2-3.5c0-0.9,0.6-1.6,1.3-1.8C268.8,54.9,268.6,55.4,268.6,55.9z"/>
	</g>
	<g>
		<path class="st4" d="M285.6,303.5l-18.7-10.8c-1.8-1-3.9,0.3-3.9,2.3l0,0c0,2,1,3.8,2.7,4.8l18.7,10.8c1.8,1,3.9-0.3,3.9-2.3l0,0
			C288.3,306.3,287.3,304.5,285.6,303.5z"/>
	</g>
</g>
<g>
	<g class="st5">
		<linearGradient id="SVGID_2_" gradientUnits="userSpaceOnUse" x1="245.9106" y1="119.2365" x2="256.0707" y2="119.2365">
			<stop  offset="0" style="stop-color:#FFB127"/>
			<stop  offset="1.195627e-002" style="stop-color:#FFB027"/>
			<stop  offset="0.6715" style="stop-color:#F68019"/>
			<stop  offset="1" style="stop-color:#F26E14"/>
		</linearGradient>
		<path class="st6" d="M247.5,119.8c0.1,0,0.1,0,0.2-0.1c0.3-0.1,0.5-0.1,0.8-0.2c0.2,0,0.3-0.1,0.5-0.1c0.2,0,0.3,0,0.5-0.1
			c0.1,0,0.1,0,0.2,0c0.3,0,0.5,0,0.8,0c0.1,0,0.2,0,0.3,0c0.2,0,0.5,0,0.7,0c0.1,0,0.2,0,0.3,0c0.3,0,0.6,0.1,0.9,0.1
			c0,0,0,0,0.1,0c0.3,0.1,0.7,0.2,1.1,0.3l2.4-1.4c-0.1,0-0.3-0.1-0.4-0.1c-0.2-0.1-0.4-0.1-0.6-0.1c0,0,0,0-0.1,0c0,0,0,0,0,0
			c-0.2,0-0.5-0.1-0.7-0.1c-0.1,0-0.1,0-0.2,0c-0.1,0-0.2,0-0.3,0c-0.1,0-0.2,0-0.3,0c-0.1,0-0.3,0-0.4,0c-0.1,0-0.2,0-0.3,0
			c0,0-0.1,0-0.1,0c-0.2,0-0.4,0-0.6,0c-0.1,0-0.1,0-0.2,0c0,0,0,0,0,0c-0.1,0-0.3,0-0.4,0.1c-0.2,0-0.3,0-0.5,0.1c0,0,0,0,0,0
			c-0.3,0.1-0.5,0.1-0.8,0.2c-0.1,0-0.1,0-0.2,0.1c-0.1,0-0.1,0-0.2,0.1c-0.1,0-0.2,0.1-0.4,0.1c-0.1,0-0.2,0.1-0.2,0.1
			c-0.3,0.1-0.5,0.2-0.8,0.4l-2.4,1.4c0.2-0.1,0.5-0.3,0.8-0.4c0.1,0,0.2-0.1,0.2-0.1C247.1,119.9,247.3,119.9,247.5,119.8z"/>
		<path class="st7" d="M276.9,148.5c0-0.3,0-0.5,0-0.8c0,0,0-0.1,0-0.1c0,0,0-0.1,0-0.1c0-0.2,0-0.4,0-0.6c0-0.3-0.1-0.6-0.1-0.8
			c0-0.1,0-0.1,0-0.2c0-0.1,0-0.1,0-0.2c0-0.2,0-0.3-0.1-0.5c0-0.3-0.1-0.6-0.1-0.9c0-0.1,0-0.1,0-0.2c0-0.1,0-0.1,0-0.2
			c0-0.2-0.1-0.3-0.1-0.5c-0.1-0.3-0.1-0.6-0.2-0.9c0-0.1,0-0.1-0.1-0.2c0-0.1,0-0.1-0.1-0.2c0-0.2-0.1-0.3-0.1-0.5
			c-0.1-0.3-0.2-0.6-0.3-0.9c0-0.1,0-0.1-0.1-0.2c0-0.1,0-0.1-0.1-0.2c0-0.1-0.1-0.3-0.1-0.4c-0.1-0.3-0.2-0.6-0.3-0.9
			c0-0.1-0.1-0.2-0.1-0.3c0-0.1,0-0.1-0.1-0.2c0-0.1-0.1-0.2-0.1-0.4c-0.1-0.3-0.2-0.5-0.3-0.8c-0.1-0.1-0.1-0.3-0.2-0.4
			c0-0.1-0.1-0.1-0.1-0.2c0-0.1-0.1-0.2-0.1-0.2c-0.1-0.3-0.2-0.6-0.4-0.8c-0.1-0.2-0.2-0.3-0.2-0.5c0-0.1-0.1-0.1-0.1-0.2
			c0-0.1-0.1-0.1-0.1-0.2c-0.2-0.3-0.3-0.6-0.5-1c0-0.1-0.1-0.2-0.1-0.3c-0.1-0.2-0.2-0.4-0.3-0.6c-0.1-0.2-0.2-0.4-0.3-0.6
			c-0.1-0.2-0.2-0.3-0.3-0.5c-0.1-0.1-0.1-0.2-0.2-0.4c-0.3-0.5-0.6-0.9-0.9-1.4c0,0,0,0,0-0.1c-0.1-0.2-0.2-0.3-0.3-0.5
			c-0.2-0.3-0.4-0.6-0.6-0.9c0,0-0.1-0.1-0.1-0.1c-0.1-0.1-0.1-0.1-0.2-0.2c-0.1-0.2-0.3-0.4-0.4-0.6c-0.2-0.2-0.4-0.5-0.6-0.7
			c0,0,0,0-0.1-0.1c0,0,0,0,0,0c-0.2-0.3-0.4-0.5-0.6-0.7c-0.2-0.2-0.3-0.4-0.5-0.5c0,0-0.1-0.1-0.1-0.1c0,0,0-0.1-0.1-0.1
			c-0.2-0.2-0.5-0.5-0.7-0.7c-0.1-0.1-0.3-0.3-0.4-0.4c-0.1-0.1-0.1-0.1-0.2-0.2c0,0-0.1-0.1-0.1-0.1c-0.2-0.2-0.5-0.5-0.7-0.7
			c-0.1-0.1-0.3-0.2-0.4-0.3l-2.4,1.4c0.4,0.4,0.9,0.8,1.3,1.2c0.1,0.1,0.1,0.1,0.2,0.2c0.4,0.4,0.8,0.8,1.1,1.2
			c0,0,0.1,0.1,0.1,0.1c0.4,0.4,0.8,0.9,1.1,1.3c0,0,0,0,0.1,0.1c0.3,0.4,0.7,0.9,1,1.3c0.1,0.1,0.1,0.1,0.2,0.2
			c0.3,0.3,0.5,0.7,0.7,1c0.1,0.2,0.2,0.3,0.4,0.5c0.3,0.5,0.6,0.9,0.9,1.4c0.1,0.1,0.1,0.2,0.2,0.4c0.2,0.4,0.4,0.7,0.6,1.1
			c0.1,0.2,0.2,0.4,0.3,0.6c0.3,0.5,0.5,0.9,0.7,1.4c0,0.1,0.1,0.1,0.1,0.2c0.2,0.5,0.5,1,0.7,1.5c0,0.1,0.1,0.1,0.1,0.2
			c0.2,0.5,0.4,1,0.6,1.6c0,0.1,0,0.1,0.1,0.2c0.2,0.5,0.4,1,0.5,1.6c0,0.1,0,0.1,0.1,0.2c0.2,0.5,0.3,1,0.5,1.6
			c0,0.1,0,0.1,0.1,0.2c0.1,0.5,0.3,1,0.4,1.6c0,0.1,0,0.1,0,0.2c0.1,0.5,0.2,1.1,0.3,1.6c0,0.1,0,0.1,0,0.2
			c0.1,0.5,0.1,1.1,0.2,1.6c0,0,0,0.1,0,0.1c0,0.6,0.1,1.1,0.1,1.7l0,5l2.4-1.4l0-5C277,149,277,148.8,276.9,148.5z"/>
		<path class="st7" d="M272.2,114.4c0-0.2,0-0.4,0-0.6c0-0.1,0-0.2,0-0.3c0,0,0-0.1,0-0.1c0-0.1,0-0.1,0-0.2c0-0.2,0-0.4-0.1-0.6
			c0-0.2-0.1-0.4-0.1-0.6c0,0,0,0,0,0c0,0,0,0,0,0c0-0.2-0.1-0.4-0.1-0.6c0-0.2-0.1-0.4-0.1-0.6c0-0.1,0-0.1-0.1-0.2
			c0,0,0-0.1,0-0.1c0-0.1,0-0.2-0.1-0.3c-0.1-0.2-0.1-0.4-0.2-0.6c0-0.2-0.1-0.3-0.1-0.5c0,0,0-0.1,0-0.1c0,0,0-0.1,0-0.1
			c-0.1-0.2-0.1-0.4-0.2-0.6c-0.1-0.2-0.1-0.4-0.2-0.6c0,0,0-0.1,0-0.1c0,0,0-0.1,0-0.1c0-0.1-0.1-0.3-0.1-0.4
			c-0.1-0.2-0.2-0.4-0.2-0.6c-0.1-0.1-0.1-0.3-0.2-0.4c0,0,0,0,0-0.1c0,0,0-0.1,0-0.1c-0.1-0.2-0.2-0.4-0.3-0.6
			c-0.1-0.2-0.2-0.4-0.3-0.6c0,0,0-0.1,0-0.1c0,0,0-0.1-0.1-0.1c-0.1-0.2-0.2-0.3-0.3-0.5c-0.1-0.2-0.2-0.4-0.3-0.6
			c-0.1-0.1-0.1-0.2-0.2-0.3c0,0,0-0.1-0.1-0.1c-0.1-0.2-0.2-0.3-0.3-0.5c-0.2-0.3-0.3-0.5-0.5-0.8c0,0-0.1-0.1-0.1-0.1
			c-0.2-0.4-0.5-0.7-0.8-1.1c0,0,0,0,0,0l0,0c-0.2-0.2-0.4-0.5-0.5-0.7c-0.1-0.2-0.3-0.4-0.4-0.5c0,0,0,0,0,0c0,0,0,0,0,0
			c-0.2-0.2-0.3-0.4-0.5-0.5c-0.2-0.2-0.3-0.3-0.5-0.5c0,0-0.1-0.1-0.1-0.1c0,0-0.1-0.1-0.1-0.1c-0.1-0.1-0.2-0.2-0.3-0.3
			c-0.2-0.2-0.3-0.3-0.5-0.5c-0.1,0-0.1-0.1-0.2-0.1c0,0-0.1-0.1-0.1-0.1c-0.1-0.1-0.2-0.2-0.2-0.2c-0.2-0.2-0.4-0.3-0.5-0.5
			c-0.1-0.1-0.2-0.1-0.2-0.2c0,0-0.1-0.1-0.1-0.1c-0.1,0-0.1-0.1-0.2-0.1c-0.2-0.1-0.3-0.3-0.5-0.4c-0.1-0.1-0.3-0.2-0.4-0.3
			c0,0,0,0-0.1-0.1c0,0,0,0-0.1,0c-0.2-0.1-0.3-0.2-0.5-0.3c-0.2-0.1-0.3-0.2-0.5-0.3c0,0-0.1,0-0.1-0.1c-0.1-0.1-0.3-0.1-0.4-0.2
			c0,0-0.1,0-0.1-0.1c-0.1,0-0.1-0.1-0.2-0.1c-0.1,0-0.1-0.1-0.2-0.1c-0.1,0-0.2-0.1-0.2-0.1c-0.1,0-0.1-0.1-0.2-0.1c0,0,0,0-0.1,0
			c-0.2-0.1-0.3-0.1-0.5-0.2l0,0l0,0c-0.2-0.1-0.3-0.1-0.5-0.2c0,0,0,0-0.1,0c-0.1,0-0.1,0-0.2-0.1c-0.1,0-0.2-0.1-0.2-0.1
			c0,0-0.1,0-0.1,0c-0.1,0-0.1,0-0.2-0.1c-0.1,0-0.1,0-0.2,0c-0.1,0-0.1,0-0.2,0c-0.1,0-0.1,0-0.2,0c0,0-0.1,0-0.1,0
			c-0.1,0-0.1,0-0.2,0c-0.1,0-0.2,0-0.2,0c0,0-0.1,0-0.1,0c-0.1,0-0.1,0-0.2,0c-0.1,0-0.2,0-0.3,0c0,0-0.1,0-0.1,0
			c-0.1,0-0.1,0-0.2,0c-0.1,0-0.2,0-0.3,0c0,0-0.1,0-0.1,0c0,0-0.1,0-0.1,0c-0.1,0-0.3,0-0.4,0c0,0-0.1,0-0.1,0c0,0-0.1,0-0.1,0
			c-0.2,0-0.4,0-0.6,0.1c0,0,0,0,0,0c0,0,0,0,0,0c-0.3,0.1-0.5,0.1-0.8,0.2c0,0,0,0-0.1,0c0,0,0,0-0.1,0c-0.1,0-0.2,0.1-0.3,0.1
			c-0.1,0-0.1,0-0.2,0.1c-0.2,0.1-0.3,0.1-0.4,0.2c0,0,0,0,0,0l-2.4,1.4c0.1-0.1,0.3-0.2,0.4-0.2c0.1,0,0.1,0,0.2-0.1
			c0.1,0,0.2-0.1,0.3-0.1c0,0,0.1,0,0.1,0c0.2-0.1,0.5-0.2,0.8-0.2c0,0,0,0,0.1,0c0.2,0,0.4-0.1,0.6-0.1c0.1,0,0.1,0,0.2,0
			c0.1,0,0.2,0,0.4,0c0.1,0,0.1,0,0.2,0c0.1,0,0.2,0,0.3,0c0.1,0,0.2,0,0.2,0c0.1,0,0.2,0,0.3,0c0.1,0,0.2,0,0.3,0
			c0.1,0,0.2,0,0.2,0c0.1,0,0.2,0,0.3,0.1c0.1,0,0.1,0,0.2,0c0.1,0,0.2,0.1,0.3,0.1c0.1,0,0.1,0,0.2,0.1c0.1,0,0.2,0.1,0.4,0.1
			c0.1,0,0.1,0,0.2,0.1c0.2,0.1,0.4,0.1,0.5,0.2l0,0c0.2,0.1,0.4,0.2,0.5,0.2c0.1,0,0.1,0.1,0.2,0.1c0.1,0.1,0.3,0.1,0.4,0.2
			c0.1,0,0.1,0.1,0.2,0.1c0.2,0.1,0.3,0.2,0.5,0.3c0.4,0.2,0.8,0.5,1.2,0.8c0,0,0,0,0.1,0c0.4,0.3,0.7,0.5,1.1,0.8
			c0,0,0.1,0.1,0.1,0.1c0.3,0.3,0.7,0.6,1,0.9c0,0,0.1,0.1,0.1,0.1c0.3,0.3,0.7,0.6,1,1c0,0,0.1,0.1,0.1,0.1c0.3,0.4,0.7,0.7,1,1.1
			c0,0,0,0,0,0c0.3,0.4,0.7,0.8,1,1.2c0,0,0,0,0,0c0.3,0.4,0.6,0.8,0.8,1.2c0.2,0.3,0.3,0.5,0.5,0.8c0.1,0.2,0.3,0.4,0.4,0.6
			c0.1,0.1,0.1,0.2,0.2,0.3c0.2,0.4,0.4,0.7,0.6,1.1c0,0,0,0.1,0.1,0.1c0.2,0.5,0.4,0.9,0.7,1.4c0,0,0,0,0,0.1
			c0.2,0.5,0.4,0.9,0.6,1.4c0,0,0,0.1,0,0.1c0.2,0.5,0.3,0.9,0.5,1.4c0,0,0,0.1,0,0.1c0.1,0.5,0.3,0.9,0.4,1.4c0,0,0,0.1,0,0.1
			c0.1,0.5,0.2,0.9,0.3,1.4c0,0,0,0,0,0c0.1,0.5,0.1,0.9,0.2,1.4c0,0,0,0.1,0,0.1c0,0.5,0.1,0.9,0.1,1.4c0,0.2,0,0.4,0,0.7
			c0,0.1,0,0.1,0,0.2c0,0.1,0,0.3,0,0.4c0,0.1,0,0.2,0,0.2c0,0.1,0,0.2,0,0.4c0,0.1,0,0.2,0,0.3c0,0.1,0,0.2-0.1,0.3
			c0,0.1,0,0.2-0.1,0.3c0,0.1,0,0.2-0.1,0.3c0,0.1-0.1,0.2-0.1,0.3c0,0.1,0,0.2-0.1,0.2c0,0.1-0.1,0.3-0.1,0.4c0,0.1,0,0.1-0.1,0.2
			c-0.1,0.2-0.2,0.4-0.3,0.6c0,0,0,0,0,0.1c-0.1,0.2-0.2,0.5-0.4,0.7c0,0,0,0,0,0.1c-0.1,0.2-0.3,0.4-0.4,0.5c0,0-0.1,0.1-0.1,0.1
			c-0.1,0.2-0.3,0.3-0.4,0.5c0,0,0,0,0,0c-0.2,0.1-0.3,0.3-0.5,0.4c0,0-0.1,0.1-0.1,0.1c-0.2,0.1-0.3,0.2-0.5,0.4l0,0l0,0l0,0
			l2.4-1.4c0.2-0.1,0.4-0.2,0.5-0.4c0,0,0.1-0.1,0.1-0.1c0.2-0.1,0.3-0.3,0.5-0.4c0,0,0,0,0,0c0.1-0.1,0.3-0.3,0.4-0.5
			c0,0,0.1-0.1,0.1-0.1c0.1-0.2,0.3-0.4,0.4-0.5c0,0,0,0,0,0c0,0,0,0,0,0c0.1-0.2,0.3-0.5,0.4-0.7c0,0,0,0,0,0c0,0,0,0,0,0
			c0.1-0.2,0.2-0.4,0.3-0.6c0,0,0,0,0-0.1c0,0,0-0.1,0-0.1c0-0.1,0.1-0.3,0.1-0.4c0,0,0-0.1,0-0.1c0,0,0-0.1,0-0.1
			c0-0.1,0.1-0.2,0.1-0.3c0,0,0-0.1,0-0.1c0,0,0-0.1,0-0.2c0-0.1,0-0.2,0.1-0.3c0-0.1,0-0.1,0-0.1c0-0.1,0-0.1,0-0.2
			c0-0.1,0-0.2,0-0.3c0,0,0-0.1,0-0.1c0-0.1,0-0.2,0-0.2c0-0.1,0-0.2,0-0.2c0,0,0-0.1,0-0.1c0-0.1,0-0.2,0-0.3c0-0.1,0-0.1,0-0.2
			c0,0,0,0,0,0c0-0.2,0-0.4,0-0.6c0,0,0,0,0,0C272.2,114.7,272.2,114.6,272.2,114.4z"/>
		<g>
			<path class="st8" d="M257.9,95.7c6.6,3.8,11.9,13,11.9,20.6c0,5.9-3.3,9.1-7.8,8.4c7.3,6.3,12.6,17,12.6,26l0,5L241,136.2l0-5
				c0-9,5.4-13.5,12.7-11.4c-4.5-4.6-7.8-11.5-7.7-17.4C246,94.9,251.3,91.9,257.9,95.7z"/>
		</g>
		<g class="st5">
			<defs>
				<path id="SVGID_3_" class="st5" d="M277.7,107.9c0,1.3,0.9,2.8,2,3.4c-0.7,0.4-1.4,0.8-2.1,1.2l-0.3,0.2c-1.1-0.6-2-2.1-2-3.4
					c0-0.6,0.2-1.1,0.6-1.3l2.4-1.4C277.9,106.9,277.7,107.3,277.7,107.9z"/>
			</defs>
			<clipPath id="SVGID_4_">
				<use xlink:href="#SVGID_3_"  style="overflow:visible;"/>
			</clipPath>
			<g class="st9">
				<path class="st10" d="M275.9,108l2.4-1.4c-0.1,0.1-0.3,0.2-0.3,0.3l-2.4,1.4C275.6,108.2,275.7,108.1,275.9,108"/>
				<path class="st11" d="M275.5,108.4l2.4-1.4c0,0-0.1,0.1-0.1,0.1l-2.4,1.4C275.5,108.5,275.5,108.4,275.5,108.4"/>
				<path class="st12" d="M275.5,108.5l2.4-1.4c0,0,0,0.1,0,0.1l-2.4,1.4C275.4,108.6,275.4,108.5,275.5,108.5"/>
				<path class="st13" d="M275.4,108.6l2.4-1.4c0,0,0,0.1,0,0.1l-2.4,1.4C275.4,108.7,275.4,108.6,275.4,108.6"/>
				<path class="st14" d="M275.4,108.7l2.4-1.4c0,0,0,0.1,0,0.1l-2.4,1.4C275.4,108.8,275.4,108.7,275.4,108.7"/>
				<path class="st15" d="M275.3,108.8l2.4-1.4c0,0,0,0.1,0,0.1L275.3,108.8C275.3,108.9,275.3,108.8,275.3,108.8"/>
				<path class="st16" d="M275.3,108.9l2.4-1.4c0,0,0,0.1,0,0.1L275.3,108.9C275.3,109,275.3,108.9,275.3,108.9"/>
				<path class="st17" d="M275.3,109l2.4-1.4c0,0,0,0.1,0,0.1L275.3,109C275.3,109.1,275.3,109,275.3,109"/>
				<path class="st18" d="M275.3,109.1l2.4-1.4c0,0,0,0.1,0,0.1L275.3,109.1C275.3,109.2,275.3,109.1,275.3,109.1"/>
				<path class="st19" d="M275.3,109.2l2.4-1.4c0,0,0,0.1,0,0.1L275.3,109.2C275.3,109.3,275.3,109.2,275.3,109.2"/>
				<path class="st20" d="M275.3,109.3l2.4-1.4c0,0,0,0,0,0c0,0,0,0.1,0,0.1L275.3,109.3C275.3,109.4,275.3,109.3,275.3,109.3
					C275.3,109.3,275.3,109.3,275.3,109.3"/>
				<path class="st21" d="M275.3,109.4l2.4-1.4c0,0,0,0.1,0,0.1L275.3,109.4C275.3,109.4,275.3,109.4,275.3,109.4"/>
				<path class="st22" d="M275.3,109.5l2.4-1.4c0,0,0,0.1,0,0.1L275.3,109.5C275.3,109.5,275.3,109.5,275.3,109.5"/>
				<path class="st23" d="M275.3,109.6l2.4-1.4c0,0,0,0.1,0,0.1L275.3,109.6C275.3,109.6,275.3,109.6,275.3,109.6"/>
				<path class="st24" d="M275.3,109.7l2.4-1.4c0,0,0,0.1,0,0.1L275.3,109.7C275.3,109.7,275.3,109.7,275.3,109.7"/>
				<path class="st25" d="M275.3,109.8l2.4-1.4c0,0,0,0.1,0,0.1L275.3,109.8C275.3,109.8,275.3,109.8,275.3,109.8"/>
				<path class="st26" d="M275.3,109.9l2.4-1.4c0,0,0,0.1,0,0.1l-2.4,1.4C275.4,109.9,275.4,109.9,275.3,109.9"/>
				<path class="st27" d="M275.4,110l2.4-1.4c0,0,0,0.1,0,0.1l-2.4,1.4C275.4,110,275.4,110,275.4,110"/>
				<path class="st28" d="M275.4,110.1l2.4-1.4c0,0,0,0.1,0,0.1l-2.4,1.4C275.4,110.1,275.4,110.1,275.4,110.1"/>
				<path class="st29" d="M275.4,110.2l2.4-1.4c0,0,0,0.1,0,0.1l-2.4,1.4C275.4,110.2,275.4,110.2,275.4,110.2"/>
				<path class="st30" d="M275.4,110.3l2.4-1.4c0,0,0,0.1,0,0.1l-2.4,1.4C275.5,110.4,275.5,110.3,275.4,110.3"/>
				<path class="st31" d="M275.5,110.4l2.4-1.4c0,0,0,0.1,0,0.1l-2.4,1.4C275.5,110.5,275.5,110.4,275.5,110.4"/>
				<path class="st32" d="M275.5,110.5l2.4-1.4c0,0,0,0.1,0,0.1L275.5,110.5C275.5,110.5,275.5,110.5,275.5,110.5"/>
				<path class="st33" d="M275.6,110.6l2.4-1.4c0,0,0,0.1,0,0.1L275.6,110.6C275.6,110.6,275.6,110.6,275.6,110.6"/>
				<path class="st34" d="M275.6,110.7l2.4-1.4c0,0,0,0.1,0,0.1L275.6,110.7C275.6,110.7,275.6,110.7,275.6,110.7"/>
				<path class="st35" d="M275.6,110.8l2.4-1.4c0,0,0,0.1,0,0.1L275.6,110.8C275.7,110.8,275.6,110.8,275.6,110.8"/>
				<path class="st36" d="M275.7,110.9l2.4-1.4c0,0,0,0.1,0.1,0.1l-2.4,1.4C275.7,110.9,275.7,110.9,275.7,110.9"/>
				<path class="st37" d="M275.7,111l2.4-1.4c0,0,0,0.1,0.1,0.1l-2.4,1.4C275.8,111,275.7,111,275.7,111"/>
				<path class="st38" d="M275.8,111.1l2.4-1.4c0,0.1,0.1,0.1,0.1,0.2l-2.4,1.4C275.8,111.2,275.8,111.1,275.8,111.1"/>
				<path class="st39" d="M275.9,111.3l2.4-1.4c0,0.1,0.1,0.2,0.2,0.2l-2.4,1.4C276,111.4,275.9,111.3,275.9,111.3"/>
				<path class="st38" d="M276,111.5l2.4-1.4c0,0.1,0.1,0.1,0.1,0.2l-2.4,1.4C276.1,111.6,276.1,111.6,276,111.5"/>
				<path class="st37" d="M276.2,111.7l2.4-1.4c0,0,0.1,0.1,0.1,0.1l-2.4,1.4C276.2,111.7,276.2,111.7,276.2,111.7"/>
				<path class="st36" d="M276.2,111.8l2.4-1.4c0,0,0.1,0.1,0.1,0.1L276.2,111.8C276.3,111.8,276.3,111.8,276.2,111.8"/>
				<path class="st35" d="M276.3,111.9l2.4-1.4c0,0,0.1,0.1,0.1,0.1L276.3,111.9C276.4,111.9,276.3,111.9,276.3,111.9"/>
				<path class="st34" d="M276.4,112l2.4-1.4c0,0,0.1,0.1,0.1,0.1L276.4,112C276.4,112,276.4,112,276.4,112"/>
				<path class="st33" d="M276.5,112.1l2.4-1.4c0,0,0.1,0.1,0.1,0.1L276.5,112.1C276.5,112.1,276.5,112.1,276.5,112.1"/>
				<path class="st32" d="M276.6,112.1l2.4-1.4c0,0,0.1,0.1,0.1,0.1L276.6,112.1C276.6,112.2,276.6,112.2,276.6,112.1"/>
				<path class="st31" d="M276.6,112.2l2.4-1.4c0,0,0.1,0.1,0.1,0.1L276.6,112.2C276.7,112.3,276.7,112.2,276.6,112.2"/>
				<path class="st30" d="M276.7,112.3l2.4-1.4c0,0,0.1,0.1,0.1,0.1L276.7,112.3C276.8,112.4,276.8,112.3,276.7,112.3"/>
				<path class="st29" d="M276.8,112.4l2.4-1.4c0,0,0.1,0,0.1,0.1L276.8,112.4C276.9,112.4,276.8,112.4,276.8,112.4"/>
				<path class="st28" d="M276.9,112.4l2.4-1.4c0,0,0.1,0,0.1,0.1L276.9,112.4C277,112.5,276.9,112.5,276.9,112.4"/>
				<path class="st27" d="M277,112.5l2.4-1.4c0,0,0.1,0,0.1,0.1L277,112.5C277,112.6,277,112.5,277,112.5"/>
				<path class="st26" d="M277.1,112.6l2.4-1.4c0,0,0.1,0,0.1,0.1L277.1,112.6C277.1,112.6,277.1,112.6,277.1,112.6"/>
				<path class="st25" d="M277.2,112.6l2.4-1.4c0,0,0.1,0,0.1,0.1L277.2,112.6C277.2,112.7,277.2,112.6,277.2,112.6"/>
				<path class="st24" d="M277.2,112.7l2.4-1.4c0,0,0,0,0,0L277.2,112.7C277.2,112.7,277.2,112.7,277.2,112.7"/>
			</g>
		</g>
		<g class="st5">
			<defs>
				<path id="SVGID_5_" class="st5" d="M275.9,108l2.4-1.4c0.4-0.2,0.9-0.2,1.4,0.1l-2.4,1.4C276.7,107.9,276.2,107.8,275.9,108z"/>
			</defs>
			<clipPath id="SVGID_6_">
				<use xlink:href="#SVGID_5_"  style="overflow:visible;"/>
			</clipPath>
			<g class="st40">
				<path class="st41" d="M275.9,108l2.4-1.4c0.1,0,0.1-0.1,0.2-0.1L276,108C276,108,275.9,108,275.9,108"/>
				<path class="st42" d="M276,108l2.4-1.4c0,0,0.1,0,0.1,0l-2.4,1.4C276.1,107.9,276.1,107.9,276,108"/>
				<path class="st43" d="M276.2,107.9l2.4-1.4c0,0,0.1,0,0.1,0l-2.4,1.4C276.2,107.9,276.2,107.9,276.2,107.9"/>
				<path class="st44" d="M276.3,107.9l2.4-1.4c0,0,0.1,0,0.1,0l-2.4,1.4C276.3,107.9,276.3,107.9,276.3,107.9"/>
				<path class="st21" d="M276.4,107.9l2.4-1.4c0,0,0.1,0,0.1,0L276.4,107.9C276.4,107.9,276.4,107.9,276.4,107.9"/>
				<path class="st45" d="M276.5,107.9l2.4-1.4c0,0,0.1,0,0.1,0L276.5,107.9C276.5,107.9,276.5,107.9,276.5,107.9"/>
				<path class="st46" d="M276.6,107.9l2.4-1.4c0,0,0.1,0,0.1,0L276.6,107.9C276.6,107.9,276.6,107.9,276.6,107.9"/>
				<path class="st47" d="M276.6,107.9l2.4-1.4c0,0,0.1,0,0.1,0L276.6,107.9C276.7,107.9,276.7,107.9,276.6,107.9"/>
				<path class="st48" d="M276.7,107.9l2.4-1.4c0,0,0.1,0,0.1,0L276.7,107.9C276.8,108,276.8,107.9,276.7,107.9"/>
				<path class="st49" d="M276.8,108l2.4-1.4c0,0,0.1,0,0.1,0L276.8,108C276.9,108,276.8,108,276.8,108"/>
				<path class="st50" d="M276.9,108l2.4-1.4c0,0,0.1,0,0.1,0L276.9,108C276.9,108,276.9,108,276.9,108"/>
				<path class="st51" d="M277,108l2.4-1.4c0,0,0.1,0,0.1,0L277,108C277,108,277,108,277,108"/>
				<path class="st52" d="M277,108.1l2.4-1.4c0,0,0.1,0,0.1,0L277,108.1C277.1,108.1,277.1,108.1,277,108.1"/>
				<path class="st32" d="M277.1,108.1l2.4-1.4c0,0,0.1,0,0.1,0L277.1,108.1C277.2,108.1,277.2,108.1,277.1,108.1"/>
				<path class="st53" d="M277.2,108.1l2.4-1.4c0,0,0,0,0.1,0L277.2,108.1C277.2,108.2,277.2,108.1,277.2,108.1"/>
			</g>
		</g>
		<g class="st5">
			<defs>
				<path id="SVGID_7_" class="st5" d="M281,111.5l-2.4,1.4c0.4-0.2,0.6-0.6,0.6-1.3c0-1.3-0.9-2.8-2-3.4l2.4-1.4
					c1.1,0.6,2,2.2,2,3.4C281.6,110.8,281.4,111.2,281,111.5z"/>
			</defs>
			<clipPath id="SVGID_8_">
				<use xlink:href="#SVGID_7_"  style="overflow:visible;"/>
			</clipPath>
			<g class="st54">
				<path class="st53" d="M277.3,108.2l2.4-1.4c0,0,0,0,0,0L277.3,108.2C277.3,108.2,277.3,108.2,277.3,108.2"/>
				<path class="st55" d="M277.3,108.2l2.4-1.4c0,0,0.1,0,0.1,0.1L277.3,108.2C277.3,108.2,277.3,108.2,277.3,108.2"/>
				<path class="st56" d="M277.4,108.2l2.4-1.4c0,0,0.1,0,0.1,0.1L277.4,108.2C277.4,108.3,277.4,108.2,277.4,108.2"/>
				<path class="st38" d="M277.5,108.3l2.4-1.4c0,0,0.1,0,0.1,0.1L277.5,108.3C277.5,108.3,277.5,108.3,277.5,108.3"/>
				<path class="st57" d="M277.5,108.3l2.4-1.4c0,0,0.1,0,0.1,0.1L277.5,108.3C277.6,108.4,277.6,108.4,277.5,108.3"/>
				<path class="st58" d="M277.6,108.4l2.4-1.4c0,0,0.1,0,0.1,0.1L277.6,108.4C277.7,108.5,277.7,108.4,277.6,108.4"/>
				<path class="st59" d="M277.7,108.5l2.4-1.4c0,0,0.1,0.1,0.1,0.1L277.7,108.5C277.8,108.5,277.7,108.5,277.7,108.5"/>
				<path class="st60" d="M277.8,108.6l2.4-1.4c0,0,0.1,0.1,0.1,0.1L277.8,108.6C277.9,108.6,277.8,108.6,277.8,108.6"/>
				<path class="st61" d="M277.9,108.6l2.4-1.4c0,0,0.1,0.1,0.1,0.1L277.9,108.6C277.9,108.7,277.9,108.7,277.9,108.6"/>
				<path class="st62" d="M278,108.7l2.4-1.4c0,0,0.1,0.1,0.1,0.1L278,108.7C278,108.8,278,108.8,278,108.7"/>
				<path class="st2" d="M278.1,108.8l2.4-1.4c0,0,0.1,0.1,0.1,0.1L278.1,108.8C278.1,108.9,278.1,108.8,278.1,108.8"/>
				<path class="st2" d="M278.1,108.9l2.4-1.4c0,0,0.1,0.1,0.1,0.1L278.1,108.9C278.2,109,278.2,108.9,278.1,108.9"/>
				<path class="st2" d="M278.2,109l2.4-1.4c0,0,0.1,0.1,0.1,0.1L278.2,109C278.3,109,278.2,109,278.2,109"/>
				<path class="st2" d="M278.3,109.1l2.4-1.4c0,0,0.1,0.1,0.1,0.1l-2.4,1.4C278.3,109.2,278.3,109.1,278.3,109.1"/>
				<path class="st2" d="M278.4,109.2l2.4-1.4c0,0.1,0.1,0.1,0.1,0.2l-2.4,1.4C278.5,109.3,278.4,109.2,278.4,109.2"/>
				<path class="st2" d="M278.5,109.4l2.4-1.4c0.1,0.1,0.1,0.2,0.1,0.2l-2.4,1.4C278.6,109.5,278.5,109.4,278.5,109.4"/>
				<path class="st2" d="M278.6,109.6l2.4-1.4c0,0.1,0.1,0.1,0.1,0.2l-2.4,1.4C278.7,109.7,278.7,109.7,278.6,109.6"/>
				<path class="st2" d="M278.7,109.8l2.4-1.4c0,0,0,0.1,0.1,0.1l-2.4,1.4C278.8,109.9,278.8,109.8,278.7,109.8"/>
				<path class="st2" d="M278.8,109.9l2.4-1.4c0,0,0,0.1,0.1,0.1l-2.4,1.4C278.8,110,278.8,109.9,278.8,109.9"/>
				<path class="st2" d="M278.8,110l2.4-1.4c0,0,0,0.1,0,0.1L278.8,110C278.9,110.1,278.9,110,278.8,110"/>
				<path class="st2" d="M278.9,110.1l2.4-1.4c0,0,0,0.1,0,0.1L278.9,110.1C278.9,110.2,278.9,110.1,278.9,110.1"/>
				<path class="st62" d="M278.9,110.2l2.4-1.4c0,0,0,0.1,0,0.1L278.9,110.2C279,110.3,278.9,110.2,278.9,110.2"/>
				<path class="st61" d="M279,110.3l2.4-1.4c0,0,0,0.1,0,0.1L279,110.3C279,110.3,279,110.3,279,110.3"/>
				<path class="st60" d="M279,110.4l2.4-1.4c0,0,0,0.1,0,0.1l-2.4,1.4C279,110.4,279,110.4,279,110.4"/>
				<path class="st59" d="M279,110.5l2.4-1.4c0,0,0,0.1,0,0.1l-2.4,1.4C279.1,110.5,279.1,110.5,279,110.5"/>
				<path class="st58" d="M279.1,110.6l2.4-1.4c0,0,0,0.1,0,0.1l-2.4,1.4C279.1,110.7,279.1,110.6,279.1,110.6"/>
				<path class="st57" d="M279.1,110.7l2.4-1.4c0,0,0,0.1,0,0.1l-2.4,1.4C279.1,110.8,279.1,110.7,279.1,110.7"/>
				<path class="st38" d="M279.1,110.8l2.4-1.4c0,0,0,0.1,0,0.1l-2.4,1.4C279.2,110.9,279.1,110.8,279.1,110.8"/>
				<path class="st56" d="M279.2,110.9l2.4-1.4c0,0,0,0.1,0,0.1l-2.4,1.4C279.2,111,279.2,110.9,279.2,110.9"/>
				<path class="st55" d="M279.2,111l2.4-1.4c0,0,0,0.1,0,0.1L279.2,111C279.2,111.1,279.2,111,279.2,111"/>
				<path class="st53" d="M279.2,111.1l2.4-1.4c0,0,0,0.1,0,0.1L279.2,111.1C279.2,111.2,279.2,111.1,279.2,111.1"/>
				<path class="st32" d="M279.2,111.2l2.4-1.4c0,0,0,0.1,0,0.1L279.2,111.2C279.2,111.3,279.2,111.2,279.2,111.2"/>
				<path class="st52" d="M279.2,111.3l2.4-1.4c0,0,0,0.1,0,0.1L279.2,111.3C279.2,111.4,279.2,111.3,279.2,111.3"/>
				<path class="st51" d="M279.2,111.4l2.4-1.4c0,0,0,0.1,0,0.1L279.2,111.4C279.2,111.5,279.2,111.4,279.2,111.4"/>
				<path class="st50" d="M279.2,111.5l2.4-1.4c0,0,0,0.1,0,0.1c0,0,0,0,0,0L279.2,111.5C279.2,111.6,279.2,111.6,279.2,111.5
					C279.2,111.5,279.2,111.5,279.2,111.5"/>
				<path class="st49" d="M279.2,111.6l2.4-1.4c0,0,0,0.1,0,0.1L279.2,111.6C279.2,111.6,279.2,111.6,279.2,111.6"/>
				<path class="st48" d="M279.2,111.7l2.4-1.4c0,0,0,0.1,0,0.1L279.2,111.7C279.2,111.7,279.2,111.7,279.2,111.7"/>
				<path class="st47" d="M279.2,111.8l2.4-1.4c0,0,0,0.1,0,0.1L279.2,111.8C279.2,111.8,279.2,111.8,279.2,111.8"/>
				<path class="st46" d="M279.2,111.9l2.4-1.4c0,0,0,0.1,0,0.1L279.2,111.9C279.2,111.9,279.2,111.9,279.2,111.9"/>
				<path class="st45" d="M279.2,112l2.4-1.4c0,0,0,0.1,0,0.1L279.2,112C279.2,112,279.2,112,279.2,112"/>
				<path class="st21" d="M279.2,112l2.4-1.4c0,0,0,0.1,0,0.1l-2.4,1.4C279.2,112.1,279.2,112.1,279.2,112"/>
				<path class="st44" d="M279.2,112.2l2.4-1.4c0,0,0,0.1,0,0.1l-2.4,1.4C279.1,112.2,279.1,112.2,279.2,112.2"/>
				<path class="st43" d="M279.1,112.3l2.4-1.4c0,0,0,0.1,0,0.1l-2.4,1.4C279.1,112.3,279.1,112.3,279.1,112.3"/>
				<path class="st42" d="M279.1,112.4l2.4-1.4c0,0,0,0.1-0.1,0.1l-2.4,1.4C279,112.5,279.1,112.4,279.1,112.4"/>
				<path class="st41" d="M279,112.5l2.4-1.4c-0.1,0.1-0.2,0.3-0.3,0.3l-2.4,1.4C278.8,112.8,278.9,112.6,279,112.5"/>
			</g>
		</g>
		<g class="st5">
			<defs>
				<path id="SVGID_9_" class="st5" d="M284.2,111.7c0,1.3,0.9,2.8,2,3.4l-2.4,1.4c-1.1-0.6-2-2.1-2-3.4c0-0.6,0.2-1.1,0.6-1.3
					l2.4-1.4C284.4,110.6,284.2,111.1,284.2,111.7z"/>
			</defs>
			<clipPath id="SVGID_10_">
				<use xlink:href="#SVGID_9_"  style="overflow:visible;"/>
			</clipPath>
			<g class="st63">
				<path class="st10" d="M282.4,111.8l2.4-1.4c-0.1,0.1-0.3,0.2-0.3,0.3l-2.4,1.4C282.1,112,282.3,111.9,282.4,111.8"/>
				<path class="st11" d="M282.1,112.1l2.4-1.4c0,0-0.1,0.1-0.1,0.1l-2.4,1.4C282,112.2,282,112.2,282.1,112.1"/>
				<path class="st12" d="M282,112.3l2.4-1.4c0,0,0,0.1,0,0.1l-2.4,1.4C281.9,112.3,282,112.3,282,112.3"/>
				<path class="st13" d="M281.9,112.4l2.4-1.4c0,0,0,0.1,0,0.1l-2.4,1.4C281.9,112.4,281.9,112.4,281.9,112.4"/>
				<path class="st14" d="M281.9,112.5l2.4-1.4c0,0,0,0.1,0,0.1l-2.4,1.4C281.9,112.6,281.9,112.5,281.9,112.5"/>
				<path class="st15" d="M281.9,112.6l2.4-1.4c0,0,0,0.1,0,0.1L281.9,112.6C281.9,112.6,281.9,112.6,281.9,112.6"/>
				<path class="st16" d="M281.9,112.7l2.4-1.4c0,0,0,0.1,0,0.1L281.9,112.7C281.8,112.7,281.8,112.7,281.9,112.7"/>
				<path class="st17" d="M281.8,112.8l2.4-1.4c0,0,0,0.1,0,0.1L281.8,112.8C281.8,112.8,281.8,112.8,281.8,112.8"/>
				<path class="st18" d="M281.8,112.9l2.4-1.4c0,0,0,0.1,0,0.1L281.8,112.9C281.8,112.9,281.8,112.9,281.8,112.9"/>
				<path class="st19" d="M281.8,113l2.4-1.4c0,0,0,0.1,0,0.1L281.8,113C281.8,113,281.8,113,281.8,113"/>
				<path class="st20" d="M281.8,113.1l2.4-1.4c0,0,0,0,0,0c0,0,0,0.1,0,0.1L281.8,113.1C281.8,113.1,281.8,113.1,281.8,113.1
					C281.8,113.1,281.8,113.1,281.8,113.1"/>
				<path class="st21" d="M281.8,113.2l2.4-1.4c0,0,0,0.1,0,0.1L281.8,113.2C281.8,113.2,281.8,113.2,281.8,113.2"/>
				<path class="st22" d="M281.8,113.2l2.4-1.4c0,0,0,0.1,0,0.1L281.8,113.2C281.8,113.3,281.8,113.3,281.8,113.2"/>
				<path class="st23" d="M281.8,113.3l2.4-1.4c0,0,0,0.1,0,0.1L281.8,113.3C281.8,113.4,281.8,113.4,281.8,113.3"/>
				<path class="st24" d="M281.8,113.4l2.4-1.4c0,0,0,0.1,0,0.1L281.8,113.4C281.9,113.5,281.8,113.5,281.8,113.4"/>
				<path class="st25" d="M281.9,113.5l2.4-1.4c0,0,0,0.1,0,0.1L281.9,113.5C281.9,113.6,281.9,113.6,281.9,113.5"/>
				<path class="st26" d="M281.9,113.6l2.4-1.4c0,0,0,0.1,0,0.1l-2.4,1.4C281.9,113.7,281.9,113.7,281.9,113.6"/>
				<path class="st27" d="M281.9,113.7l2.4-1.4c0,0,0,0.1,0,0.1l-2.4,1.4C281.9,113.8,281.9,113.8,281.9,113.7"/>
				<path class="st28" d="M281.9,113.8l2.4-1.4c0,0,0,0.1,0,0.1l-2.4,1.4C281.9,113.9,281.9,113.9,281.9,113.8"/>
				<path class="st29" d="M281.9,113.9l2.4-1.4c0,0,0,0.1,0,0.1l-2.4,1.4C282,114,282,114,281.9,113.9"/>
				<path class="st30" d="M282,114.1l2.4-1.4c0,0,0,0.1,0,0.1l-2.4,1.4C282,114.1,282,114.1,282,114.1"/>
				<path class="st31" d="M282,114.2l2.4-1.4c0,0,0,0.1,0,0.1l-2.4,1.4C282,114.2,282,114.2,282,114.2"/>
				<path class="st32" d="M282,114.3l2.4-1.4c0,0,0,0.1,0,0.1L282,114.3C282.1,114.3,282.1,114.3,282,114.3"/>
				<path class="st33" d="M282.1,114.3l2.4-1.4c0,0,0,0.1,0,0.1L282.1,114.3C282.1,114.4,282.1,114.4,282.1,114.3"/>
				<path class="st34" d="M282.1,114.4l2.4-1.4c0,0,0,0.1,0,0.1L282.1,114.4C282.1,114.5,282.1,114.5,282.1,114.4"/>
				<path class="st35" d="M282.2,114.5l2.4-1.4c0,0,0,0.1,0,0.1L282.2,114.5C282.2,114.6,282.2,114.6,282.2,114.5"/>
				<path class="st36" d="M282.2,114.6l2.4-1.4c0,0,0,0.1,0.1,0.1l-2.4,1.4C282.2,114.7,282.2,114.7,282.2,114.6"/>
				<path class="st37" d="M282.3,114.7l2.4-1.4c0,0,0,0.1,0.1,0.1l-2.4,1.4C282.3,114.8,282.3,114.8,282.3,114.7"/>
				<path class="st38" d="M282.3,114.9l2.4-1.4c0,0.1,0.1,0.1,0.1,0.2l-2.4,1.4C282.4,115,282.3,114.9,282.3,114.9"/>
				<path class="st39" d="M282.4,115l2.4-1.4c0,0.1,0.1,0.2,0.2,0.2l-2.4,1.4C282.5,115.2,282.5,115.1,282.4,115"/>
				<path class="st38" d="M282.6,115.3l2.4-1.4c0,0.1,0.1,0.1,0.1,0.2l-2.4,1.4C282.6,115.4,282.6,115.3,282.6,115.3"/>
				<path class="st37" d="M282.7,115.4l2.4-1.4c0,0,0.1,0.1,0.1,0.1l-2.4,1.4C282.7,115.5,282.7,115.5,282.7,115.4"/>
				<path class="st36" d="M282.8,115.6l2.4-1.4c0,0,0.1,0.1,0.1,0.1L282.8,115.6C282.8,115.6,282.8,115.6,282.8,115.6"/>
				<path class="st35" d="M282.8,115.6l2.4-1.4c0,0,0.1,0.1,0.1,0.1L282.8,115.6C282.9,115.7,282.9,115.7,282.8,115.6"/>
				<path class="st34" d="M282.9,115.7l2.4-1.4c0,0,0.1,0.1,0.1,0.1L282.9,115.7C283,115.8,282.9,115.8,282.9,115.7"/>
				<path class="st33" d="M283,115.8l2.4-1.4c0,0,0.1,0.1,0.1,0.1L283,115.8C283.1,115.9,283,115.9,283,115.8"/>
				<path class="st32" d="M283.1,115.9l2.4-1.4c0,0,0.1,0.1,0.1,0.1L283.1,115.9C283.1,116,283.1,115.9,283.1,115.9"/>
				<path class="st31" d="M283.2,116l2.4-1.4c0,0,0.1,0.1,0.1,0.1L283.2,116C283.2,116,283.2,116,283.2,116"/>
				<path class="st30" d="M283.2,116.1l2.4-1.4c0,0,0.1,0.1,0.1,0.1L283.2,116.1C283.3,116.1,283.3,116.1,283.2,116.1"/>
				<path class="st29" d="M283.3,116.1l2.4-1.4c0,0,0.1,0,0.1,0.1L283.3,116.1C283.4,116.2,283.4,116.2,283.3,116.1"/>
				<path class="st28" d="M283.4,116.2l2.4-1.4c0,0,0.1,0,0.1,0.1L283.4,116.2C283.5,116.3,283.5,116.2,283.4,116.2"/>
				<path class="st27" d="M283.5,116.3l2.4-1.4c0,0,0.1,0,0.1,0.1L283.5,116.3C283.6,116.3,283.5,116.3,283.5,116.3"/>
				<path class="st26" d="M283.6,116.3l2.4-1.4c0,0,0.1,0,0.1,0.1L283.6,116.3C283.7,116.4,283.6,116.4,283.6,116.3"/>
				<path class="st25" d="M283.7,116.4l2.4-1.4c0,0,0.1,0,0.1,0.1L283.7,116.4C283.7,116.4,283.7,116.4,283.7,116.4"/>
				<path class="st24" d="M283.8,116.5l2.4-1.4c0,0,0,0,0,0L283.8,116.5C283.8,116.5,283.8,116.5,283.8,116.5"/>
			</g>
		</g>
		<g class="st5">
			<defs>
				<path id="SVGID_11_" class="st5" d="M282.4,111.8l2.4-1.4c0.4-0.2,0.9-0.2,1.4,0.1l-2.4,1.4
					C283.2,111.6,282.8,111.6,282.4,111.8z"/>
			</defs>
			<clipPath id="SVGID_12_">
				<use xlink:href="#SVGID_11_"  style="overflow:visible;"/>
			</clipPath>
			<g class="st64">
				<path class="st41" d="M282.4,111.8l2.4-1.4c0.1,0,0.1-0.1,0.2-0.1l-2.4,1.4C282.5,111.7,282.4,111.8,282.4,111.8"/>
				<path class="st42" d="M282.6,111.7l2.4-1.4c0,0,0.1,0,0.1,0l-2.4,1.4C282.6,111.7,282.6,111.7,282.6,111.7"/>
				<path class="st43" d="M282.7,111.7l2.4-1.4c0,0,0.1,0,0.1,0l-2.4,1.4C282.8,111.7,282.7,111.7,282.7,111.7"/>
				<path class="st44" d="M282.8,111.7l2.4-1.4c0,0,0.1,0,0.1,0l-2.4,1.4C282.9,111.7,282.8,111.7,282.8,111.7"/>
				<path class="st21" d="M282.9,111.7l2.4-1.4c0,0,0.1,0,0.1,0L282.9,111.7C283,111.7,282.9,111.7,282.9,111.7"/>
				<path class="st45" d="M283,111.7l2.4-1.4c0,0,0.1,0,0.1,0L283,111.7C283.1,111.7,283,111.7,283,111.7"/>
				<path class="st46" d="M283.1,111.7l2.4-1.4c0,0,0.1,0,0.1,0L283.1,111.7C283.1,111.7,283.1,111.7,283.1,111.7"/>
				<path class="st47" d="M283.2,111.7l2.4-1.4c0,0,0.1,0,0.1,0L283.2,111.7C283.2,111.7,283.2,111.7,283.2,111.7"/>
				<path class="st48" d="M283.3,111.7l2.4-1.4c0,0,0.1,0,0.1,0L283.3,111.7C283.3,111.7,283.3,111.7,283.3,111.7"/>
				<path class="st49" d="M283.3,111.7l2.4-1.4c0,0,0.1,0,0.1,0L283.3,111.7C283.4,111.8,283.4,111.7,283.3,111.7"/>
				<path class="st50" d="M283.4,111.8l2.4-1.4c0,0,0.1,0,0.1,0L283.4,111.8C283.5,111.8,283.4,111.8,283.4,111.8"/>
				<path class="st51" d="M283.5,111.8l2.4-1.4c0,0,0.1,0,0.1,0L283.5,111.8C283.5,111.8,283.5,111.8,283.5,111.8"/>
				<path class="st52" d="M283.6,111.8l2.4-1.4c0,0,0.1,0,0.1,0L283.6,111.8C283.6,111.8,283.6,111.8,283.6,111.8"/>
				<path class="st32" d="M283.7,111.9l2.4-1.4c0,0,0.1,0,0.1,0L283.7,111.9C283.7,111.9,283.7,111.9,283.7,111.9"/>
				<path class="st53" d="M283.7,111.9l2.4-1.4c0,0,0,0,0.1,0L283.7,111.9C283.8,111.9,283.8,111.9,283.7,111.9"/>
			</g>
		</g>
		<g class="st5">
			<defs>
				<path id="SVGID_13_" class="st5" d="M287.6,115.2l-2.4,1.4c0.4-0.2,0.6-0.6,0.6-1.3c0-1.3-0.9-2.8-2-3.4l2.4-1.4
					c1.1,0.6,2,2.2,2,3.4C288.1,114.6,287.9,115,287.6,115.2z"/>
			</defs>
			<clipPath id="SVGID_14_">
				<use xlink:href="#SVGID_13_"  style="overflow:visible;"/>
			</clipPath>
			<g class="st65">
				<path class="st53" d="M283.8,111.9l2.4-1.4c0,0,0,0,0,0L283.8,111.9C283.8,111.9,283.8,111.9,283.8,111.9"/>
				<path class="st55" d="M283.8,111.9l2.4-1.4c0,0,0.1,0,0.1,0.1L283.8,111.9C283.9,112,283.8,112,283.8,111.9"/>
				<path class="st56" d="M283.9,112l2.4-1.4c0,0,0.1,0,0.1,0.1L283.9,112C284,112,283.9,112,283.9,112"/>
				<path class="st38" d="M284,112.1l2.4-1.4c0,0,0.1,0,0.1,0.1L284,112.1C284,112.1,284,112.1,284,112.1"/>
				<path class="st57" d="M284.1,112.1l2.4-1.4c0,0,0.1,0,0.1,0.1L284.1,112.1C284.1,112.2,284.1,112.1,284.1,112.1"/>
				<path class="st58" d="M284.2,112.2l2.4-1.4c0,0,0.1,0,0.1,0.1L284.2,112.2C284.2,112.2,284.2,112.2,284.2,112.2"/>
				<path class="st59" d="M284.2,112.3l2.4-1.4c0,0,0.1,0.1,0.1,0.1L284.2,112.3C284.3,112.3,284.3,112.3,284.2,112.3"/>
				<path class="st60" d="M284.3,112.3l2.4-1.4c0,0,0.1,0.1,0.1,0.1L284.3,112.3C284.4,112.4,284.4,112.4,284.3,112.3"/>
				<path class="st61" d="M284.4,112.4l2.4-1.4c0,0,0.1,0.1,0.1,0.1L284.4,112.4C284.5,112.5,284.4,112.4,284.4,112.4"/>
				<path class="st62" d="M284.5,112.5l2.4-1.4c0,0,0.1,0.1,0.1,0.1L284.5,112.5C284.6,112.5,284.5,112.5,284.5,112.5"/>
				<path class="st2" d="M284.6,112.6l2.4-1.4c0,0,0.1,0.1,0.1,0.1L284.6,112.6C284.6,112.6,284.6,112.6,284.6,112.6"/>
				<path class="st2" d="M284.7,112.7l2.4-1.4c0,0,0.1,0.1,0.1,0.1L284.7,112.7C284.7,112.7,284.7,112.7,284.7,112.7"/>
				<path class="st2" d="M284.7,112.8l2.4-1.4c0,0,0.1,0.1,0.1,0.1L284.7,112.8C284.8,112.8,284.8,112.8,284.7,112.8"/>
				<path class="st2" d="M284.8,112.8l2.4-1.4c0,0,0.1,0.1,0.1,0.1l-2.4,1.4C284.9,112.9,284.8,112.9,284.8,112.8"/>
				<path class="st2" d="M284.9,113l2.4-1.4c0,0.1,0.1,0.1,0.1,0.2l-2.4,1.4C285,113.1,284.9,113,284.9,113"/>
				<path class="st2" d="M285,113.1l2.4-1.4c0.1,0.1,0.1,0.2,0.1,0.2l-2.4,1.4C285.1,113.3,285.1,113.2,285,113.1"/>
				<path class="st2" d="M285.2,113.4l2.4-1.4c0,0.1,0.1,0.1,0.1,0.2l-2.4,1.4C285.2,113.5,285.2,113.4,285.2,113.4"/>
				<path class="st2" d="M285.3,113.5l2.4-1.4c0,0,0,0.1,0.1,0.1l-2.4,1.4C285.3,113.6,285.3,113.6,285.3,113.5"/>
				<path class="st2" d="M285.3,113.7l2.4-1.4c0,0,0,0.1,0.1,0.1l-2.4,1.4C285.4,113.7,285.3,113.7,285.3,113.7"/>
				<path class="st2" d="M285.4,113.8l2.4-1.4c0,0,0,0.1,0,0.1L285.4,113.8C285.4,113.8,285.4,113.8,285.4,113.8"/>
				<path class="st2" d="M285.4,113.9l2.4-1.4c0,0,0,0.1,0,0.1L285.4,113.9C285.4,113.9,285.4,113.9,285.4,113.9"/>
				<path class="st62" d="M285.5,114l2.4-1.4c0,0,0,0.1,0,0.1L285.5,114C285.5,114,285.5,114,285.5,114"/>
				<path class="st61" d="M285.5,114.1l2.4-1.4c0,0,0,0.1,0,0.1L285.5,114.1C285.5,114.1,285.5,114.1,285.5,114.1"/>
				<path class="st60" d="M285.5,114.1l2.4-1.4c0,0,0,0.1,0,0.1l-2.4,1.4C285.6,114.2,285.5,114.2,285.5,114.1"/>
				<path class="st59" d="M285.6,114.2l2.4-1.4c0,0,0,0.1,0,0.1l-2.4,1.4C285.6,114.3,285.6,114.3,285.6,114.2"/>
				<path class="st58" d="M285.6,114.4l2.4-1.4c0,0,0,0.1,0,0.1l-2.4,1.4C285.6,114.4,285.6,114.4,285.6,114.4"/>
				<path class="st57" d="M285.6,114.5l2.4-1.4c0,0,0,0.1,0,0.1l-2.4,1.4C285.7,114.5,285.6,114.5,285.6,114.5"/>
				<path class="st38" d="M285.7,114.6l2.4-1.4c0,0,0,0.1,0,0.1l-2.4,1.4C285.7,114.6,285.7,114.6,285.7,114.6"/>
				<path class="st56" d="M285.7,114.7l2.4-1.4c0,0,0,0.1,0,0.1l-2.4,1.4C285.7,114.7,285.7,114.7,285.7,114.7"/>
				<path class="st55" d="M285.7,114.8l2.4-1.4c0,0,0,0.1,0,0.1L285.7,114.8C285.7,114.8,285.7,114.8,285.7,114.8"/>
				<path class="st53" d="M285.7,114.9l2.4-1.4c0,0,0,0.1,0,0.1L285.7,114.9C285.7,114.9,285.7,114.9,285.7,114.9"/>
				<path class="st32" d="M285.7,115l2.4-1.4c0,0,0,0.1,0,0.1L285.7,115C285.7,115,285.7,115,285.7,115"/>
				<path class="st52" d="M285.7,115.1l2.4-1.4c0,0,0,0.1,0,0.1L285.7,115.1C285.8,115.1,285.8,115.1,285.7,115.1"/>
				<path class="st51" d="M285.8,115.2l2.4-1.4c0,0,0,0.1,0,0.1L285.8,115.2C285.8,115.2,285.8,115.2,285.8,115.2"/>
				<path class="st50" d="M285.8,115.3l2.4-1.4c0,0,0,0.1,0,0.1c0,0,0,0,0,0L285.8,115.3C285.8,115.3,285.8,115.3,285.8,115.3
					C285.8,115.3,285.8,115.3,285.8,115.3"/>
				<path class="st49" d="M285.8,115.3l2.4-1.4c0,0,0,0.1,0,0.1L285.8,115.3C285.8,115.4,285.8,115.4,285.8,115.3"/>
				<path class="st48" d="M285.8,115.4l2.4-1.4c0,0,0,0.1,0,0.1L285.8,115.4C285.8,115.5,285.8,115.5,285.8,115.4"/>
				<path class="st47" d="M285.8,115.5l2.4-1.4c0,0,0,0.1,0,0.1L285.8,115.5C285.7,115.6,285.8,115.6,285.8,115.5"/>
				<path class="st46" d="M285.7,115.6l2.4-1.4c0,0,0,0.1,0,0.1L285.7,115.6C285.7,115.7,285.7,115.7,285.7,115.6"/>
				<path class="st45" d="M285.7,115.7l2.4-1.4c0,0,0,0.1,0,0.1L285.7,115.7C285.7,115.8,285.7,115.8,285.7,115.7"/>
				<path class="st21" d="M285.7,115.8l2.4-1.4c0,0,0,0.1,0,0.1l-2.4,1.4C285.7,115.9,285.7,115.9,285.7,115.8"/>
				<path class="st44" d="M285.7,115.9l2.4-1.4c0,0,0,0.1,0,0.1l-2.4,1.4C285.7,116,285.7,116,285.7,115.9"/>
				<path class="st43" d="M285.7,116l2.4-1.4c0,0,0,0.1,0,0.1l-2.4,1.4C285.6,116.1,285.6,116.1,285.7,116"/>
				<path class="st42" d="M285.6,116.1l2.4-1.4c0,0,0,0.1-0.1,0.1l-2.4,1.4C285.6,116.2,285.6,116.2,285.6,116.1"/>
				<path class="st41" d="M285.5,116.3l2.4-1.4c-0.1,0.1-0.2,0.3-0.3,0.3l-2.4,1.4C285.3,116.5,285.4,116.4,285.5,116.3"/>
			</g>
		</g>
		<g class="st5">
			<defs>
				<path id="SVGID_15_" class="st5" d="M290.7,115.5c0,1.3,0.9,2.8,2,3.4c-0.7,0.4-1.4,0.8-2.1,1.2l-0.3,0.2c-1.1-0.6-2-2.1-2-3.4
					c0-0.6,0.2-1.1,0.6-1.3l2.4-1.4C290.9,114.4,290.7,114.8,290.7,115.5z"/>
			</defs>
			<clipPath id="SVGID_16_">
				<use xlink:href="#SVGID_15_"  style="overflow:visible;"/>
			</clipPath>
			<g class="st66">
				<path class="st10" d="M288.9,115.6l2.4-1.4c-0.1,0.1-0.3,0.2-0.3,0.3l-2.4,1.4C288.7,115.8,288.8,115.6,288.9,115.6"/>
				<path class="st11" d="M288.6,115.9l2.4-1.4c0,0-0.1,0.1-0.1,0.1l-2.4,1.4C288.5,116,288.6,115.9,288.6,115.9"/>
				<path class="st12" d="M288.5,116l2.4-1.4c0,0,0,0.1,0,0.1l-2.4,1.4C288.5,116.1,288.5,116.1,288.5,116"/>
				<path class="st13" d="M288.5,116.2l2.4-1.4c0,0,0,0.1,0,0.1l-2.4,1.4C288.4,116.2,288.4,116.2,288.5,116.2"/>
				<path class="st14" d="M288.4,116.3l2.4-1.4c0,0,0,0.1,0,0.1l-2.4,1.4C288.4,116.3,288.4,116.3,288.4,116.3"/>
				<path class="st15" d="M288.4,116.4l2.4-1.4c0,0,0,0.1,0,0.1L288.4,116.4C288.4,116.4,288.4,116.4,288.4,116.4"/>
				<path class="st16" d="M288.4,116.5l2.4-1.4c0,0,0,0.1,0,0.1L288.4,116.5C288.4,116.5,288.4,116.5,288.4,116.5"/>
				<path class="st17" d="M288.4,116.5l2.4-1.4c0,0,0,0.1,0,0.1L288.4,116.5C288.4,116.6,288.4,116.6,288.4,116.5"/>
				<path class="st18" d="M288.4,116.6l2.4-1.4c0,0,0,0.1,0,0.1L288.4,116.6C288.4,116.7,288.4,116.7,288.4,116.6"/>
				<path class="st19" d="M288.3,116.7l2.4-1.4c0,0,0,0.1,0,0.1L288.3,116.7C288.3,116.8,288.3,116.8,288.3,116.7"/>
				<path class="st20" d="M288.3,116.8l2.4-1.4c0,0,0,0,0,0c0,0,0,0.1,0,0.1L288.3,116.8C288.3,116.9,288.3,116.9,288.3,116.8
					C288.3,116.8,288.3,116.8,288.3,116.8"/>
				<path class="st21" d="M288.3,116.9l2.4-1.4c0,0,0,0.1,0,0.1L288.3,116.9C288.4,117,288.3,117,288.3,116.9"/>
				<path class="st22" d="M288.4,117l2.4-1.4c0,0,0,0.1,0,0.1L288.4,117C288.4,117.1,288.4,117,288.4,117"/>
				<path class="st23" d="M288.4,117.1l2.4-1.4c0,0,0,0.1,0,0.1L288.4,117.1C288.4,117.2,288.4,117.1,288.4,117.1"/>
				<path class="st24" d="M288.4,117.2l2.4-1.4c0,0,0,0.1,0,0.1L288.4,117.2C288.4,117.3,288.4,117.2,288.4,117.2"/>
				<path class="st25" d="M288.4,117.3l2.4-1.4c0,0,0,0.1,0,0.1L288.4,117.3C288.4,117.4,288.4,117.3,288.4,117.3"/>
				<path class="st26" d="M288.4,117.4l2.4-1.4c0,0,0,0.1,0,0.1l-2.4,1.4C288.4,117.5,288.4,117.4,288.4,117.4"/>
				<path class="st27" d="M288.4,117.5l2.4-1.4c0,0,0,0.1,0,0.1l-2.4,1.4C288.4,117.6,288.4,117.5,288.4,117.5"/>
				<path class="st28" d="M288.4,117.6l2.4-1.4c0,0,0,0.1,0,0.1l-2.4,1.4C288.5,117.7,288.5,117.6,288.4,117.6"/>
				<path class="st29" d="M288.5,117.7l2.4-1.4c0,0,0,0.1,0,0.1l-2.4,1.4C288.5,117.8,288.5,117.8,288.5,117.7"/>
				<path class="st30" d="M288.5,117.8l2.4-1.4c0,0,0,0.1,0,0.1l-2.4,1.4C288.5,117.9,288.5,117.9,288.5,117.8"/>
				<path class="st31" d="M288.5,117.9l2.4-1.4c0,0,0,0.1,0,0.1l-2.4,1.4C288.6,118,288.5,118,288.5,117.9"/>
				<path class="st32" d="M288.6,118l2.4-1.4c0,0,0,0.1,0,0.1L288.6,118C288.6,118.1,288.6,118.1,288.6,118"/>
				<path class="st33" d="M288.6,118.1l2.4-1.4c0,0,0,0.1,0,0.1L288.6,118.1C288.6,118.2,288.6,118.2,288.6,118.1"/>
				<path class="st34" d="M288.6,118.2l2.4-1.4c0,0,0,0.1,0,0.1L288.6,118.2C288.7,118.3,288.7,118.2,288.6,118.2"/>
				<path class="st35" d="M288.7,118.3l2.4-1.4c0,0,0,0.1,0,0.1L288.7,118.3C288.7,118.4,288.7,118.3,288.7,118.3"/>
				<path class="st36" d="M288.7,118.4l2.4-1.4c0,0,0,0.1,0.1,0.1l-2.4,1.4C288.8,118.5,288.7,118.4,288.7,118.4"/>
				<path class="st37" d="M288.8,118.5l2.4-1.4c0,0,0,0.1,0.1,0.1l-2.4,1.4C288.8,118.6,288.8,118.5,288.8,118.5"/>
				<path class="st38" d="M288.8,118.6l2.4-1.4c0,0.1,0.1,0.1,0.1,0.2l-2.4,1.4C288.9,118.7,288.9,118.7,288.8,118.6"/>
				<path class="st39" d="M288.9,118.8l2.4-1.4c0,0.1,0.1,0.2,0.2,0.2l-2.4,1.4C289,119,289,118.9,288.9,118.8"/>
				<path class="st38" d="M289.1,119l2.4-1.4c0,0.1,0.1,0.1,0.1,0.2l-2.4,1.4C289.2,119.2,289.1,119.1,289.1,119"/>
				<path class="st37" d="M289.2,119.2l2.4-1.4c0,0,0.1,0.1,0.1,0.1l-2.4,1.4C289.3,119.3,289.2,119.2,289.2,119.2"/>
				<path class="st36" d="M289.3,119.3l2.4-1.4c0,0,0.1,0.1,0.1,0.1L289.3,119.3C289.3,119.4,289.3,119.4,289.3,119.3"/>
				<path class="st35" d="M289.4,119.4l2.4-1.4c0,0,0.1,0.1,0.1,0.1L289.4,119.4C289.4,119.5,289.4,119.4,289.4,119.4"/>
				<path class="st34" d="M289.4,119.5l2.4-1.4c0,0,0.1,0.1,0.1,0.1L289.4,119.5C289.5,119.6,289.5,119.5,289.4,119.5"/>
				<path class="st33" d="M289.5,119.6l2.4-1.4c0,0,0.1,0.1,0.1,0.1L289.5,119.6C289.6,119.6,289.6,119.6,289.5,119.6"/>
				<path class="st32" d="M289.6,119.7l2.4-1.4c0,0,0.1,0.1,0.1,0.1L289.6,119.7C289.7,119.7,289.6,119.7,289.6,119.7"/>
				<path class="st31" d="M289.7,119.8l2.4-1.4c0,0,0.1,0.1,0.1,0.1L289.7,119.8C289.7,119.8,289.7,119.8,289.7,119.8"/>
				<path class="st30" d="M289.8,119.8l2.4-1.4c0,0,0.1,0.1,0.1,0.1L289.8,119.8C289.8,119.9,289.8,119.9,289.8,119.8"/>
				<path class="st29" d="M289.9,119.9l2.4-1.4c0,0,0.1,0,0.1,0.1L289.9,119.9C289.9,120,289.9,119.9,289.9,119.9"/>
				<path class="st28" d="M290,120l2.4-1.4c0,0,0.1,0,0.1,0.1L290,120C290,120,290,120,290,120"/>
				<path class="st27" d="M290,120.1l2.4-1.4c0,0,0.1,0,0.1,0.1L290,120.1C290.1,120.1,290.1,120.1,290,120.1"/>
				<path class="st26" d="M290.1,120.1l2.4-1.4c0,0,0.1,0,0.1,0.1L290.1,120.1C290.2,120.2,290.2,120.1,290.1,120.1"/>
				<path class="st25" d="M290.2,120.2l2.4-1.4c0,0,0.1,0,0.1,0.1L290.2,120.2C290.3,120.2,290.2,120.2,290.2,120.2"/>
				<path class="st24" d="M290.3,120.2l2.4-1.4c0,0,0,0,0,0L290.3,120.2C290.3,120.2,290.3,120.2,290.3,120.2"/>
			</g>
		</g>
		<g class="st5">
			<defs>
				<path id="SVGID_17_" class="st5" d="M288.9,115.6l2.4-1.4c0.4-0.2,0.9-0.2,1.4,0.1l-2.4,1.4
					C289.8,115.4,289.3,115.4,288.9,115.6z"/>
			</defs>
			<clipPath id="SVGID_18_">
				<use xlink:href="#SVGID_17_"  style="overflow:visible;"/>
			</clipPath>
			<g class="st67">
				<path class="st41" d="M288.9,115.6l2.4-1.4c0.1,0,0.1-0.1,0.2-0.1l-2.4,1.4C289,115.5,289,115.5,288.9,115.6"/>
				<path class="st42" d="M289.1,115.5l2.4-1.4c0,0,0.1,0,0.1,0l-2.4,1.4C289.2,115.5,289.1,115.5,289.1,115.5"/>
				<path class="st43" d="M289.2,115.5l2.4-1.4c0,0,0.1,0,0.1,0l-2.4,1.4C289.3,115.4,289.3,115.5,289.2,115.5"/>
				<path class="st44" d="M289.3,115.4l2.4-1.4c0,0,0.1,0,0.1,0l-2.4,1.4C289.4,115.4,289.4,115.4,289.3,115.4"/>
				<path class="st21" d="M289.4,115.4l2.4-1.4c0,0,0.1,0,0.1,0L289.4,115.4C289.5,115.4,289.5,115.4,289.4,115.4"/>
				<path class="st45" d="M289.5,115.4l2.4-1.4c0,0,0.1,0,0.1,0L289.5,115.4C289.6,115.4,289.6,115.4,289.5,115.4"/>
				<path class="st46" d="M289.6,115.4l2.4-1.4c0,0,0.1,0,0.1,0L289.6,115.4C289.7,115.5,289.6,115.5,289.6,115.4"/>
				<path class="st47" d="M289.7,115.5l2.4-1.4c0,0,0.1,0,0.1,0L289.7,115.5C289.8,115.5,289.7,115.5,289.7,115.5"/>
				<path class="st48" d="M289.8,115.5l2.4-1.4c0,0,0.1,0,0.1,0L289.8,115.5C289.8,115.5,289.8,115.5,289.8,115.5"/>
				<path class="st49" d="M289.9,115.5l2.4-1.4c0,0,0.1,0,0.1,0L289.9,115.5C289.9,115.5,289.9,115.5,289.9,115.5"/>
				<path class="st50" d="M289.9,115.5l2.4-1.4c0,0,0.1,0,0.1,0L289.9,115.5C290,115.5,290,115.5,289.9,115.5"/>
				<path class="st51" d="M290,115.6l2.4-1.4c0,0,0.1,0,0.1,0L290,115.6C290.1,115.6,290,115.6,290,115.6"/>
				<path class="st52" d="M290.1,115.6l2.4-1.4c0,0,0.1,0,0.1,0L290.1,115.6C290.2,115.6,290.1,115.6,290.1,115.6"/>
				<path class="st32" d="M290.2,115.6l2.4-1.4c0,0,0.1,0,0.1,0L290.2,115.6C290.2,115.7,290.2,115.6,290.2,115.6"/>
				<path class="st53" d="M290.3,115.7l2.4-1.4c0,0,0,0,0.1,0L290.3,115.7C290.3,115.7,290.3,115.7,290.3,115.7"/>
			</g>
		</g>
		<g class="st5">
			<defs>
				<path id="SVGID_19_" class="st5" d="M294.1,119l-2.4,1.4c0.4-0.2,0.6-0.6,0.6-1.3c0-1.3-0.9-2.8-2-3.4l2.4-1.4
					c1.1,0.6,2,2.2,2,3.4C294.7,118.3,294.4,118.8,294.1,119z"/>
			</defs>
			<clipPath id="SVGID_20_">
				<use xlink:href="#SVGID_19_"  style="overflow:visible;"/>
			</clipPath>
			<g class="st68">
				<path class="st53" d="M290.3,115.7l2.4-1.4c0,0,0,0,0,0L290.3,115.7C290.3,115.7,290.3,115.7,290.3,115.7"/>
				<path class="st55" d="M290.3,115.7l2.4-1.4c0,0,0.1,0,0.1,0.1L290.3,115.7C290.4,115.8,290.4,115.7,290.3,115.7"/>
				<path class="st56" d="M290.4,115.8l2.4-1.4c0,0,0.1,0,0.1,0.1L290.4,115.8C290.5,115.8,290.5,115.8,290.4,115.8"/>
				<path class="st38" d="M290.5,115.8l2.4-1.4c0,0,0.1,0,0.1,0.1L290.5,115.8C290.6,115.9,290.5,115.8,290.5,115.8"/>
				<path class="st57" d="M290.6,115.9l2.4-1.4c0,0,0.1,0,0.1,0.1L290.6,115.9C290.7,115.9,290.6,115.9,290.6,115.9"/>
				<path class="st58" d="M290.7,116l2.4-1.4c0,0,0.1,0,0.1,0.1L290.7,116C290.7,116,290.7,116,290.7,116"/>
				<path class="st59" d="M290.8,116l2.4-1.4c0,0,0.1,0.1,0.1,0.1L290.8,116C290.8,116.1,290.8,116,290.8,116"/>
				<path class="st60" d="M290.9,116.1l2.4-1.4c0,0,0.1,0.1,0.1,0.1L290.9,116.1C290.9,116.2,290.9,116.1,290.9,116.1"/>
				<path class="st61" d="M290.9,116.2l2.4-1.4c0,0,0.1,0.1,0.1,0.1L290.9,116.2C291,116.2,291,116.2,290.9,116.2"/>
				<path class="st62" d="M291,116.3l2.4-1.4c0,0,0.1,0.1,0.1,0.1L291,116.3C291.1,116.3,291.1,116.3,291,116.3"/>
				<path class="st2" d="M291.1,116.3l2.4-1.4c0,0,0.1,0.1,0.1,0.1L291.1,116.3C291.2,116.4,291.1,116.4,291.1,116.3"/>
				<path class="st2" d="M291.2,116.4l2.4-1.4c0,0,0.1,0.1,0.1,0.1L291.2,116.4C291.2,116.5,291.2,116.5,291.2,116.4"/>
				<path class="st2" d="M291.3,116.5l2.4-1.4c0,0,0.1,0.1,0.1,0.1L291.3,116.5C291.3,116.6,291.3,116.6,291.3,116.5"/>
				<path class="st2" d="M291.3,116.6l2.4-1.4c0,0,0.1,0.1,0.1,0.1l-2.4,1.4C291.4,116.7,291.4,116.7,291.3,116.6"/>
				<path class="st2" d="M291.4,116.7l2.4-1.4c0,0.1,0.1,0.1,0.1,0.2l-2.4,1.4C291.5,116.8,291.5,116.8,291.4,116.7"/>
				<path class="st2" d="M291.6,116.9l2.4-1.4c0.1,0.1,0.1,0.2,0.1,0.2l-2.4,1.4C291.7,117.1,291.6,117,291.6,116.9"/>
				<path class="st2" d="M291.7,117.1l2.4-1.4c0,0.1,0.1,0.1,0.1,0.2l-2.4,1.4C291.8,117.3,291.7,117.2,291.7,117.1"/>
				<path class="st2" d="M291.8,117.3l2.4-1.4c0,0,0,0.1,0.1,0.1l-2.4,1.4C291.8,117.4,291.8,117.4,291.8,117.3"/>
				<path class="st2" d="M291.9,117.4l2.4-1.4c0,0,0,0.1,0.1,0.1l-2.4,1.4C291.9,117.5,291.9,117.5,291.9,117.4"/>
				<path class="st2" d="M291.9,117.5l2.4-1.4c0,0,0,0.1,0,0.1L291.9,117.5C291.9,117.6,291.9,117.6,291.9,117.5"/>
				<path class="st2" d="M291.9,117.6l2.4-1.4c0,0,0,0.1,0,0.1L291.9,117.6C292,117.7,292,117.7,291.9,117.6"/>
				<path class="st62" d="M292,117.7l2.4-1.4c0,0,0,0.1,0,0.1L292,117.7C292,117.8,292,117.8,292,117.7"/>
				<path class="st61" d="M292,117.8l2.4-1.4c0,0,0,0.1,0,0.1L292,117.8C292.1,117.9,292,117.9,292,117.8"/>
				<path class="st60" d="M292.1,117.9l2.4-1.4c0,0,0,0.1,0,0.1l-2.4,1.4C292.1,118,292.1,118,292.1,117.9"/>
				<path class="st59" d="M292.1,118l2.4-1.4c0,0,0,0.1,0,0.1l-2.4,1.4C292.1,118.1,292.1,118.1,292.1,118"/>
				<path class="st58" d="M292.1,118.1l2.4-1.4c0,0,0,0.1,0,0.1l-2.4,1.4C292.2,118.2,292.1,118.2,292.1,118.1"/>
				<path class="st57" d="M292.2,118.2l2.4-1.4c0,0,0,0.1,0,0.1l-2.4,1.4C292.2,118.3,292.2,118.3,292.2,118.2"/>
				<path class="st38" d="M292.2,118.3l2.4-1.4c0,0,0,0.1,0,0.1l-2.4,1.4C292.2,118.4,292.2,118.4,292.2,118.3"/>
				<path class="st56" d="M292.2,118.4l2.4-1.4c0,0,0,0.1,0,0.1l-2.4,1.4C292.2,118.5,292.2,118.5,292.2,118.4"/>
				<path class="st55" d="M292.2,118.5l2.4-1.4c0,0,0,0.1,0,0.1L292.2,118.5C292.2,118.6,292.2,118.6,292.2,118.5"/>
				<path class="st53" d="M292.3,118.6l2.4-1.4c0,0,0,0.1,0,0.1L292.3,118.6C292.3,118.7,292.3,118.7,292.3,118.6"/>
				<path class="st32" d="M292.3,118.7l2.4-1.4c0,0,0,0.1,0,0.1L292.3,118.7C292.3,118.8,292.3,118.8,292.3,118.7"/>
				<path class="st52" d="M292.3,118.8l2.4-1.4c0,0,0,0.1,0,0.1L292.3,118.8C292.3,118.9,292.3,118.9,292.3,118.8"/>
				<path class="st51" d="M292.3,118.9l2.4-1.4c0,0,0,0.1,0,0.1L292.3,118.9C292.3,119,292.3,119,292.3,118.9"/>
				<path class="st50" d="M292.3,119l2.4-1.4c0,0,0,0.1,0,0.1c0,0,0,0,0,0L292.3,119C292.3,119.1,292.3,119.1,292.3,119
					C292.3,119.1,292.3,119.1,292.3,119"/>
				<path class="st49" d="M292.3,119.1l2.4-1.4c0,0,0,0.1,0,0.1L292.3,119.1C292.3,119.2,292.3,119.1,292.3,119.1"/>
				<path class="st48" d="M292.3,119.2l2.4-1.4c0,0,0,0.1,0,0.1L292.3,119.2C292.3,119.3,292.3,119.2,292.3,119.2"/>
				<path class="st47" d="M292.3,119.3l2.4-1.4c0,0,0,0.1,0,0.1L292.3,119.3C292.3,119.4,292.3,119.3,292.3,119.3"/>
				<path class="st46" d="M292.3,119.4l2.4-1.4c0,0,0,0.1,0,0.1L292.3,119.4C292.3,119.5,292.3,119.4,292.3,119.4"/>
				<path class="st45" d="M292.3,119.5l2.4-1.4c0,0,0,0.1,0,0.1L292.3,119.5C292.2,119.6,292.3,119.5,292.3,119.5"/>
				<path class="st21" d="M292.2,119.6l2.4-1.4c0,0,0,0.1,0,0.1l-2.4,1.4C292.2,119.7,292.2,119.6,292.2,119.6"/>
				<path class="st44" d="M292.2,119.7l2.4-1.4c0,0,0,0.1,0,0.1l-2.4,1.4C292.2,119.8,292.2,119.7,292.2,119.7"/>
				<path class="st43" d="M292.2,119.8l2.4-1.4c0,0,0,0.1,0,0.1l-2.4,1.4C292.1,119.9,292.2,119.8,292.2,119.8"/>
				<path class="st42" d="M292.1,119.9l2.4-1.4c0,0,0,0.1-0.1,0.1l-2.4,1.4C292.1,120,292.1,120,292.1,119.9"/>
				<path class="st41" d="M292.1,120l2.4-1.4c-0.1,0.1-0.2,0.3-0.3,0.3l-2.4,1.4C291.9,120.3,292,120.2,292.1,120"/>
			</g>
		</g>
		<g>
			<linearGradient id="SVGID_21_" gradientUnits="userSpaceOnUse" x1="270.3949" y1="114.2293" x2="297.1865" y2="114.2293">
				<stop  offset="0" style="stop-color:#27E1FF"/>
				<stop  offset="0.4668" style="stop-color:#5C8CF0"/>
				<stop  offset="1" style="stop-color:#962FE0"/>
			</linearGradient>
			<path class="st69" d="M293.8,111.4c1.9,1.1,3.4,3.8,3.4,6l0,9.2c0,2.2-1.6,3.1-3.5,2l-14.4-8.3l-5.3,3l0-6.1l-0.2-0.1
				c-1.9-1.1-3.4-3.8-3.4-6l0-9.2c0-2.2,1.6-3.1,3.5-2L293.8,111.4z M290.3,120.2c1.1,0.6,2,0.1,2-1.1c0-1.3-0.9-2.8-2-3.4
				c-1.1-0.6-2-0.1-2,1.1C288.3,118.1,289.2,119.6,290.3,120.2 M277.3,112.7c1.1,0.6,2,0.1,2-1.1c0-1.3-0.9-2.8-2-3.4
				c-1.1-0.6-2-0.1-2,1.1C275.3,110.5,276.2,112.1,277.3,112.7 M283.8,116.5c1.1,0.6,2,0.1,2-1.1c0-1.3-0.9-2.8-2-3.4
				c-1.1-0.6-2-0.1-2,1.1C281.8,114.3,282.7,115.8,283.8,116.5"/>
		</g>
		<g>
			<path class="st2" d="M277.3,108.2c1.1,0.6,2,2.2,2,3.4c0,1.3-0.9,1.8-2,1.1c-1.1-0.6-2-2.1-2-3.4
				C275.3,108,276.2,107.5,277.3,108.2z"/>
		</g>
		<g>
			<path class="st2" d="M283.8,111.9c1.1,0.6,2,2.2,2,3.4c0,1.3-0.9,1.8-2,1.1c-1.1-0.6-2-2.1-2-3.4
				C281.8,111.8,282.7,111.3,283.8,111.9z"/>
		</g>
		<g>
			<path class="st2" d="M290.3,115.7c1.1,0.6,2,2.2,2,3.4c0,1.3-0.9,1.8-2,1.1c-1.1-0.6-2-2.1-2-3.4
				C288.4,115.6,289.2,115.1,290.3,115.7z"/>
		</g>
		<linearGradient id="SVGID_22_" gradientUnits="userSpaceOnUse" x1="271.4311" y1="113.4211" x2="299.5648" y2="113.4211">
			<stop  offset="0" style="stop-color:#5AEFFF"/>
			<stop  offset="0.4944" style="stop-color:#7D90FF"/>
			<stop  offset="1" style="stop-color:#A033FF"/>
		</linearGradient>
		<path class="st70" d="M299.6,115.8c0-0.1,0-0.1,0-0.2c0,0,0-0.1,0-0.1c0,0,0,0,0,0c0,0,0,0,0-0.1c0-0.1,0-0.1,0-0.2
			c0-0.1,0-0.1,0-0.2c0,0,0,0,0,0c0,0,0,0,0,0c0-0.1,0-0.1,0-0.2c0-0.1,0-0.1,0-0.2c0,0,0,0,0-0.1c0,0,0,0,0,0c0,0,0,0,0-0.1
			c0-0.1,0-0.1,0-0.2c0,0,0-0.1,0-0.1c0,0,0,0,0,0c0,0,0,0,0,0c0-0.1,0-0.1-0.1-0.2c0-0.1,0-0.1-0.1-0.2c0,0,0,0,0,0c0,0,0,0,0,0
			c0,0,0-0.1,0-0.1c0-0.1,0-0.1-0.1-0.2c0,0,0-0.1-0.1-0.1c0,0,0,0,0,0c0,0,0,0,0,0c0-0.1-0.1-0.1-0.1-0.2c0-0.1-0.1-0.1-0.1-0.2
			c0,0,0,0,0,0c0,0,0,0,0,0c0,0,0-0.1-0.1-0.1c0-0.1-0.1-0.1-0.1-0.2c0,0,0-0.1-0.1-0.1c0,0,0,0,0,0c0,0-0.1-0.1-0.1-0.1
			c0-0.1-0.1-0.2-0.1-0.2c0,0,0,0,0,0c-0.1-0.1-0.1-0.2-0.2-0.3c0,0,0,0,0,0c0,0,0,0,0,0c-0.1-0.1-0.1-0.1-0.2-0.2
			c0,0-0.1-0.1-0.1-0.1c0,0,0,0,0,0c0,0,0,0,0,0c0-0.1-0.1-0.1-0.1-0.2c0-0.1-0.1-0.1-0.1-0.1c0,0,0,0,0,0c0,0,0,0,0,0
			c0,0-0.1-0.1-0.1-0.1c0,0-0.1-0.1-0.1-0.1c0,0,0,0,0,0c0,0,0,0,0,0c0,0-0.1,0-0.1-0.1c-0.1,0-0.1-0.1-0.2-0.1c0,0,0,0-0.1-0.1
			c0,0,0,0,0,0c0,0,0,0-0.1,0c0,0-0.1-0.1-0.1-0.1c0,0-0.1-0.1-0.1-0.1c0,0,0,0,0,0c0,0,0,0,0,0c0,0-0.1-0.1-0.1-0.1
			c0,0-0.1-0.1-0.1-0.1c0,0,0,0,0,0l-19.9-11.5c0,0-0.1,0-0.1-0.1c0,0-0.1,0-0.1-0.1c0,0-0.1,0-0.1,0c0,0,0,0,0,0c0,0,0,0,0,0
			c0,0-0.1,0-0.1-0.1c0,0-0.1,0-0.1-0.1c0,0,0,0,0,0c0,0,0,0,0,0c0,0-0.1,0-0.1,0c0,0-0.1,0-0.1,0c0,0,0,0-0.1,0c0,0,0,0,0,0
			c0,0,0,0,0,0c-0.1,0-0.1,0-0.2,0c0,0-0.1,0-0.1,0c0,0,0,0,0,0c0,0,0,0,0,0c-0.1,0-0.1,0-0.2,0c0,0,0,0-0.1,0c0,0,0,0-0.1,0
			c0,0,0,0-0.1,0c-0.1,0-0.1,0-0.2,0c0,0,0,0,0,0c0,0,0,0-0.1,0c-0.1,0-0.1,0-0.2,0c0,0,0,0,0,0c-0.1,0-0.2,0.1-0.3,0.1c0,0,0,0,0,0
			l-2.4,1.4c0.1,0,0.2-0.1,0.3-0.1c0.1,0,0.1,0,0.2-0.1c0,0,0,0,0.1,0c0.1,0,0.2,0,0.3,0c0,0,0,0,0.1,0c0.1,0,0.2,0,0.3,0
			c0,0,0,0,0,0c0.1,0,0.2,0,0.3,0c0,0,0,0,0,0c0.1,0,0.2,0,0.3,0.1c0,0,0,0,0,0c0.1,0,0.2,0.1,0.3,0.1c0,0,0,0,0,0
			c0.1,0.1,0.2,0.1,0.3,0.2l19.9,11.5c0.1,0.1,0.2,0.1,0.3,0.2c0,0,0,0,0,0c0.1,0.1,0.2,0.2,0.3,0.2c0,0,0,0,0,0
			c0.1,0.1,0.2,0.2,0.3,0.3c0,0,0,0,0,0c0.1,0.1,0.2,0.2,0.3,0.3c0,0,0,0,0,0c0.1,0.1,0.2,0.2,0.3,0.3c0,0,0,0,0,0
			c0.1,0.1,0.2,0.2,0.3,0.4c0,0,0,0,0,0c0.1,0.1,0.1,0.2,0.2,0.3c0,0.1,0.1,0.2,0.1,0.2c0,0.1,0.1,0.1,0.1,0.2c0,0,0,0.1,0.1,0.1
			c0.1,0.1,0.1,0.2,0.2,0.3c0,0,0,0,0,0c0.1,0.1,0.1,0.3,0.2,0.4c0,0,0,0,0,0c0.1,0.1,0.1,0.3,0.2,0.4c0,0,0,0,0,0
			c0.1,0.1,0.1,0.3,0.1,0.4c0,0,0,0,0,0c0,0.1,0.1,0.3,0.1,0.4c0,0,0,0,0,0c0,0.1,0.1,0.3,0.1,0.4c0,0,0,0,0,0c0,0.1,0,0.3,0,0.4
			c0,0,0,0,0,0c0,0.1,0,0.3,0,0.4l0,9.2c0,0.1,0,0.3,0,0.4c0,0,0,0,0,0c0,0.1,0,0.2,0,0.3c0,0,0,0,0,0c0,0.1,0,0.2-0.1,0.3
			c0,0,0,0,0,0.1c0,0.1-0.1,0.2-0.1,0.3c0,0,0,0,0,0c0,0.1-0.1,0.2-0.1,0.2c-0.1,0.1-0.2,0.2-0.2,0.3c0,0,0,0-0.1,0.1
			c-0.1,0.1-0.2,0.2-0.3,0.2l0,0l0,0l0,0l2.4-1.4c0.1-0.1,0.2-0.1,0.3-0.2c0,0,0,0,0.1-0.1c0.1-0.1,0.2-0.2,0.2-0.3c0,0,0,0,0,0
			c0-0.1,0.1-0.2,0.1-0.2c0,0,0,0,0,0c0,0,0,0,0,0c0-0.1,0.1-0.1,0.1-0.2c0,0,0-0.1,0-0.1c0,0,0,0,0-0.1c0,0,0,0,0,0
			c0-0.1,0-0.1,0-0.2c0,0,0,0,0-0.1c0,0,0,0,0,0c0,0,0,0,0-0.1c0-0.1,0-0.1,0-0.2c0,0,0-0.1,0-0.1c0,0,0,0,0,0c0,0,0,0,0,0
			c0-0.1,0-0.1,0-0.2c0-0.1,0-0.1,0-0.2c0,0,0,0,0,0l0-9.2C299.6,115.9,299.6,115.9,299.6,115.8z"/>
	</g>
</g>
<g>
	<g>
		<path class="st71" d="M273.9,217.9l3.3-1.9c0,0,0.1-0.1,0.1-0.1l0.2-0.1l0,0c1-0.5,2.3-0.4,3.7,0.5l33.7,19.5
			c3.2,1.8,5.7,6.4,5.7,10.2v30c0,2.1-0.8,3.6-2,4.1l0,0l-3.2,1.8l-2.4-1.7l1.5-0.8l-6.6-3.8l-0.7,0.8l-7.4,7.8
			c-0.1,0.1-0.2,0.2-0.4,0.3l-3.4,2l0.5-3.9l0.1,0c0-0.1-0.1-0.2-0.1-0.3l-7.4-16.4l-0.7-1.6l-7-4.1c-3.2-1.8-5.7-6.4-5.7-10.2v-30
			c0-0.1,0-0.2,0-0.3L273.9,217.9z"/>
		<path class="st72" d="M277.7,218.4l33.7,19.5c3.2,1.8,5.7,6.4,5.7,10.2v30c0,3.8-2.6,5.5-5.7,3.6l-7-4.1l-0.7,0.8l-7.4,7.8
			c-0.8,0.9-2.5-0.1-3.3-1.9l-7.4-16.4l-0.7-1.6l-7-4.1c-3.2-1.8-5.7-6.4-5.7-10.2v-30C272,218.2,274.6,216.5,277.7,218.4z"/>
		<g>
			<g>
				<path class="st2" d="M289.4,242.6c0,3.4,2.3,7.6,5.1,9.2c2.8,1.6,5.1,0.2,5.1-3.3c0-3.4-2.3-7.6-5.1-9.2
					C291.7,237.7,289.4,239.1,289.4,242.6z"/>
			</g>
			<path class="st2" d="M290.3,251.3l8.5,4.9c3.1,1.8,5.5,6.2,5.5,10l0,0l-19.6-11.3l0,0C284.8,251.1,287.2,249.6,290.3,251.3z"/>
		</g>
	</g>
</g>
</svg>
