<?xml version="1.0" encoding="utf-8"?>
<!-- Generator: Adobe Illustrator 19.0.0, SVG Export Plug-In . SVG Version: 6.00 Build 0)  -->
<svg version="1.1" id="Objects" xmlns="http://www.w3.org/2000/svg" xmlns:xlink="http://www.w3.org/1999/xlink" x="0px" y="0px"
	 viewBox="0 0 500 500" style="enable-background:new 0 0 500 500;" xml:space="preserve">
<style type="text/css">
	.st0{fill:#DBCEC6;}
	.st1{fill:#C7BBB4;}
	.st2{fill:#F2EEE5;}
	.st3{fill:#EAE5DF;}
	.st4{fill:#C2C2C2;}
	.st5{fill:#FFFFFF;}
	.st6{fill:#888888;}
	.st7{fill:#A5B7C6;}
	.st8{opacity:0.1;fill:#FFFFFF;}
	.st9{fill:#E3E3E3;}
	.st10{fill:#B3B3B3;}
	.st11{fill:#BFAFA9;}
	.st12{fill:#E2D8D1;}
	.st13{fill:#FFA85C;}
	.st14{fill:#FFB97D;}
	.st15{opacity:0.2;}
	.st16{fill:#FFEEDE;}
	.st17{fill:#FFDCBE;}
	.st18{fill:#FFCB9D;}
	.st19{fill:#BFA178;}
	.st20{fill:#FFD800;}
	.st21{fill:#FFE866;}
	.st22{fill:#FFF3B0;}
	.st23{fill:#AB8E67;}
	.st24{opacity:5.000000e-002;}
	.st25{fill:#544D53;}
	.st26{fill:#7D737B;}
	.st27{fill:#70666F;}
	.st28{fill:#3F3A3E;}
	.st29{fill:#33AEFF;}
	.st30{fill:#FFEF99;}
	.st31{fill:#292929;}
	.st32{fill:#D1D1D1;}
	.st33{fill:#1F1F1F;}
	.st34{fill:#424242;}
	.st35{fill:none;stroke:#F7E041;stroke-width:0.2889;stroke-miterlimit:10;}
	.st36{fill:none;stroke:#F7E041;stroke-width:0.3226;stroke-miterlimit:10;}
	.st37{fill:#FFE033;}
	.st38{fill:#FFAD91;}
	.st39{fill:#2F2C2F;}
	.st40{fill:#916549;}
	.st41{fill:#A37152;}
	.st42{fill:#B58D75;}
	.st43{fill:#6F5C4E;}
	.st44{fill:#B07A58;}
	.st45{opacity:0.1;}
	.st46{fill:none;stroke:#EDC900;stroke-width:4.1797;stroke-linecap:round;stroke-linejoin:round;stroke-miterlimit:10;}
	.st47{fill:#EDC900;}
	.st48{fill:#BFA200;}
	.st49{fill:#E8BB00;}
	.st50{fill:#FFE65C;}
	.st51{fill:#00814C;}
	.st52{fill:#00995A;}
	.st53{fill:#00AC65;}
	.st54{clip-path:url(#SVGID_2_);}
	.st55{fill:#F56462;}
	.st56{fill:#B84B4A;}
	.st57{fill:#F78381;}
	.st58{fill:#F7E041;}
	.st59{fill:#DCA700;}
	.st60{fill:#2A272A;}
	.st61{fill:#2683BF;}
	.st62{fill:#5CBEFF;}
	.st63{fill:#1A5780;}
	.st64{clip-path:url(#SVGID_4_);}
	.st65{clip-path:url(#SVGID_6_);}
	.st66{fill:#6D4C37;}
	.st67{fill:#523929;}
	.st68{clip-path:url(#SVGID_8_);}
	.st69{fill:#41393E;}
	.st70{clip-path:url(#SVGID_10_);}
	.st71{fill:#2D1E0C;}
	.st72{clip-path:url(#SVGID_12_);}
	.st73{fill:#D19D6F;}
</style>
<g>
	<polygon class="st0" points="403.6,356.1 429.1,341.4 244,234.5 73.8,332.8 258.9,439.7 331.9,397.5 331.9,397.5 361.2,414.5 
		432.9,373.1 	"/>
	<polygon class="st1" points="403.6,356.1 403.6,343.5 440.4,322.2 440.4,334.8 	"/>
	<polygon class="st0" points="73.8,320.2 73.8,162.2 244,64 244,221.9 	"/>
	<polygon class="st2" points="429.1,328.8 429.1,170.8 244,64 244,221.9 	"/>
	<polygon class="st3" points="403.6,343.5 429.1,328.8 244,221.9 73.8,320.2 258.9,427.1 331.9,384.9 331.9,384.9 361.2,401.9 
		432.9,360.5 	"/>
	<g>
		<path class="st4" d="M169.2,130.4v94.1l46.6-26.9v0v-94v0L169.2,130.4z"/>
		<path class="st5" d="M171.5,131.7v94.1l46.6-26.9v0v-94v0L171.5,131.7z"/>
		<path class="st4" d="M175.3,134.8v84.1l38.9-22.5v-84v0L175.3,134.8z"/>
		<polygon class="st6" points="212,113.7 214.3,112.3 214.3,196.4 212,194.8 		"/>
		<polygon class="st7" points="212,194.8 212,113.7 175.3,134.8 175.3,216 		"/>
		<g>
			<polygon class="st8" points="175.3,140.5 175.3,181 209.9,114.8 179.6,132.3 			"/>
			<polygon class="st8" points="212,123.3 183.8,177.1 203.3,165.8 212,149.3 			"/>
		</g>
		<polygon class="st9" points="169.2,130.4 171.5,131.7 218.1,104.9 215.8,103.6 		"/>
		<polygon class="st4" points="175.3,173.9 175.3,176.5 214.3,154.1 212,152.8 		"/>
		<polygon class="st10" points="171.5,131.7 169.2,130.4 169.2,224.5 171.5,225.8 		"/>
		<polygon class="st5" points="171.5,178.7 218.1,151.9 218.1,157.3 171.5,184.2 		"/>
	</g>
	<polygon class="st0" points="62.5,313.5 62.5,326.2 258.9,439.7 258.9,427.1 	"/>
	<polygon class="st1" points="258.9,427.1 331.9,384.9 331.9,397.5 258.9,439.7 	"/>
	<polygon class="st1" points="361.2,401.9 361.2,414.5 432.9,373.1 432.9,360.5 	"/>
	<polygon class="st11" points="73.8,320.2 62.5,313.5 62.5,155.7 73.8,162.2 	"/>
	<polygon class="st1" points="429.1,170.8 440.4,164.3 440.4,322.2 429.1,328.8 	"/>
	<polygon class="st12" points="62.5,155.7 244,50.9 440.4,164.3 429.1,170.8 244,64 73.8,162.2 	"/>
	<g>
		<g>
			<g>
				<polygon class="st13" points="298.6,379.7 180.1,311.2 258.6,265.9 377.2,334.3 				"/>
			</g>
		</g>
		<g>
			<g>
				<path class="st14" d="M298.7,373.4l-108.5-62.8l67.8-39.1l108.5,62.8L298.7,373.4z M198.5,310.6l100.2,58l59.5-34.4l-100.2-58
					L198.5,310.6z"/>
			</g>
		</g>
	</g>
	<path class="st15" d="M280.5,228.6L280.5,228.6l-5-10.5l0,0c0-0.1-0.1-0.2-0.2-0.3v-9.8v-3.7c0-10.3-8.4-18.7-18.7-18.7
		c-10.3,0-18.7,8.4-18.7,18.7v3.7v9.8c-0.1,0.1-0.1,0.2-0.2,0.3l0,0l-5,10.5l0,0c-0.3,0.6-0.5,1.3-0.5,2v12.3
		c0,1.1-14.8,5.1-14.8,5.1c0,1.1,0.9,3.6,2.1,3.6h0c1,0,1.8-0.7,2-1.6l19.2-5.2h1h23.7h1l-8.9,2.1c0.2,0.9,0.6,4.6,1.5,4.6
		c1.1,0,2.1-0.9,2.1-2.1l17.3-4.7h0.6c1.1,0,1.9-0.9,1.9-1.9v-12.3C281,229.9,280.8,229.2,280.5,228.6z"/>
	<g>
		<g>
			<path class="st14" d="M219.7,251.6L219.7,251.6c-1.1,0-2.1-0.9-2.1-2.1v-10h6.3l-2.3,10.5C221.5,250.9,220.6,251.6,219.7,251.6z"
				/>
			<path class="st14" d="M259.2,251.6L259.2,251.6c1.1,0,2.1-0.9,2.1-2.1v-10h-6.3l2.3,10.5C257.4,250.9,258.2,251.6,259.2,251.6z"
				/>
		</g>
		<path class="st16" d="M239.4,181.8L239.4,181.8c-10.3,0-18.7,8.4-18.7,18.7v13.9h37.4v-13.9C258.1,190.2,249.7,181.8,239.4,181.8z
			"/>
		<path class="st17" d="M239.4,185.5L239.4,185.5c-10.3,0-18.7,8.4-18.7,18.7v13.9h37.4v-13.9C258.1,193.9,249.7,185.5,239.4,185.5z
			"/>
		<path class="st16" d="M225,211.3c-2,0-3.8,1.3-4.4,3.1l0,0l-5,10.5l3.3,9.8l5.7,6.4l5.2-10.9v-12.5V216
			C229.7,213.4,227.6,211.3,225,211.3z"/>
		<path class="st17" d="M219.8,222.2L219.8,222.2c2.6,0,4.7,2.1,4.7,4.7v14.2H217c-1.1,0-1.9-0.9-1.9-1.9v-12.3
			C215.1,224.3,217.2,222.2,219.8,222.2z"/>
		<path class="st16" d="M258.3,214.4L258.3,214.4c-0.7-1.8-2.4-3.1-4.4-3.1c-2.6,0-4.7,2.1-4.7,4.7v1.6v12.5l5.2,10.9l6.9-4.2
			l2.1-12L258.3,214.4z"/>
		<path class="st17" d="M259,222.2L259,222.2c-2.6,0-4.7,2.1-4.7,4.7v14.2h7.6c1.1,0,1.9-0.9,1.9-1.9v-12.3
			C263.7,224.3,261.6,222.2,259,222.2z"/>
		<path class="st16" d="M250.4,219c-0.3-0.8-1-1.4-1.9-1.4h-9h-9c-0.9,0-1.7,0.6-1.9,1.4l-3.9,12.5h29.7L250.4,219z"/>
		<path class="st17" d="M224.6,231.7v9.4h29.7v-9.4c0-0.8-0.6-1.4-1.4-1.4H226C225.2,230.2,224.6,230.9,224.6,231.7z"/>
		<path class="st14" d="M231.1,212.3L231.1,212.3c-0.5,0-1-0.4-1-1v-13.7c0-0.5,0.4-1,1-1l0,0c0.5,0,1,0.4,1,1v13.7
			C232.1,211.9,231.6,212.3,231.1,212.3z"/>
		<path class="st14" d="M239.4,214.7L239.4,214.7c-0.5,0-1-0.4-1-1v-18.5c0-0.5,0.4-1,1-1l0,0c0.5,0,1,0.4,1,1v18.5
			C240.4,214.3,239.9,214.7,239.4,214.7z"/>
		<path class="st14" d="M247.7,212.3L247.7,212.3c0.5,0,1-0.4,1-1v-13.7c0-0.5-0.4-1-1-1l0,0c-0.5,0-1,0.4-1,1v13.7
			C246.8,211.9,247.2,212.3,247.7,212.3z"/>
	</g>
	<g>
		<g>
			<path class="st15" d="M298.3,218.8l-25.7,14.8v1.9l1.1,0.7l1.4,7V258l-1.4-0.9l-9.3,2.5v3.3l11.3-3.3c0.3,0.3,0.7,0.4,1.1,0.4
				c0.9,0,1.7-0.8,1.7-1.7V257l20.5,11.8l3.4-0.2l18.1-10.4v6.7c0,0.9,0.8,1.7,1.7,1.7s1.7-0.8,1.7-1.7v-20.4l1.4-6.8l1.2-0.7v-1.9
				L298.3,218.8z M278.6,254.1v-8.9l7.7,4.5L278.6,254.1z M320.6,255.3l-7.6-4.4l7.6-4.4V255.3z"/>
			<polygon class="st15" points="288.5,273.4 288.5,276.7 305.7,272 302.3,269.8 			"/>
		</g>
		<g>
			<polygon class="st18" points="266.1,251.5 288.2,264.3 308.3,252.7 286.2,239.9 			"/>
			<polygon class="st14" points="266.1,251.5 266.1,254.4 288.2,267.2 288.2,264.3 			"/>
			<polygon class="st13" points="288.2,267.2 288.2,264.3 308.3,252.7 308.3,255.6 			"/>
		</g>
		<path class="st13" d="M264.5,262.9L264.5,262.9c-0.9,0-1.7-0.8-1.7-1.7v-20.6h3.4v20.6C266.2,262.2,265.4,262.9,264.5,262.9z"/>
		<path class="st13" d="M309.9,264.1L309.9,264.1c-0.9,0-1.7-0.8-1.7-1.7v-20.6h3.4v20.6C311.6,263.3,310.9,264.1,309.9,264.1z"/>
		<path class="st13" d="M288.4,276.7L288.4,276.7c-0.9,0-1.7-0.8-1.7-1.7v-20.6h3.4V275C290.1,276,289.3,276.7,288.4,276.7z"/>
		<polygon class="st13" points="288.4,255.4 288.4,248.8 313.1,234.5 311.6,242 		"/>
		<polygon class="st14" points="261.2,233 262.7,240.6 288.4,255.4 288.4,248.8 		"/>
		<polygon class="st17" points="260.2,231 288.5,247.4 314.2,232.6 285.9,216.2 		"/>
		<polygon class="st18" points="260.2,231 260.2,232.9 288.5,249.3 288.5,247.4 		"/>
		<polygon class="st14" points="288.5,249.3 288.5,247.4 314.2,232.6 314.2,234.4 		"/>
	</g>
	<g>
		<polygon class="st19" points="324,268.2 298.4,282.9 367.5,322.8 393.1,308 		"/>
		<polygon class="st20" points="324,265.5 298.4,280.2 367.5,320.1 393.1,305.3 		"/>
		<polygon class="st21" points="300.5,251.9 326,237.2 326,266.6 300.5,281.4 		"/>
		<polygon class="st13" points="298.4,280.2 298.4,282.9 367.5,322.8 367.5,320.1 		"/>
		<polygon class="st19" points="324,238.7 298.4,253.4 367.5,293.3 393.1,278.6 		"/>
		<polygon class="st22" points="324,236 298.4,250.7 367.5,290.6 393.1,275.9 		"/>
		<polygon class="st13" points="298.4,250.7 298.4,253.4 367.5,293.3 367.5,290.6 		"/>
		<polygon class="st13" points="331.5,284.5 331.5,287.2 367.5,308 367.5,305.3 		"/>
		<polygon class="st23" points="367.5,290.6 393.1,275.9 393.1,308 367.5,322.8 		"/>
		<polygon class="st13" points="365.5,321.6 365.5,289.4 367.5,290.6 367.5,322.8 		"/>
		<polygon class="st13" points="298.4,282.9 298.4,250.7 300.5,251.9 300.5,284.1 		"/>
		<polygon class="st13" points="331.5,302 331.5,269.8 333.5,271 333.5,303.2 		"/>
		<polygon class="st21" points="333.5,285.7 343.9,279.6 333.5,273.6 		"/>
		<polygon class="st21" points="333.5,300.4 343.9,294.4 333.5,288.4 		"/>
		<polygon class="st24" points="323.7,268 300.5,281.4 331.5,288.1 331.5,272.5 		"/>
		<polygon class="st24" points="343.9,279.6 333.5,285.6 365.5,292.8 365.5,292.1 		"/>
		<polygon class="st24" points="343.9,294.4 333.5,300.4 365.5,307.5 365.4,306.8 		"/>
	</g>
	<path class="st15" d="M340.2,213.4l-1.8,1.1v35.9l3.9,2.3L340,254c-0.2,0.1-0.3,0.3-0.3,0.6l0,0v0c0,0,0,0,0,0v1.4c0,0,0,0,0,0v0
		l0,0c0,0.2,0.1,0.5,0.3,0.6c0.7,0.4,1.6,0.4,2.3,0l3.5-2l36.3,20.9l-2.3,1.4c-0.2,0.1-0.3,0.3-0.3,0.6l0,0v0c0,0,0,0,0,0v1.4
		c0,0,0,0,0,0v0l0,0c0,0.2,0.1,0.5,0.3,0.6c0.7,0.4,1.6,0.4,2.3,0l3.4-2l3.3,1.9l1.8-1.1v-35.9L340.2,213.4z"/>
	<g>
		<g>
			<path class="st25" d="M329.1,250.7l-0.5-0.3l-1.1,0.6l-2.9,0.6v1.4c0,0,0,0,0,0v0l0,0c0,0.2,0.1,0.5,0.3,0.6
				c0.7,0.4,1.6,0.4,2.3,0l3.5-2v-1.4L329.1,250.7z"/>
			<path class="st26" d="M328.6,249.1l-3.6,2.1c-0.5,0.3-0.5,0.9,0,1.2l0,0c0.7,0.4,1.6,0.4,2.3,0l3.5-2L328.6,249.1z"/>
		</g>
		<g>
			<path class="st25" d="M368.8,273.5l-0.5-0.3l-1.1,0.6l-2.9,0.6v1.4c0,0,0,0,0,0v0l0,0c0,0.2,0.1,0.5,0.3,0.6
				c0.7,0.4,1.6,0.4,2.3,0l3.5-2v-1.4L368.8,273.5z"/>
			<path class="st26" d="M368.3,271.9l-3.6,2.1c-0.5,0.3-0.5,0.9,0,1.2l0,0c0.7,0.4,1.6,0.4,2.3,0l3.5-2L368.3,271.9z"/>
		</g>
		<polygon class="st26" points="325.3,210.5 323.5,211.6 325.3,214.1 325.3,246.4 371.3,272.9 373.7,276.4 375.5,275.3 375.5,239.4 
					"/>
		<g>
			<polygon class="st27" points="373.7,276.4 323.5,247.5 323.5,211.6 373.7,240.5 			"/>
			<polygon class="st28" points="371.9,272 326,245.6 326,215.5 371.9,242 			"/>
			<g>
				<polygon class="st8" points="333.4,219.8 325.3,225.9 325.3,246 343.2,256.3 366.4,238.8 				"/>
				<polygon class="st8" points="371.9,265.4 371.9,244.5 350.6,260.6 366.3,269.6 				"/>
			</g>
		</g>
		<polygon class="st25" points="373.7,240.5 375.5,239.4 375.5,275.3 373.7,276.4 		"/>
		<polygon class="st25" points="326,215.5 326,245.6 325.3,246 325.3,215.1 		"/>
		<polygon class="st26" points="326,245.6 371.9,272 371.9,272.9 325.3,246 		"/>
		<polygon class="st29" points="371.9,273.5 371.9,274.2 370,273 370,272.4 		"/>
	</g>
	<g>
		<polygon class="st9" points="163.4,134.8 165.1,135.8 163.4,138.4 163.4,170.7 117.3,197.2 114.9,200.7 113.1,199.6 113.1,163.7 
					"/>
		<g>
			<polygon class="st5" points="114.9,200.7 165.1,171.8 165.1,135.8 114.9,164.8 			"/>
			<g>
				<polygon class="st30" points="162.6,169.8 116.7,196.3 116.7,166.2 162.6,139.7 				"/>
				<polygon class="st31" points="162.6,169.8 116.7,196.3 116.7,183.7 162.6,157.2 				"/>
				<g>
					<path class="st15" d="M160,162c0,0.4-9.1,5.9-20.4,12.4c-11.3,6.5-20.4,11.5-20.4,11.1c0-0.4,9.1-5.9,20.4-12.4
						C150.9,166.7,160,161.7,160,162z"/>
					<g>
						<path class="st32" d="M126.5,175.8l-0.3,0.2v-1.5c0-0.1,0.1-0.3,0.2-0.3l0,0c0.1-0.1,0.2,0,0.2,0.1V175.8z"/>
						<path class="st33" d="M139.8,165l-4.8,1.5c-0.8,0.2-1.6,0.9-2.2,1.9l-1.9,2.8l1.7-1l0.6-1c0.6-0.9,1.3-1.6,2.1-1.8l3.5-1.1
							L139.8,165z"/>
						<polygon class="st33" points="153.8,164.5 131.8,177.2 131.8,176.4 153.8,163.7 						"/>
						<path class="st34" d="M153.7,159.5l1.5-4.5l3.2-1.9l-0.3,0.7c-0.3,0.7,0,1.3,0.5,1l0,0l-1.6,5.3l-3.6,2.1l0.2-3"/>
						<polygon class="st31" points="158.2,156.5 158.2,156.5 153.9,159 153.7,159.5 153.7,159.2 153.5,162.2 157.1,160.1 						"/>
						<path class="st31" d="M153.6,163.8L135,174.5l-2.6-0.2l-5.1,3l-4.6,3.6c-0.5,0.4-1,0.7-1.5,0.8l0,0c-0.4,0.1-0.4-0.6-0.1-1.1
							l6-6.4c1-1.2,2.1-2.1,3.2-2.8l4.8-2.7l0,0c1-1.2,2.1-2.2,3.2-2.8l1.5-0.9v-0.4l-0.1-0.1c-0.1-0.1-0.1-0.2-0.1-0.4v-1.5
							l7.3-4.2l6.7,2L153.6,163.8z"/>
						<path class="st20" d="M129.3,172.7l6-3.4v-0.7c0,0.1-0.1,0.1-0.1,0.2l0,0l-4.8,2.7c-1.1,0.6-2.2,1.6-3.2,2.8l-6,6.4
							c-0.4,0.5-0.3,1.2,0.1,1.1c0.2,0-0.1-0.3,0.2-0.4L129.3,172.7z"/>
						<path class="st8" d="M125.1,177.3l-2.7,3.1c-0.2,0.2-0.3,0.2-0.4,0l0,0c-0.1-0.2,0-0.4,0.2-0.6l2.7-3.1c0.2-0.2,0.3-0.2,0.4,0
							l0,0C125.3,176.9,125.2,177.2,125.1,177.3z"/>
						<polygon class="st34" points="151.7,158.2 146.8,158.4 145.3,159.3 150.7,160.5 						"/>
						<polygon class="st20" points="139.5,163.1 146.8,158.9 151.7,158.2 146.8,158.4 139.5,162.6 						"/>
						<g>
							<path class="st31" d="M126.4,177.6c0,2.1,1.2,3.1,2.8,2.2c1.5-0.9,2.8-3.3,2.8-5.4c0-2.1-1.2-3.1-2.8-2.2
								C127.7,173.1,126.4,175.5,126.4,177.6z"/>
							<path class="st35" d="M127.3,177.2c0,1.5,0.9,2.1,1.9,1.5c1.1-0.6,1.9-2.3,1.9-3.7c0-1.5-0.9-2.1-1.9-1.5
								C128.1,174,127.3,175.7,127.3,177.2z"/>
							<path class="st32" d="M128.1,176.7c0,0.8,0.5,1.2,1.1,0.9c0.6-0.4,1.1-1.3,1.1-2.2c0-0.8-0.5-1.2-1.1-0.9
								C128.6,174.9,128.1,175.8,128.1,176.7z"/>
							<path class="st6" d="M128.3,176.6c0,0.7,0.4,1,0.9,0.7s0.9-1.1,0.9-1.8c0-0.7-0.4-1-0.9-0.7
								C128.7,175.1,128.3,175.9,128.3,176.6z"/>
							<polygon class="st32" points="129.1,176.1 129.3,175.9 129.3,174.6 129.1,174.7 							"/>
							<polygon class="st32" points="129.1,175.9 129.3,176.1 130,174.7 129.9,174.6 							"/>
							<polygon class="st32" points="129.2,175.9 129.2,176.2 130.2,175.6 130.2,175.3 							"/>
							<polygon class="st32" points="129.3,175.9 129.1,176.2 129.9,176.8 130,176.4 							"/>
							<polygon class="st32" points="129.3,176 129.1,176.1 129.1,177.5 129.3,177.4 							"/>
							<polygon class="st32" points="129.3,176.1 129.1,176 128.4,177.4 128.6,177.5 							"/>
							<polygon class="st32" points="129.2,176.2 129.2,175.9 128.2,176.5 128.2,176.8 							"/>
							<polygon class="st32" points="129.1,176.2 129.3,175.9 128.6,175.3 128.4,175.6 							"/>
							<path class="st6" d="M129,176.2c0,0.2,0.1,0.3,0.3,0.2c0.1-0.1,0.3-0.3,0.3-0.5c0-0.2-0.1-0.3-0.3-0.2
								C129.1,175.8,129,176,129,176.2z"/>
						</g>
						<polygon class="st33" points="120.6,181.2 125,178.7 125,180.8 120.6,183.3 						"/>
						<path class="st34" d="M137.3,172l-0.4-0.5c-0.3-0.4-0.7-0.4-1.2-0.1l0,0c-0.4,0.2-0.7,0-0.7-0.5v-2.1l3.5-1.5
							c1.1-0.5,2.1-0.5,2.9,0l0,0c1,0.5,2.2,0.4,3.5-0.3l5.9-3.4l0.5,1.6l-12.1,7C138.4,172.6,137.7,172.5,137.3,172z"/>
						<path class="st20" d="M150.7,161.3c0,0-5.8,3.2-8.3,3.9c-2.5,0.8-7.4,3.5-7.4,3.5v0.6c0,0,5.5-2.6,7.7-3.5
							c2.2-0.9,7.9-4.1,7.9-4.1V161.3z"/>
						<polygon class="st20" points="143.1,168.9 133.7,174.4 135,174.5 151.3,165.1 151.3,163.1 						"/>
						<path class="st15" d="M143.6,169c-1.4,0.7-2.5,1.1-3.3,1.1c-1,0.1-2,0-2.7,0c-0.7,0-1.4,0.4-1.6,0.8c-0.1,0.2-0.2,0.3-0.3,0.4
							c0,0,0.1,0,0.1-0.1l0,0c0.5-0.3,0.9-0.2,1.2,0.1l0.4,0.5c0.4,0.5,1.1,0.6,1.8,0.2l4.6-2.7C144,169,144.1,168.7,143.6,169z"/>
						<g>
							<path class="st31" d="M150,163.5c0,2.4,1.4,3.5,3.2,2.5c1.8-1,3.2-3.8,3.2-6.2c0-2.4-1.4-3.5-3.2-2.5
								C151.4,158.3,150,161.1,150,163.5z"/>
							<path class="st36" d="M151,162.9c0,1.6,1,2.4,2.2,1.7c1.2-0.7,2.2-2.6,2.2-4.2c0-1.6-1-2.4-2.2-1.7
								C152,159.4,151,161.3,151,162.9z"/>
							<path class="st32" d="M151.8,162.4c0,1,0.6,1.5,1.3,1c0.7-0.4,1.3-1.6,1.3-2.6c0-1-0.6-1.5-1.3-1
								C152.4,160.3,151.8,161.4,151.8,162.4z"/>
							<path class="st6" d="M152.1,162.3c0,0.8,0.5,1.2,1.1,0.9c0.6-0.4,1.1-1.3,1.1-2.1s-0.5-1.2-1.1-0.9
								C152.5,160.5,152.1,161.5,152.1,162.3z"/>
							<polygon class="st32" points="153,161.7 153.3,161.5 153.3,159.9 153,160.1 							"/>
							<polygon class="st32" points="153.1,161.5 153.3,161.7 154.1,160.1 153.9,159.9 							"/>
							<polygon class="st32" points="153.2,161.4 153.2,161.8 154.4,161.1 154.4,160.8 							"/>
							<polygon class="st32" points="153.3,161.5 153.1,161.9 153.9,162.5 154.1,162.1 							"/>
							<polygon class="st32" points="153.3,161.6 153,161.8 153,163.4 153.3,163.2 							"/>
							<polygon class="st32" points="153.2,161.8 153,161.6 152.2,163.2 152.4,163.4 							"/>
							<polygon class="st32" points="153.1,161.9 153.1,161.5 151.9,162.2 151.9,162.5 							"/>
							<polygon class="st32" points="153,161.8 153.2,161.4 152.4,160.8 152.2,161.2 							"/>
							<path class="st6" d="M152.9,161.8c0,0.2,0.1,0.3,0.3,0.2c0.2-0.1,0.3-0.4,0.3-0.6c0-0.2-0.1-0.3-0.3-0.2
								C153,161.3,152.9,161.6,152.9,161.8z"/>
						</g>
						<path class="st33" d="M136.7,173.6l-1.1-1.1c-0.3-0.3-0.7-0.3-1.1,0l-0.5,0.3l0,0c-0.1-0.8-0.6-1-1.3-0.7l-0.3,0.2v3.8
							L136.7,173.6z"/>
						<path class="st31" d="M141.2,160.4l-1.4,0.8c-0.3,0.2-0.5,0.6-0.5,1l0,0l1.4-0.8C140.9,161.2,141.2,160.8,141.2,160.4
							L141.2,160.4z"/>
						<polygon class="st31" points="140.5,162 139.5,162.6 139.5,162 140.5,161.4 						"/>
						<path class="st8" d="M143,161.7l-3,1.7c-0.2,0.1-0.3,0-0.3-0.2l0,0c0-0.2,0.1-0.5,0.3-0.6l3-1.7c0.2-0.1,0.3,0,0.3,0.2l0,0
							C143.3,161.3,143.2,161.6,143,161.7z"/>
						<path class="st8" d="M139.2,168l-2.9,1.4c-0.2,0.1-0.3,0-0.3-0.3l0,0c0-0.2,0.2-0.5,0.3-0.6l2.9-1.4c0.2-0.1,0.3,0,0.3,0.3
							l0,0C139.5,167.7,139.4,167.9,139.2,168z"/>
						<path class="st33" d="M135.5,171L135.5,171c-0.2,0.1-0.3,0-0.3-0.2v-1.6c0-0.2,0.1-0.4,0.3-0.5l0,0c0.2-0.1,0.3,0,0.3,0.2v1.6
							C135.8,170.7,135.7,171,135.5,171z"/>
						<polygon class="st5" points="149,162.8 145.6,164.8 145.6,163.9 149,162 						"/>
						<polygon class="st5" points="157.4,155.2 155.6,156.3 155.6,155.5 157.4,154.4 						"/>
						<path class="st5" d="M141.4,164.4c0,0.3-0.2,0.6-0.4,0.7c-0.2,0.1-0.4,0-0.4-0.3c0-0.3,0.2-0.6,0.4-0.7
							C141.3,164,141.4,164.1,141.4,164.4z"/>
						<polygon class="st5" points="134.9,173.9 132.8,175 132.8,174.7 134.9,173.5 						"/>
						<polygon class="st5" points="134.3,170.7 132.1,172 132.1,171.4 134.3,170.2 						"/>
						<polygon class="st33" points="125.2,181.2 120.6,183.9 120.6,183.3 125.2,180.7 						"/>
						<polygon class="st31" points="120.6,182.9 123,181.5 125,179.3 125,180.8 120.6,183.3 						"/>
					</g>
				</g>
			</g>
			<g>
				<polygon class="st8" points="155.2,144.1 163.4,150.2 163.4,170.3 145.4,180.6 122.2,163 				"/>
				<polygon class="st8" points="116.7,189.7 116.7,168.8 138,184.9 122.3,193.9 				"/>
			</g>
		</g>
		<polygon class="st10" points="114.9,164.8 113.1,163.7 113.1,199.6 114.9,200.7 		"/>
		<polygon class="st6" points="162.6,139.8 162.6,169.8 163.4,170.3 163.4,139.4 		"/>
		<polygon class="st4" points="162.6,169.8 116.7,196.3 116.7,197.2 163.4,170.3 		"/>
	</g>
	<polygon class="st15" points="322.4,132.2 318.7,132.2 319.4,194.8 403.7,242 407.4,242 407.4,181.1 	"/>
	<g>
		<polygon class="st9" points="318.7,132.2 315.7,134 318.7,138.4 318.7,193 396.6,237.8 400.7,243.8 403.7,242 403.7,181.1 		"/>
		<g>
			<polygon class="st5" points="400.7,243.8 315.7,194.8 315.7,134 400.7,183 			"/>
			<g>
				<g>
					<g>
						<polygon class="st28" points="320.1,191.6 397.7,236.4 397.7,185.5 320.1,140.6 						"/>
					</g>
				</g>
				<path class="st37" d="M379.6,196.9l2.8,4.6c0,0,8.2,5.9,9.6,8.6s3.6,11.9,3.9,14.4c0.3,2.5,0.4,11,0.4,11l-40-23.1
					c0,0-2-2.1-2.5-5.2c-0.5-3.1-2.9-11.9-3-13.5c-0.1-1.6,0.7-3.8,0.7-3.8v-3l3.8,1.1c0,0,2.7,6.2,3,8.9c0.3,2.7,1,4,1,4
					s2.2-0.6,2.7-1.8c0.4-1.2,3.8-3,5.6-2.2c1.7,0.8,4.1,2.5,4.1,2.5l0.3-1L379.6,196.9z"/>
				<path class="st38" d="M380.9,214.3c0,0,0.7,0.7,0.8,1.6c0,0.9-0.6,1.3-0.6,1.3s0.2,0.8,0,1.1c-0.2,0.4-0.4,0.4-0.4,0.4
					s0.1,0.7-0.3,0.9c-0.4,0.2-0.4,0.2-0.4,0.2s-0.1,0.6-0.5,0.9c-0.4,0.3-1.6-0.9-1.6-0.9L380.9,214.3z"/>
				<path class="st38" d="M348.8,179.1c0,0-1.1-2.6-1-3.1c0.1-0.5,1.1-0.5,1.3-0.8c0.2-0.4,1-0.1,0.9,0.5
					C350,176.4,348.8,179.1,348.8,179.1z"/>
				<path class="st5" d="M349.7,176c0,0-1.9-2.5-2.7-3.7c-0.9-1.2-2.4-2.4-3.1-3c-0.7-0.7-4.4-4-4.4-4l4.2,4.7l-2.1-1.8
					c0,0,2.9,3.4,3.6,3.9c0.8,0.4-1-0.3-2.6-1.9c-1.6-1.6-12.9-12.1-15-14.2c-2.1-2.1-6.6-6-6.6-6s6.3,6.4,7.3,7.4
					c1,1,7.5,7.4,8.3,7.9c0.8,0.5,4.6,4.7,5.6,5.5c1,0.8,2.3,2.2,2.3,2.2l-1.6-0.9l6.3,5L349.7,176z"/>
				<path class="st25" d="M351.3,176.7c0,0-0.9-1.4-1.2-1.2c-0.3,0.2-1.2,1.5-0.9,2.1c0.3,0.6,6.7,10.7,8,13.7
					c1.3,3,3.3,8.8,6.8,13.5c3.5,4.7,11.3,16.1,12.2,16.4c0.9,0.3,4.7-6.4,4.7-7.6c0-1.2-13.9-20.3-16-22.4
					C362.8,189.1,359.4,187.5,351.3,176.7z"/>
				<path class="st38" d="M351.5,187.2c0,0-0.3-2.2-1.3-3.8c-1.1-1.5-1.7-3.2-1.7-3.9c0-0.7,0.2-1.1,0.2-1.1s0.8-1.9,1.3-2.1
					c0.5-0.2,1.2,0,1.9,0.4c0.7,0.4,0.7,0.9,0.7,0.9s0.5,0.1,0.8,0.5c0.3,0.4,0.7,1.3,0.7,1.3s0.4,0.3,0.7,0.7
					c0.3,0.4,0.5,1.3,0.5,1.3s0.2,0.3,0.1,0.9c-0.1,0.5-1.1,2-1.1,2.4c0,0.3,0.5,1.6,0.7,2.2c0.2,0.6,0.3,1.2,0.3,1.2
					s0.6,3.3-0.4,3.1C353.9,190.9,352,189.3,351.5,187.2z"/>
				<path class="st25" d="M366.6,181.7c0,0-4.2-2.1-5-4.9c-0.8-2.8,0.6-3.7,1.8-3.3c1.2,0.4,3.5,2,3.5,2s2-4.7,3.4-4.1
					c1.4,0.5,5.8,4.6,6.7,5.3c0.9,0.8,3.2,7.9,3.5,9.5c0.4,1.6,0,5.1,0,5.1s-2.1-4.1-4.3-6.6C374.1,182.1,366.6,181.7,366.6,181.7z"
					/>
				<path class="st39" d="M367.8,178.1c-0.1,0-1.9-0.9-2.8-2.1c-0.9-1.2-2.3-2.7-3.1-1.6c-0.4,0.6-0.3,1.8,0.1,2.9
					c1.1,2.5,4.8,4.3,4.8,4.3s0.9,0,2.2,0.2L367.8,178.1z"/>
				<path class="st39" d="M380.6,191.3c0,0-0.1,2.3-0.3,3.2c-0.3,0.9-1.1,1.2-1.1,1.2l-1.9-7.4l1.3-1
					C378.6,187.3,380.6,190.6,380.6,191.3z"/>
				<path class="st38" d="M366.8,178.8c0,0-0.3,2.7,0,4.2c0.3,1.5-0.1,3.2,0.8,5.8c1,2.6,1.8,4.6,1.7,5.7c-0.1,1.2,0.4,2.1,1.6,2.8
					c1.2,0.7,1,2.1,2.6,3.8c1.6,1.7,4.9,2.5,5.8,0c0.8-2.5-0.1-7-0.4-8.8c-0.4-1.8-2-7.1-2-7.1s-3.1-3.5-4.7-4.8
					S366.9,177.1,366.8,178.8z"/>
				<path class="st38" d="M376.3,184.6c0,0,1-0.5,1.9,1.1c0.8,1.5,0.3,4.2,0,4.7C377.8,190.9,376.3,184.6,376.3,184.6z"/>
				<path class="st37" d="M369.1,172c-0.5,0.5-1,1.3-1.4,2c0.4,0.2,1,0.6,1.5,0.9c1,0.6,2.2,1.6,2.2,1.6l1.5-2c0,0-0.9-0.8-2.1-1.6
					C369.6,172.2,369.1,172,369.1,172z"/>
				<path class="st5" d="M344.1,168.2l-3.7-5.6c0,0,0.8,1.5,1.5,2.6c0.7,1.1,0,0.5,0,0.5L344.1,168.2z"/>
				<path class="st5" d="M339.5,169.6l-3-2.2c0,0,1.4,1.5,2.1,1.9C339.4,169.8,339.5,169.6,339.5,169.6z"/>
				<path class="st5" d="M337.1,163l-8.7-10c0,0,5,6.1,5.3,6.6c0.3,0.6-1.1-0.3-1.1-0.3L337.1,163z"/>
				<path class="st5" d="M325.4,149.6c0,0.1-0.1,0.2-0.2,0.1c-0.1-0.1-0.2-0.2-0.2-0.3s0.1-0.2,0.2-0.1
					C325.3,149.3,325.4,149.4,325.4,149.6z"/>
				<path class="st5" d="M329,155.9C329,156,329,156,329,155.9c-0.1,0-0.2,0-0.2-0.1c0-0.1,0-0.1,0.1-0.1
					C329,155.8,329,155.8,329,155.9z"/>
				<path class="st5" d="M322.8,149.1C322.8,149.1,322.8,149.2,322.8,149.1c-0.1,0-0.2,0-0.2-0.1c0-0.1,0-0.1,0.1-0.1
					C322.8,148.9,322.8,149,322.8,149.1z"/>
				<path class="st5" d="M334.2,157.5C334.2,157.5,334.1,157.6,334.2,157.5c-0.1,0-0.2,0-0.2-0.1c0-0.1,0-0.1,0.1-0.1
					C334.1,157.3,334.2,157.4,334.2,157.5z"/>
				<path class="st5" d="M322.6,155.8C322.6,155.9,322.6,155.9,322.6,155.8c-0.1,0-0.2,0-0.2-0.1c0-0.1,0-0.1,0.1-0.1
					C322.6,155.7,322.6,155.7,322.6,155.8z"/>
				<path class="st5" d="M346.1,176.4C346.1,176.5,346,176.5,346.1,176.4c-0.1,0-0.2,0-0.2-0.1c0-0.1,0-0.1,0.1-0.1
					C346,176.2,346.1,176.3,346.1,176.4z"/>
				<path class="st5" d="M332.9,165.4C332.9,165.5,332.8,165.5,332.9,165.4c-0.1,0-0.2,0-0.2-0.1c0-0.1,0-0.1,0.1-0.1
					C332.8,165.3,332.9,165.4,332.9,165.4z"/>
				<path class="st5" d="M331,162.7c0,0.1-0.1,0.2-0.2,0.1c-0.1-0.1-0.2-0.2-0.2-0.3s0.1-0.2,0.2-0.1
					C330.9,162.4,331,162.5,331,162.7z"/>
				<path class="st5" d="M324.9,156.2c0,0.1-0.1,0.2-0.2,0.1c-0.1-0.1-0.2-0.2-0.2-0.3s0.1-0.2,0.2-0.1
					C324.8,155.9,324.9,156.1,324.9,156.2z"/>
				<path class="st5" d="M338.2,161.6c0,0.1-0.1,0.2-0.2,0.1c-0.1-0.1-0.2-0.2-0.2-0.3c0-0.1,0.1-0.2,0.2-0.1
					C338.1,161.3,338.2,161.5,338.2,161.6z"/>
				<path class="st5" d="M334.4,169.4c0,0.1-0.1,0.2-0.2,0.1c-0.1-0.1-0.2-0.2-0.2-0.3s0.1-0.2,0.2-0.1
					C334.3,169.2,334.4,169.3,334.4,169.4z"/>
				<path class="st5" d="M343.2,174.3c0,0.1-0.1,0.2-0.2,0.1c-0.1-0.1-0.2-0.2-0.2-0.3s0.1-0.2,0.2-0.1
					C343.1,174,343.2,174.1,343.2,174.3z"/>
				<path class="st5" d="M346.8,169.1c0,0.1-0.1,0.2-0.2,0.1c-0.1-0.1-0.2-0.2-0.2-0.3c0-0.1,0.1-0.2,0.2-0.1
					C346.7,168.8,346.8,169,346.8,169.1z"/>
			</g>
			<g>
				<polygon class="st8" points="332.5,147.9 318.7,158.3 318.7,192.3 349.1,209.8 388.4,180.1 				"/>
				<polygon class="st8" points="397.7,225.1 397.7,189.7 361.7,217 388.2,232.3 				"/>
			</g>
		</g>
		<polygon class="st10" points="400.7,183 403.7,181.1 403.7,242 400.7,243.8 		"/>
		<polygon class="st6" points="320.1,140.7 320.1,191.6 318.7,192.3 318.7,140 		"/>
		<polygon class="st4" points="320.1,191.6 397.7,236.3 397.7,237.8 318.7,192.3 		"/>
	</g>
	<g>
		<polygon class="st20" points="369.5,279.6 369.3,303.1 369.3,321.1 403.5,340.8 429.1,326.1 429.1,281.9 		"/>
		<polygon class="st13" points="367.5,320 367.5,322.7 403.5,343.5 403.5,340.8 		"/>
		<polygon class="st22" points="393.1,261.1 367.5,275.8 403.5,296.6 429.1,281.9 		"/>
		<polygon class="st13" points="367.5,290.6 367.5,293.3 403.5,314 403.5,311.3 		"/>
		<polygon class="st13" points="367.5,305.2 367.5,307.9 403.5,328.8 403.5,326.1 		"/>
		<polygon class="st13" points="367.5,275.8 367.5,278.5 403.5,299.3 403.5,296.6 		"/>
		<polygon class="st21" points="403.5,296.6 429.1,281.9 429.1,328.8 403.5,343.5 		"/>
		<polygon class="st13" points="401.5,342.3 401.5,295.5 403.5,296.6 403.5,343.5 		"/>
		<polygon class="st13" points="367.5,322.7 367.5,275.8 369.5,277 369.5,323.8 		"/>
		<polygon class="st21" points="369.5,306.4 379.9,300.4 369.5,294.4 		"/>
		<polygon class="st21" points="369.5,291.7 379.9,285.7 369.5,279.7 		"/>
		<polygon class="st21" points="369.5,321.1 379.9,315.1 369.5,309.1 		"/>
		<polygon class="st24" points="379.9,285.7 369.5,291.7 401.5,298.8 401.5,298.1 		"/>
		<polygon class="st24" points="379.9,300.4 369.5,306.4 401.5,313.5 401.5,312.8 		"/>
		<polygon class="st24" points="379.9,315.1 369.5,321.1 401.5,328.2 401.5,327.5 		"/>
	</g>
	<g>
		<polygon class="st15" points="248.6,312.6 202.3,284.1 166.6,266.6 155.7,311.1 224.3,326.1 		"/>
		<path class="st40" d="M155.7,250.4L155.7,250.4v3.5v15.6v3.5v15.6v3.5v15.6v3.5l46.6-26.9v0v-3.5V265v-3.5v-15.4v-3.5v-15.6v-3.5
			v0L155.7,250.4z"/>
		<g>
			<polygon class="st41" points="199.7,263.1 199.7,247.5 158.3,271.4 158.3,287 159,287.4 			"/>
			<polygon class="st42" points="200.4,263.5 200.4,247.9 159,271.8 159,287.4 			"/>
			<polygon class="st43" points="183.6,262.6 183.6,259.6 175.8,264.1 175.8,267.1 			"/>
			<polygon class="st44" points="200.4,247.9 199.7,247.5 158.3,271.4 159,271.8 			"/>
		</g>
		<g>
			<polygon class="st41" points="199.7,282.2 199.7,266.6 158.3,290.5 158.3,306.1 159,306.5 			"/>
			<polygon class="st42" points="200.4,282.6 200.4,267 159,290.9 159,306.5 			"/>
			<polygon class="st43" points="183.6,281.7 183.6,278.7 175.8,283.2 175.8,286.2 			"/>
			<polygon class="st44" points="200.4,267 199.7,266.6 158.3,290.5 159,290.9 			"/>
		</g>
		<polygon class="st42" points="169.2,204.5 202.3,223.6 155.7,250.4 122.6,231.4 		"/>
		<polygon class="st41" points="155.7,250.4 122.6,231.4 122.6,292 155.7,311.1 		"/>
		<g>
			<polygon class="st41" points="199.7,244.1 199.7,228.5 158.3,252.4 158.3,268 159,268.4 			"/>
			<polygon class="st42" points="200.4,244.5 200.4,228.9 159,252.8 159,268.4 			"/>
			<polygon class="st43" points="183.6,243.6 183.6,240.6 175.8,245.1 175.8,248.1 			"/>
			<polygon class="st44" points="200.4,228.9 199.7,228.5 158.3,252.4 159,252.8 			"/>
		</g>
	</g>
	<g>
		<g>
			<polygon class="st15" points="290.3,305.7 258.8,323.8 296.9,345.8 280.4,344.9 280.4,349.4 306.3,351.2 337.7,333.1 			"/>
			<polygon class="st15" points="227.9,314.6 227.9,319.2 253.8,321 248.9,315.8 			"/>
		</g>
		<g>
			<path class="st40" d="M228,319.2c-0.7,0-1.4-0.3-1.9-0.8c-1-1.1-0.9-2.7,0.1-3.7l8.3-7.7c1.1-1,2.7-0.9,3.7,0.1
				c1,1.1,0.9,2.7-0.1,3.7l-8.3,7.7C229.3,318.9,228.7,319.2,228,319.2z"/>
		</g>
		<g>
			<path class="st40" d="M280.4,349.4c-1.2,0-2.3-0.9-2.6-2.1l-3.4-17.8c-0.3-1.4,0.7-2.8,2.1-3.1c1.4-0.3,2.8,0.7,3.1,2.1l3.4,17.8
				c0.3,1.4-0.7,2.8-2.1,3.1C280.7,349.4,280.5,349.4,280.4,349.4z"/>
		</g>
		<g>
			<path class="st40" d="M309.2,332.6c-1.1,0-2.2-0.7-2.5-1.9l-5.2-16.7c-0.4-1.4,0.3-2.9,1.7-3.3c1.4-0.4,2.9,0.3,3.3,1.7l5.2,16.7
				c0.4,1.4-0.3,2.9-1.7,3.3C309.7,332.6,309.4,332.6,309.2,332.6z"/>
		</g>
		<polygon class="st41" points="277,329 229.6,301.6 261,283.4 308.4,310.8 		"/>
		<polygon class="st42" points="298,316.9 250.5,289.5 261,283.4 308.4,310.8 		"/>
		<polygon class="st42" points="277,329 229.6,301.6 240,295.5 287.5,322.9 		"/>
		<polygon class="st40" points="308.4,310.8 308.4,317.8 277,336 277,329 		"/>
		<polygon class="st41" points="229.6,301.6 229.6,308.6 277,336 277,329 		"/>
	</g>
	<path class="st45" d="M194.4,224.1l-2.4-0.9c-1.6-0.6-3.5-0.6-4.9,0.2c-0.7,0.4-1.3,0.9-1.7,1.5c-0.3,0.5-0.5,1.1-0.5,1.8
		c-1.7,0.5-3.2,1.3-4.2,2.5l-2.8-1.1c-1.3-0.5-2.6-1-3.9-1.5c-0.3-1.6-1.3-3.4-1.3-3.4l-3,1.6c-1.3-0.6-2.1-1.2-2.2-1.6
		c-0.3-3.2-2.9-4.5-5.8-3c-2.9,1.5-5.1,5.3-4.8,8.5c0.3,3.2,1.4-0.7,4.3-2.2c0.4-0.2,2.2,0.1,4.4,0.6l-8.2,4.3c0,0,1.7,0.8,6.7,0.9
		c4.1,0.1,7.8-1.5,9.2-3c1.7,0.5,2.9,1,3.3,1.3l2.6,1c-0.7,1.8-0.4,3.6,0.6,5.2l17.4-10C196.7,225.4,195.7,224.6,194.4,224.1z
		 M192.4,227c-1.3-0.5-2.7-0.8-4.1-0.8c0.1-0.4,0.5-0.6,0.6-0.7c0.2-0.1,0.9-0.4,1.6-0.1l2.4,0.9c0.7,0.3,1.3,0.8,1.5,1.4L192.4,227
		z"/>
	<polygon class="st15" points="102.5,320.4 154.2,326.1 158.9,309.2 153.4,303.5 154.2,284.3 143.3,296.3 140.3,275.2 133.8,297.9 
		101.5,307.4 	"/>
	<g>
		<path class="st46" d="M170.3,186.8l4.2-2.4c1-0.6,2.4,0.2,2.4,1.4v3.8c0,4.5-2.6,8.6-6.6,10.6l0,0"/>
		<path class="st47" d="M169.3,229.3c-4.5,2.6-11.2,2.9-15.1,0.6c-3.9-2.2-3.4-6.1,1.1-8.7c4.5-2.6,11.2-2.9,15.1-0.6
			C174.2,222.8,173.7,226.7,169.3,229.3z"/>
		<path class="st37" d="M167.5,226.7c-3.4,1.9-8.4,2.2-11.4,0.5c-2.9-1.7-2.5-4.6,0.8-6.6c3.4-1.9,8.4-2.2,11.4-0.5
			C171.2,221.9,170.9,224.8,167.5,226.7z"/>
		<path class="st47" d="M162.2,223.5L162.2,223.5c-1.1,0-2-0.9-2-2v-11.4h3.9v11.4C164.2,222.6,163.3,223.5,162.2,223.5z"/>
		<path class="st37" d="M150.4,190.2v13.6c0,6.5,5.3,11.8,11.8,11.8l0,0c6.5,0,11.8-5.3,11.8-11.8l0-15.8L150.4,190.2z"/>
		<path class="st30" d="M170,193.7c-4.9,2.8-12.4,3.2-16.7,0.7c-4.3-2.5-3.7-6.8,1.2-9.6c4.9-2.8,12.4-3.2,16.7-0.7
			C175.4,186.5,174.9,190.8,170,193.7z"/>
		<path class="st48" d="M168.6,192.9c-4,2.3-10.1,2.6-13.6,0.6c-3.5-2-3.1-5.5,1-7.9c4-2.3,10.1-2.6,13.6-0.6
			C173,187,172.6,190.5,168.6,192.9z"/>
		<path class="st46" d="M152.6,197.1l-2.5,1.5c-1.8,1-2.9,3-2.9,5v3.3c0,3.2,3.5,5.2,6.3,3.6l0,0"/>
		<polygon class="st49" points="169.7,194.8 166.9,196.4 165.7,202.4 166.9,201.7 166.9,210.6 169.7,209 		"/>
		<polygon class="st49" points="170.3,195.2 169.7,194.8 166.9,196.4 165.7,202.4 166.3,202.8 166.9,202.5 166.9,210.6 167.5,211.1 
			170.3,209.4 		"/>
		<polygon class="st50" points="170.3,195.2 167.5,196.9 166.3,202.8 167.5,202.2 167.5,211.1 170.3,209.4 		"/>
	</g>
	<g>
		<path class="st27" d="M112.7,318.2c-4.7,2.7-11.9,3-16,0.7c-4.1-2.4-3.6-6.5,1.1-9.2c4.7-2.7,11.9-3,16-0.7
			C117.9,311.3,117.4,315.4,112.7,318.2z"/>
		<path class="st27" d="M89.1,281.7v2.4c0,10.9,1.7,21.6,5.1,31.9l0,0l22.4-2.6l0,0c3.3-9.8,4.9-20,4.9-30.4v-4.2L89.1,281.7z"/>
		<path class="st26" d="M115.9,286.1c-6.8,3.9-17,4.3-22.8,0.9c-5.9-3.4-5.1-9.3,1.6-13.2c6.8-3.9,17-4.3,22.8-0.9
			C123.4,276.3,122.7,282.2,115.9,286.1z"/>
		<path class="st51" d="M112.6,284.2c-4.7,2.7-11.7,3-15.7,0.7s-3.5-6.4,1.1-9.1s11.7-3,15.7-0.7
			C117.8,277.5,117.2,281.5,112.6,284.2z"/>
	</g>
	<g>
		<g>
			<path class="st52" d="M105.4,282.2c0,0,10.6-6.7,15.8-11.9c5.1-5.2,9.5-12.8,12.1-20.8c2.5-8,7-12.3,7-12.3s-18.9,3.7-28.9,16.8
				C101.3,267.2,101.5,278.4,105.4,282.2z"/>
			<g>
				<path class="st51" d="M104.2,281.7c0,0,0.3-0.7,0.9-2c0.6-1.2,1.4-3,2.5-5c1.1-2.1,2.4-4.4,3.8-6.9c0.7-1.2,1.5-2.5,2.3-3.8
					c0.4-0.6,0.8-1.3,1.2-2c0.4-0.6,0.8-1.3,1.3-1.9c0.9-1.3,1.8-2.5,2.8-3.7c0.5-0.6,1-1.2,1.4-1.7c0.5-0.6,1-1.1,1.5-1.6
					c2-2.1,3.9-4,5.6-5.6c3.4-3.1,5.9-4.9,5.9-4.9s-2.4,1.9-5.6,5.2c-1.6,1.6-3.4,3.6-5.2,5.8c-0.4,0.6-0.9,1.1-1.4,1.7
					c-0.4,0.6-0.9,1.2-1.3,1.8c-0.9,1.2-1.7,2.5-2.5,3.8c-0.4,0.6-0.8,1.3-1.2,2c-0.4,0.7-0.7,1.3-1.1,2c-0.7,1.3-1.4,2.6-2,3.9
					c-1.3,2.6-2.4,5-3.4,7c-0.9,2.1-1.7,3.8-2.2,5.1c-0.5,1.2-0.7,1.9-0.7,1.9c-0.2,0.7-1,1-1.7,0.8
					C104.3,283.3,103.9,282.5,104.2,281.7C104.2,281.8,104.2,281.8,104.2,281.7L104.2,281.7z"/>
			</g>
		</g>
		<g>
			<path class="st53" d="M104.6,282.8c0,0,8.7-0.6,13.6-2.1c4.9-1.5,10.1-4.7,14.3-8.8c4.2-4.1,8.4-5.2,8.4-5.2s-12.8-4-23.3,0.7
				C107.1,272.1,103.5,279.1,104.6,282.8z"/>
			<g>
				<path class="st51" d="M104,282.1c0,0,0.4-0.4,1.2-0.9c0.8-0.6,1.9-1.3,3.2-2.3c1.3-0.9,2.9-1.9,4.6-3c0.9-0.5,1.8-1.1,2.7-1.6
					c0.4-0.3,0.9-0.5,1.4-0.8c0.5-0.3,0.9-0.5,1.4-0.8c3.9-2,8-3.2,11.1-4c3.1-0.8,5.2-1.1,5.2-1.1s-2.1,0.4-5.2,1.3
					c-1.5,0.5-3.3,1.1-5.1,1.8c-0.9,0.4-1.9,0.8-2.8,1.2c-0.9,0.5-1.9,0.9-2.8,1.5c-0.5,0.2-0.9,0.5-1.4,0.8
					c-0.5,0.3-0.9,0.6-1.3,0.9c-0.9,0.6-1.7,1.2-2.5,1.7c-1.6,1.1-3.1,2.2-4.4,3.2c-1.3,1-2.3,1.8-3,2.4c-0.7,0.6-1.1,0.9-1.1,0.9
					c-0.4,0.3-1,0.3-1.3-0.1C103.6,283,103.6,282.4,104,282.1C104,282.1,104,282.1,104,282.1z"/>
			</g>
		</g>
		<g>
			<path class="st53" d="M105.8,280.1c0,0,2.9-12.2,2.9-19.5s-2.2-15.8-6-23.3c-3.8-7.5-3.7-13.7-3.7-13.7s-10.8,15.9-8.8,32.3
				C92.3,272.3,100.3,280.2,105.8,280.1z"/>
			<g>
				<path class="st51" d="M104.6,280.6c0,0-0.3-0.7-0.7-2c-0.5-1.3-1.1-3.1-1.7-5.3c-0.7-2.2-1.4-4.8-2.1-7.6
					c-0.4-1.4-0.7-2.8-1.1-4.3c-0.2-0.7-0.4-1.5-0.5-2.2c-0.2-0.7-0.3-1.5-0.4-2.3c-0.3-1.5-0.5-3.1-0.6-4.6
					c-0.1-0.8-0.1-1.5-0.2-2.2c0-0.7-0.1-1.5-0.1-2.2c-0.1-2.9-0.1-5.6,0.1-7.9c0.2-4.6,0.8-7.6,0.8-7.6s-0.3,3.1-0.3,7.6
					c0,2.3,0.1,5,0.3,7.8c0.1,0.7,0.2,1.4,0.2,2.2c0.1,0.7,0.2,1.5,0.3,2.2c0.2,1.5,0.5,3,0.8,4.4c0.1,0.7,0.4,1.5,0.5,2.2
					c0.2,0.7,0.4,1.4,0.6,2.2c0.4,1.4,0.9,2.9,1.3,4.2c0.9,2.7,1.7,5.2,2.5,7.4c0.8,2.1,1.5,3.9,2,5.1c0.5,1.2,0.8,1.9,0.8,1.9
					c0.3,0.7,0,1.4-0.6,1.7C105.7,281.6,104.9,281.4,104.6,280.6C104.6,280.7,104.6,280.6,104.6,280.6L104.6,280.6z"/>
			</g>
		</g>
		<g>
			<path class="st52" d="M106.4,283.3c0,0-12.2-3.2-18.6-6.6c-6.5-3.4-12.9-9.3-17.7-16.2c-4.8-6.9-10.4-9.6-10.4-9.6
				s19.1-2.1,32.6,7.4C105.8,267.7,109,278.5,106.4,283.3z"/>
			<g>
				<path class="st51" d="M105.3,284.1c0,0-0.4-0.6-1.3-1.6c-0.8-1-2.1-2.5-3.6-4.2c-1.5-1.7-3.3-3.6-5.3-5.7c-1-1-2-2.1-3.1-3.1
					c-0.5-0.5-1.1-1-1.6-1.6c-0.6-0.5-1.1-1.1-1.7-1.5c-1.1-1-2.3-1.9-3.5-2.8c-0.6-0.4-1.2-0.9-1.8-1.3c-0.6-0.4-1.2-0.8-1.8-1.2
					c-2.4-1.6-4.7-2.9-6.7-4c-4.1-2.2-6.9-3.3-6.9-3.3s2.9,1,7.1,2.9c2.1,1,4.5,2.2,7,3.6c0.6,0.4,1.3,0.7,1.9,1.1
					c0.6,0.4,1.3,0.8,1.9,1.2c1.3,0.8,2.5,1.7,3.8,2.7c0.6,0.5,1.2,1,1.8,1.4c0.6,0.5,1.2,1,1.7,1.5c1.1,1,2.2,2,3.3,3
					c2.1,2,4.1,3.8,5.7,5.5c1.6,1.6,3,3,3.9,4c0.9,1,1.4,1.6,1.4,1.6l0,0c0.5,0.6,0.4,1.4-0.2,1.9
					C106.7,284.8,105.9,284.8,105.3,284.1C105.4,284.2,105.4,284.2,105.3,284.1z"/>
			</g>
		</g>
		<g>
			<path class="st53" d="M106.8,284.3c0,0-8.5,2.1-13.6,2.1c-5.1,0-11-1.4-16.3-4.1c-5.2-2.6-9.6-2.5-9.6-2.5s11-7.6,22.5-6.3
				C101.3,274.9,106.9,280.4,106.8,284.3z"/>
			<g>
				<path class="st51" d="M106.5,285.1c0,0-0.5-0.2-1.3-0.6c-0.9-0.3-2.1-0.8-3.6-1.4c-1.5-0.5-3.3-1.1-5.2-1.7
					c-1-0.3-1.9-0.6-2.9-0.9c-0.5-0.2-1-0.3-1.5-0.4c-0.5-0.1-1-0.3-1.5-0.4c-1-0.2-2.1-0.4-3.1-0.6c-1-0.1-2.1-0.3-3.1-0.3
					c-2-0.2-3.9-0.2-5.5-0.2c-3.2,0-5.3,0.3-5.3,0.3s2.1-0.4,5.3-0.6c3.2-0.2,7.5-0.2,11.8,0.5c0.5,0.1,1.1,0.2,1.6,0.3
					c0.5,0.1,1.1,0.2,1.6,0.3c1,0.2,2,0.5,3,0.7c2,0.5,3.8,1,5.3,1.5c1.5,0.5,2.8,0.9,3.7,1.2c0.9,0.3,1.4,0.5,1.4,0.5
					c0.5,0.2,0.7,0.7,0.5,1.2C107.5,285.1,107,285.3,106.5,285.1C106.5,285.2,106.5,285.1,106.5,285.1z"/>
			</g>
		</g>
	</g>
	<g>
		<defs>
			<polygon id="SVGID_1_" points="369.5,309.1 401.5,327.5 401.5,339.6 369.5,321.1 			"/>
		</defs>
		<clipPath id="SVGID_2_">
			<use xlink:href="#SVGID_1_"  style="overflow:visible;"/>
		</clipPath>
		<g class="st54">
			<g>
				<polygon class="st32" points="383.7,312.1 385.7,313.3 379.9,316.6 377.8,315.4 				"/>
				<polygon class="st55" points="386.1,313 386.1,322.7 379.9,326.3 379.9,316.6 				"/>
				<polygon class="st56" points="386.1,313 385.8,312.9 379.6,316.5 379.9,316.6 				"/>
				<polygon class="st56" points="384.3,312 384,311.9 377.8,315.4 378.1,315.6 				"/>
				<polygon class="st57" points="379.9,326.3 377.8,325.1 377.8,315.4 379.9,316.6 				"/>
				<polygon class="st56" points="377.8,315.4 378.1,315.3 380.2,316.5 379.9,316.6 				"/>
				<polygon class="st55" points="384.3,312 384.3,312.4 384.1,312.3 378.6,315.6 378.3,315.4 				"/>
			</g>
		</g>
		<g class="st54">
			<g>
				<polygon class="st32" points="391.2,316.5 393.2,317.6 387.4,321 385.4,319.8 				"/>
				<polygon class="st42" points="393.6,317.4 393.6,327.1 387.4,330.7 387.4,321 				"/>
				<polygon class="st58" points="393.6,317.4 393.4,317.3 387.2,320.9 387.4,321 				"/>
				<polygon class="st58" points="391.8,316.4 391.6,316.3 385.4,319.8 385.6,320 				"/>
				<polygon class="st59" points="387.4,330.7 385.4,329.5 385.4,319.8 387.4,321 				"/>
				<polygon class="st58" points="385.4,319.8 385.6,319.7 387.7,320.9 387.4,321 				"/>
				<polygon class="st59" points="391.8,316.4 391.8,316.8 391.6,316.7 386.1,320 385.9,319.8 				"/>
			</g>
		</g>
		<g class="st54">
			<g>
				<polygon class="st32" points="393.2,317.7 395.3,318.8 389.4,322.2 387.4,321 				"/>
				<polygon class="st60" points="395.6,318.6 395.6,328.3 389.4,331.9 389.4,322.2 				"/>
				<polygon class="st28" points="395.6,318.6 395.4,318.5 389.2,322.1 389.4,322.2 				"/>
				<polygon class="st28" points="393.8,317.6 393.6,317.5 387.4,321 387.6,321.2 				"/>
				<polygon class="st25" points="389.4,331.9 387.4,330.7 387.4,321 389.4,322.2 				"/>
				<polygon class="st28" points="387.4,321 387.7,320.9 389.7,322.1 389.4,322.2 				"/>
				<polygon class="st60" points="393.8,317.6 393.8,318 393.7,317.9 388.1,321.1 387.9,321 				"/>
			</g>
		</g>
		<g class="st54">
			<g>
				<polygon class="st32" points="398.3,320.6 400.3,321.7 394.5,325.1 392.4,323.9 				"/>
				<polygon class="st42" points="400.7,321.5 400.7,331.2 394.5,334.8 394.5,325.1 				"/>
				<polygon class="st61" points="400.7,321.5 400.4,321.4 394.2,325 394.5,325.1 				"/>
				<polygon class="st61" points="398.9,320.5 398.6,320.4 392.4,323.9 392.7,324.1 				"/>
				<polygon class="st62" points="394.5,334.8 392.4,333.6 392.4,323.9 394.5,325.1 				"/>
				<polygon class="st61" points="392.4,323.9 392.7,323.8 394.7,324.9 394.5,325.1 				"/>
				<polygon class="st63" points="398.9,320.5 398.9,320.9 398.7,320.8 393.2,324 392.9,323.9 				"/>
			</g>
		</g>
		<g class="st54">
			<g>
				<polygon class="st32" points="400.3,321.7 402.4,322.9 396.5,326.3 394.5,325.1 				"/>
				<polygon class="st55" points="402.7,322.7 402.7,332.4 396.5,335.9 396.5,326.3 				"/>
				<polygon class="st56" points="402.7,322.7 402.5,322.6 396.3,326.1 396.5,326.3 				"/>
				<polygon class="st56" points="400.9,321.7 400.7,321.5 394.5,325.1 394.7,325.2 				"/>
				<polygon class="st57" points="396.5,335.9 394.5,334.8 394.5,325.1 396.5,326.3 				"/>
				<polygon class="st56" points="394.5,325.1 394.7,324.9 396.8,326.1 396.5,326.3 				"/>
				<polygon class="st55" points="400.9,321.7 400.9,322.1 400.8,322 395.2,325.2 395,325.1 				"/>
			</g>
		</g>
		<g class="st54">
			<g>
				<polygon class="st32" points="402.4,322.9 404.4,324.1 398.6,327.5 396.5,326.3 				"/>
				<polygon class="st42" points="404.8,323.9 404.8,333.6 398.6,337.1 398.6,327.5 				"/>
				<polygon class="st58" points="404.8,323.9 404.5,323.8 398.3,327.3 398.6,327.5 				"/>
				<polygon class="st58" points="402.9,322.9 402.7,322.7 396.5,326.3 396.8,326.4 				"/>
				<polygon class="st59" points="398.6,337.1 396.5,336 396.5,326.3 398.6,327.5 				"/>
				<polygon class="st58" points="396.5,326.3 396.8,326.1 398.8,327.3 398.6,327.5 				"/>
				<polygon class="st59" points="402.9,322.9 402.9,323.3 402.8,323.2 397.3,326.4 397,326.3 				"/>
			</g>
		</g>
		<g class="st54">
			<g>
				<polygon class="st32" points="404.4,324.1 406.4,325.3 400.6,328.7 398.6,327.5 				"/>
				<polygon class="st60" points="406.8,325.1 406.8,334.7 400.6,338.3 400.6,328.7 				"/>
				<polygon class="st28" points="406.8,325.1 406.6,324.9 400.4,328.5 400.6,328.7 				"/>
				<polygon class="st28" points="405,324 404.8,323.9 398.6,327.5 398.8,327.6 				"/>
				<polygon class="st25" points="400.6,338.3 398.6,337.1 398.6,327.5 400.6,328.7 				"/>
				<polygon class="st28" points="398.6,327.5 398.8,327.3 400.9,328.5 400.6,328.7 				"/>
				<polygon class="st60" points="405,324 405,324.5 404.8,324.4 399.3,327.6 399.1,327.5 				"/>
			</g>
		</g>
	</g>
	<g>
		<defs>
			<polygon id="SVGID_3_" points="369.5,294.3 401.5,312.7 401.5,324.8 369.5,306.3 			"/>
		</defs>
		<clipPath id="SVGID_4_">
			<use xlink:href="#SVGID_3_"  style="overflow:visible;"/>
		</clipPath>
		<g class="st64">
			<g>
				<polygon class="st32" points="383.5,297.3 385.5,298.5 379.7,301.9 377.6,300.7 				"/>
				<polygon class="st42" points="385.8,298.3 385.8,307.9 379.7,311.5 379.7,301.9 				"/>
				<polygon class="st61" points="385.8,298.3 385.6,298.1 379.4,301.7 379.7,301.9 				"/>
				<polygon class="st61" points="384,297.2 383.8,297.1 377.6,300.7 377.9,300.8 				"/>
				<polygon class="st62" points="379.7,311.5 377.6,310.3 377.6,300.7 379.7,301.9 				"/>
				<polygon class="st61" points="377.6,300.7 377.9,300.5 379.9,301.7 379.7,301.9 				"/>
				<polygon class="st63" points="384,297.2 384,297.7 383.9,297.6 378.4,300.8 378.1,300.7 				"/>
			</g>
		</g>
		<g class="st64">
			<g>
				<polygon class="st32" points="385.5,298.5 387.5,299.7 381.7,303 379.7,301.9 				"/>
				<polygon class="st55" points="387.9,299.5 387.9,309.1 381.7,312.7 381.7,303 				"/>
				<polygon class="st56" points="387.9,299.5 387.6,299.3 381.5,302.9 381.7,303 				"/>
				<polygon class="st56" points="386.1,298.4 385.8,298.3 379.7,301.9 379.9,302 				"/>
				<polygon class="st57" points="381.7,312.7 379.7,311.5 379.7,301.9 381.7,303 				"/>
				<polygon class="st56" points="379.7,301.9 379.9,301.7 382,302.9 381.7,303 				"/>
				<polygon class="st55" points="386.1,298.4 386.1,298.8 385.9,298.8 380.4,302 380.2,301.8 				"/>
			</g>
		</g>
		<g class="st64">
			<g>
				<polygon class="st32" points="387.5,299.7 389.6,300.9 383.7,304.2 381.7,303 				"/>
				<polygon class="st42" points="389.9,300.6 389.9,310.3 383.7,313.9 383.7,304.2 				"/>
				<polygon class="st58" points="389.9,300.6 389.7,300.5 383.5,304.1 383.7,304.2 				"/>
				<polygon class="st58" points="388.1,299.6 387.9,299.5 381.7,303 381.9,303.2 				"/>
				<polygon class="st59" points="383.7,313.9 381.7,312.7 381.7,303 383.7,304.2 				"/>
				<polygon class="st58" points="381.7,303 382,302.9 384,304.1 383.7,304.2 				"/>
				<polygon class="st59" points="388.1,299.6 388.1,300 388,299.9 382.4,303.2 382.2,303 				"/>
			</g>
		</g>
		<g class="st64">
			<g>
				<polygon class="st32" points="389.6,300.9 391.6,302 385.8,305.4 383.7,304.2 				"/>
				<polygon class="st60" points="392,301.8 392,311.5 385.8,315.1 385.8,305.4 				"/>
				<polygon class="st28" points="392,301.8 391.7,301.7 385.5,305.3 385.8,305.4 				"/>
				<polygon class="st28" points="390.2,300.8 389.9,300.7 383.7,304.2 384,304.4 				"/>
				<polygon class="st25" points="385.8,315.1 383.7,313.9 383.7,304.2 385.8,305.4 				"/>
				<polygon class="st28" points="383.7,304.2 384,304.1 386,305.3 385.8,305.4 				"/>
				<polygon class="st60" points="390.2,300.8 390.2,301.2 390,301.1 384.5,304.4 384.2,304.2 				"/>
			</g>
		</g>
		<g class="st64">
			<g>
				<polygon class="st32" points="397.3,305.3 399.4,306.4 393.5,309.8 391.5,308.6 				"/>
				<polygon class="st63" points="399.7,306.2 399.7,315.9 393.5,319.5 393.5,309.8 				"/>
				<polygon class="st61" points="399.7,306.2 399.5,306.1 393.3,309.7 393.5,309.8 				"/>
				<polygon class="st61" points="397.9,305.2 397.7,305.1 391.5,308.6 391.7,308.8 				"/>
				<polygon class="st62" points="393.5,319.5 391.5,318.3 391.5,308.6 393.5,309.8 				"/>
				<polygon class="st61" points="391.5,308.6 391.8,308.5 393.8,309.7 393.5,309.8 				"/>
				<polygon class="st63" points="397.9,305.2 397.9,305.6 397.8,305.5 392.2,308.7 392,308.6 				"/>
			</g>
		</g>
	</g>
	<g>
		<defs>
			<polygon id="SVGID_5_" points="369.5,279.7 401.5,298.1 401.5,310.2 369.5,291.7 			"/>
		</defs>
		<clipPath id="SVGID_6_">
			<use xlink:href="#SVGID_5_"  style="overflow:visible;"/>
		</clipPath>
		<g class="st65">
			<g>
				<polygon class="st32" points="377.1,279.1 379.1,280.2 373.3,283.6 371.2,282.4 				"/>
				<polygon class="st42" points="379.5,280 379.5,289.7 373.3,293.3 373.3,283.6 				"/>
				<polygon class="st61" points="379.5,280 379.2,279.9 373.1,283.5 373.3,283.6 				"/>
				<polygon class="st61" points="377.7,279 377.4,278.9 371.2,282.4 371.5,282.6 				"/>
				<polygon class="st62" points="373.3,293.3 371.2,292.1 371.2,282.4 373.3,283.6 				"/>
				<polygon class="st61" points="371.2,282.4 371.5,282.3 373.6,283.5 373.3,283.6 				"/>
				<polygon class="st63" points="377.7,279 377.7,279.4 377.5,279.3 372,282.5 371.7,282.4 				"/>
			</g>
		</g>
		<g class="st65">
			<g>
				<polygon class="st32" points="379.1,280.2 381.2,281.4 375.3,284.8 373.3,283.6 				"/>
				<polygon class="st55" points="381.5,281.2 381.5,290.9 375.3,294.5 375.3,284.8 				"/>
				<polygon class="st56" points="381.5,281.2 381.3,281.1 375.1,284.6 375.3,284.8 				"/>
				<polygon class="st56" points="379.7,280.2 379.5,280 373.3,283.6 373.5,283.7 				"/>
				<polygon class="st57" points="375.3,294.5 373.3,293.3 373.3,283.6 375.3,284.8 				"/>
				<polygon class="st56" points="373.3,283.6 373.6,283.5 375.6,284.6 375.3,284.8 				"/>
				<polygon class="st55" points="379.7,280.2 379.7,280.6 379.6,280.5 374,283.7 373.8,283.6 				"/>
			</g>
		</g>
		<g class="st65">
			<g>
				<polygon class="st32" points="381.2,281.4 383.2,282.6 377.4,286 375.3,284.8 				"/>
				<polygon class="st42" points="383.6,282.4 383.6,292.1 377.4,295.6 377.4,286 				"/>
				<polygon class="st58" points="383.6,282.4 383.3,282.3 377.1,285.8 377.4,286 				"/>
				<polygon class="st58" points="381.8,281.4 381.5,281.2 375.3,284.8 375.6,284.9 				"/>
				<polygon class="st59" points="377.4,295.6 375.3,294.5 375.3,284.8 377.4,286 				"/>
				<polygon class="st58" points="375.3,284.8 375.6,284.6 377.6,285.8 377.4,286 				"/>
				<polygon class="st59" points="381.8,281.4 381.8,281.8 381.6,281.7 376.1,284.9 375.8,284.8 				"/>
			</g>
		</g>
		<g class="st65">
			<g>
				<polygon class="st32" points="383.2,282.6 385.2,283.8 379.4,287.2 377.4,286 				"/>
				<polygon class="st25" points="385.6,283.6 385.6,293.3 379.4,296.8 379.4,287.2 				"/>
				<polygon class="st28" points="385.6,283.6 385.4,283.5 379.2,287 379.4,287.2 				"/>
				<polygon class="st28" points="383.8,282.5 383.6,282.4 377.4,286 377.6,286.1 				"/>
				<polygon class="st25" points="379.4,296.8 377.4,295.6 377.4,286 379.4,287.2 				"/>
				<polygon class="st28" points="377.4,286 377.6,285.8 379.7,287 379.4,287.2 				"/>
				<polygon class="st60" points="383.8,282.5 383.8,283 383.7,282.9 378.1,286.1 377.9,286 				"/>
			</g>
		</g>
		<g class="st65">
			<g>
				<polygon class="st32" points="389.4,286.1 391.4,287.2 385.6,290.6 383.5,289.4 				"/>
				<polygon class="st42" points="391.8,287 391.8,296.7 385.6,300.3 385.6,290.6 				"/>
				<polygon class="st66" points="391.8,287 391.5,286.9 385.3,290.5 385.6,290.6 				"/>
				<polygon class="st66" points="390,286 389.7,285.8 383.5,289.4 383.8,289.6 				"/>
				<polygon class="st40" points="385.6,300.3 383.5,299.1 383.5,289.4 385.6,290.6 				"/>
				<polygon class="st66" points="383.5,289.4 383.8,289.3 385.9,290.4 385.6,290.6 				"/>
				<polygon class="st67" points="390,286 390,286.4 389.8,286.3 384.3,289.5 384,289.4 				"/>
			</g>
		</g>
		<g class="st65">
			<g>
				<polygon class="st32" points="391.4,287.2 393.5,288.4 387.6,291.8 385.6,290.6 				"/>
				<polygon class="st55" points="393.8,288.2 393.8,297.9 387.6,301.4 387.6,291.8 				"/>
				<polygon class="st56" points="393.8,288.2 393.6,288.1 387.4,291.6 387.6,291.8 				"/>
				<polygon class="st56" points="392,287.2 391.8,287 385.6,290.6 385.8,290.7 				"/>
				<polygon class="st57" points="387.6,301.4 385.6,300.3 385.6,290.6 387.6,291.8 				"/>
				<polygon class="st56" points="385.6,290.6 385.9,290.4 387.9,291.6 387.6,291.8 				"/>
				<polygon class="st55" points="392,287.2 392,287.6 391.9,287.5 386.3,290.7 386.1,290.6 				"/>
			</g>
		</g>
	</g>
	<g>
		<defs>
			<polygon id="SVGID_7_" points="333.5,273.6 365.5,292.1 365.5,304.1 333.5,285.7 			"/>
		</defs>
		<clipPath id="SVGID_8_">
			<use xlink:href="#SVGID_7_"  style="overflow:visible;"/>
		</clipPath>
		<g class="st68">
			<polygon class="st27" points="340.4,284.1 340.4,287.4 359.7,298.5 359.7,295.2 			"/>
			<polygon class="st25" points="359.7,295.2 366.1,291.5 366.1,294.8 359.7,298.5 			"/>
			<polygon class="st26" points="340.4,284.1 346.9,280.4 366.1,291.5 359.7,295.2 			"/>
			<polygon class="st69" points="341.3,285.2 341.3,287.4 349.3,292 349.3,289.8 			"/>
		</g>
	</g>
	<g>
		<defs>
			<polygon id="SVGID_9_" points="333.5,288.4 365.5,306.8 365.5,318.8 333.5,300.4 			"/>
		</defs>
		<clipPath id="SVGID_10_">
			<use xlink:href="#SVGID_9_"  style="overflow:visible;"/>
		</clipPath>
		<g class="st70">
			<polygon class="st27" points="339.1,296.5 339.1,301.7 358.4,312.9 358.4,307.6 			"/>
			<polygon class="st69" points="344.4,301 344.4,303.2 352.4,307.9 352.4,305.7 			"/>
			<polygon class="st25" points="358.4,307.6 364.9,303.9 364.9,309.1 358.4,312.9 			"/>
			<polygon class="st26" points="339.1,296.5 345.6,292.8 364.9,303.9 358.4,307.6 			"/>
			<path class="st69" d="M343,301.3c0,0.9-0.6,1.4-1.3,1c-0.7-0.4-1.3-1.5-1.3-2.4c0-0.9,0.6-1.4,1.3-1
				C342.4,299.3,343,300.4,343,301.3z"/>
			<path class="st69" d="M356.7,309.5c0,0.9-0.6,1.4-1.3,1c-0.7-0.4-1.3-1.5-1.3-2.4c0-0.9,0.6-1.4,1.3-1
				C356.1,307.5,356.7,308.6,356.7,309.5z"/>
		</g>
	</g>
	<g>
		<g>
			<path class="st25" d="M284,232.8l-0.5-0.3v0.3l-7.5,3.6c0,0-0.1,0.8,0.6,0.7c0.7-0.1,7.3-4.2,7.3-4.2L284,232.8z"/>
			<path class="st5" d="M283.4,230.1l-7,4.1c-0.6,0.4-1,1-1,1.8l0,0c0,0.7,0.8,1.1,1.4,0.8l6.7-3.9V230.1z"/>
			<path class="st26" d="M265.7,230.7c0-0.7,0.4-1.4,1-1.8l7.3-4.2l9.9,5.7l-7.5,4.6l-0.6,1.2l0.1,1l-9.7-5.6
				c-0.1,0-0.2-0.1-0.3-0.2l0,0l0,0C265.8,231.2,265.7,231,265.7,230.7z"/>
			<path class="st25" d="M276.7,234.9l-0.2,0.1l-0.6,1.2l0.1,1l-9.7-5.6c-0.1,0-0.2-0.1-0.3-0.2c-0.2-0.2-0.3-0.4-0.3-0.7
				c0-0.7,0.4-1.4,1-1.8l0,0l9.9,5.7L276.7,234.9z"/>
			<path class="st28" d="M283.2,233.2L283.2,233.2l-6.4,3.7c-0.1,0-0.2,0.1-0.3,0.1c-0.3,0-0.5-0.2-0.5-0.5c0-0.6,0.3-1.1,0.8-1.4
				l6-3.5l0,0l1.1-0.6v-0.4l-7.3,4.2c-0.6,0.4-1,1-1,1.8c0,0.5,0.4,0.9,0.9,0.9c0.2,0,0.3,0,0.5-0.1l7-4v-0.4L283.2,233.2z"/>
		</g>
	</g>
	<g>
		<g>
			<g>
				<path class="st5" d="M285.5,225L285.5,225l0-6.2l-7.1-0.7v6.2c0,0.6,0.4,1.2,1.2,1.7c1.5,0.9,3.7,1,5,0.2
					C285.2,226,285.5,225.5,285.5,225z"/>
			</g>
			<g>
				<path class="st21" d="M284.2,217.2c1.5,0.9,1.7,2.2,0.4,2.9c-1.3,0.7-3.5,0.7-5-0.2c-1.5-0.9-1.7-2.2-0.4-2.9
					C280.5,216.2,282.8,216.3,284.2,217.2z"/>
			</g>
			<g>
				<path class="st20" d="M283.9,217.4c1.3,0.7,1.4,1.8,0.3,2.5s-3,0.6-4.3-0.2s-1.4-1.8-0.3-2.5
					C280.7,216.6,282.6,216.7,283.9,217.4z"/>
			</g>
			<g>
				<path class="st71" d="M283.9,218.7c-1.3-0.7-3.2-0.8-4.3-0.2c-0.2,0.1-0.4,0.3-0.5,0.4c0.2,0.3,0.4,0.5,0.8,0.7
					c1.3,0.7,3.2,0.8,4.3,0.2c0.2-0.1,0.4-0.3,0.5-0.4C284.5,219.1,284.3,218.9,283.9,218.7z"/>
			</g>
			<g>
				<path class="st32" d="M285,225.4c-0.2,0-0.5-0.1-0.7-0.2c-0.3-0.2-0.4-0.6-0.2-0.9c0.2-0.3,0.6-0.4,0.9-0.2c0.1,0,0.1,0,0.1,0
					c0,0,0.1-0.1,0.1-0.1v-0.6c0-0.6-0.3-1.2-0.9-1.5c-0.3-0.2-0.4-0.6-0.2-0.9c0.2-0.3,0.6-0.4,0.9-0.2c0.9,0.5,1.5,1.5,1.5,2.6
					v0.6c0,0.5-0.3,1-0.7,1.2C285.5,225.4,285.3,225.4,285,225.4z"/>
			</g>
		</g>
	</g>
	<g>
		<defs>
			<polygon id="SVGID_11_" points="300.5,254.6 331.5,272.5 331.5,299.3 300.5,281.4 			"/>
		</defs>
		<clipPath id="SVGID_12_">
			<use xlink:href="#SVGID_11_"  style="overflow:visible;"/>
		</clipPath>
		<g class="st72">
			<polygon class="st14" points="323.5,292.7 306.8,283 306.8,260.8 323.5,270.4 			"/>
			<polygon class="st73" points="323.5,292.7 340.2,283 340.2,260.8 323.5,270.4 			"/>
			<g>
				<polygon class="st27" points="322.5,288 320.9,284 319.3,286.1 320.1,286.6 320.1,288.1 321.7,289.1 321.7,287.6 				"/>
				<polygon class="st27" points="321.7,290.1 320.1,289.2 320.1,288.5 321.7,289.4 				"/>
			</g>
			<polygon class="st18" points="306.8,260.8 323.5,251.1 340.2,260.8 323.5,270.4 			"/>
			<polygon class="st14" points="316.2,255.3 332.9,264.9 331.8,265.6 315.1,255.9 			"/>
		</g>
	</g>
	<path class="st45" d="M360.9,319l-2.1-3.9l-25.3-14.7v-12l13,7.5l-2.5-4.1l-10.5-6.1v-5.5l-2-7.7l-2.1-1.2v-2.7l15.3-8.8l-1.7-3.4
		l4.9,1.8L327.8,214l-1.3-0.7l1.8-1.1L244,64L73.8,162.2v89.1c-7.9-1.2-14.1-0.5-14.1-0.5s5.6,2.8,10.4,9.6c1.2,1.7,2.4,3.2,3.8,4.8
		v11.2c-3.9,1.7-6.4,3.4-6.4,3.4s2.7-0.1,6.4,1.2v39.2l227.6,49.9l72.8-43.6L360.9,319z M300.5,341.7l-16.9-9.5l9.1-5.3v-7
		l-29.9-17.1l16-9.1l-8-4.6l-15.9,9.2l-9.8-5.6l-15,8.7l-27.8-17.1l48.4-27.7l46.6,26.9l-18.5,10.3l7.9,4.6l18.7-10.1l44,25.4
		L300.5,341.7z"/>
	<g>
		<polygon class="st15" points="234.2,412.3 271.1,420 331.9,384.9 231.1,361.2 		"/>
		<path class="st17" d="M233.9,382.9l-91.8-45.2v19.8v0v0.3l0,0c0.1,1.2,0.7,2.5,2,3.2l87.9,50.5c3.2,1.8,7.1,1.8,10.3,0l9.5-5.5
			l18.9-11.1c1.5-0.8,2.2-2.3,2.2-3.8v-19.8L233.9,382.9z"/>
		<path class="st18" d="M270.9,367.4l-2.7-1.6c-3.4-1.9-7.5-1.9-10.8,0l-20.1,11.7l0,0.1l-69.7-40.1l18.9-11c2.9-1.7,2.9-5.9,0-7.6
			l-2.7-1.6c-3.4-1.9-7.5-1.9-10.8,0l-20.1,11.7l0,0l-8.7,5c-2.6,1.5-2.6,5.4,0,6.9l87.9,50.5c3.2,1.8,7.1,1.8,10.3,0l9.5-5.5
			l18.9-11.1C273.8,373.3,273.8,369,270.9,367.4z"/>
		<polygon class="st14" points="188.6,301 188.6,323.1 168.4,328.5 161.6,312.1 		"/>
		<polygon class="st18" points="188.6,320.2 268.2,365.8 230.7,380.7 159.5,337 		"/>
		<path class="st17" d="M233.9,360.8l-91.8-45.2v19.8c0,0,0,0,0,0v0.3l0,0c0.1,1.2,0.7,2.5,2,3.2l87.9,50.5c3.2,1.8,7.1,1.8,10.3,0
			l9.5-5.5l18.9-11.1c1.5-0.8,2.2-2.3,2.2-3.8v-19.8L233.9,360.8z"/>
		<path class="st45" d="M270.9,394.8c1.5-0.8,2.2-2.3,2.2-3.8v-19.8l-0.8,0.2c0.5-0.7,0.8-1.6,0.8-2.5v-19.8l-14.4,4.3l-16.3,16.1
			v41.9l9.5-5.5L270.9,394.8z"/>
		<path class="st16" d="M270.9,345.3l-2.7-1.6c-3.4-1.9-7.5-1.9-10.8,0l-20.1,11.7l0,0.1l-69.7-40.1l18.9-11c2.9-1.7,2.9-5.9,0-7.6
			l-2.7-1.6c-3.4-1.9-7.5-1.9-10.8,0L152.9,307l0,0l-8.7,5c-2.6,1.5-2.6,5.4,0,6.9l87.9,50.5c3.2,1.8,7.1,1.8,10.3,0l9.5-5.5
			l18.9-11.1C273.8,351.2,273.8,347,270.9,345.3z"/>
	</g>
</g>
</svg>
