<?xml version="1.0" encoding="utf-8"?>
<!-- Generator: Adobe Illustrator 19.0.0, SVG Export Plug-In . SVG Version: 6.00 Build 0)  -->
<svg version="1.1" id="Layer_1" xmlns="http://www.w3.org/2000/svg" xmlns:xlink="http://www.w3.org/1999/xlink" x="0px" y="0px"
	 viewBox="0 0 1400 980" style="enable-background:new 0 0 1400 980;" xml:space="preserve">
<style type="text/css">
	.st0{enable-background:new    ;}
	.st1{fill:#BCBCBC;}
	.st2{fill:#D6D6D6;}
	.st3{fill:#E5E5E5;}
	.st4{fill:#DCDBDB;}
	.st5{fill:#E8B374;}
	.st6{fill:#FDCB87;}
	.st7{fill:#C69360;}
	.st8{fill:#CB996C;}
	.st9{fill:#8E6133;}
	.st10{fill:#89775C;}
	.st11{fill:#BDAA8B;}
	.st12{fill:#A89574;}
	.st13{fill:#CEC1AB;}
	.st14{opacity:0.46;}
	.st15{fill:#FFFFFF;}
	.st16{fill:#B7B7B7;}
	.st17{fill:#CACACA;}
	.st18{fill:#878787;}
</style>
<g class="st0">
	<g>
		<polygon class="st1" points="284.5,615.5 284.6,646.5 650.6,859.2 650.5,828.2 		"/>
	</g>
	<g>
		<polygon class="st2" points="650.5,828.2 650.6,859.2 1019,646.5 1018.9,615.5 		"/>
	</g>
	<g>
		<polygon class="st3" points="284.5,615.5 650.5,828.2 1018.9,615.5 652.9,402.8 		"/>
	</g>
</g>
<g>
	<polygon class="st4" points="730.9,449 730.9,689.5 890.1,689.5 1017.8,615.7 	"/>
</g>
<g>
	<g>
		<g>
			<g class="st0">
				<g>
					<polygon class="st5" points="731.9,236.1 804.7,193.9 803.4,647.6 730.6,689.9 					"/>
				</g>
				<g>
					<polygon class="st6" points="522.9,115.5 595.7,73.2 804.7,193.9 731.9,236.1 					"/>
				</g>
				<g>
					<polygon class="st7" points="731.9,236.1 730.6,689.9 521.7,569.3 522.9,115.5 					"/>
				</g>
			</g>
		</g>
		<polygon class="st8" points="536.5,561.1 536.5,141.4 710.8,242 710.8,661.8 		"/>
		<polygon class="st9" points="623.2,611.2 623.3,191.5 624.1,191.9 624,611.7 		"/>
		<polygon class="st10" points="552.4,543.8 552.4,177 609.9,210.3 609.9,577 		"/>
		<polygon class="st11" points="552.4,543.8 552.4,177 602.2,205.8 602.1,572.6 		"/>
		<g>
			<g>
				<polygon class="st12" points="552.4,273.8 552.4,263.9 609.9,297.1 609.9,307.1 				"/>
				<polygon class="st13" points="552.4,263.9 602.2,235.1 609.9,239.6 609.9,297.1 				"/>
			</g>
			<g>
				<polygon class="st12" points="552.4,372 552.4,362.1 609.9,395.3 609.9,405.2 				"/>
				<polygon class="st13" points="552.4,362.1 602.2,333.3 609.9,337.8 609.9,395.3 				"/>
			</g>
			<g>
				<polygon class="st12" points="552.4,470.1 552.4,460.2 609.9,493.5 609.9,503.4 				"/>
				<polygon class="st13" points="552.4,460.2 602.1,431.5 609.9,436 609.9,493.5 				"/>
			</g>
		</g>
		<polygon class="st10" points="637.4,592.9 637.4,226.1 694.9,259.3 694.9,626.1 		"/>
		<polygon class="st11" points="637.4,592.9 637.4,226.1 687.2,254.8 687.2,621.6 		"/>
		<g>
			<g>
				<polygon class="st12" points="637.4,322.9 637.4,313 694.9,346.2 694.9,356.1 				"/>
				<polygon class="st13" points="637.4,313 687.2,284.2 694.9,288.7 694.9,346.2 				"/>
			</g>
			<g>
				<polygon class="st12" points="637.4,421.1 637.4,411.1 694.9,444.4 694.9,454.3 				"/>
				<polygon class="st13" points="637.4,411.1 687.2,382.4 694.9,386.9 694.9,444.4 				"/>
			</g>
			<g>
				<polygon class="st12" points="637.4,519.2 637.4,509.3 694.9,542.5 694.9,552.5 				"/>
				<polygon class="st13" points="637.4,509.3 687.2,480.6 694.9,485 694.9,542.5 				"/>
			</g>
		</g>
		<g class="st14">
			<polygon class="st15" points="578.1,558.7 593.8,201 599.8,204.4 584.1,562.2 			"/>
			<polygon class="st15" points="563.8,550.4 579.5,192.7 588.3,197.8 572.7,555.5 			"/>
			<polygon class="st15" points="663.2,607.8 678.8,250 684.8,253.5 669.1,611.2 			"/>
			<polygon class="st15" points="648.8,599.5 664.5,241.7 673.4,246.9 657.7,604.6 			"/>
		</g>
	</g>
	<g>
		<g class="st0">
			<g>
				<polygon class="st16" points="613.9,408.7 618.1,406.3 618,431.7 613.8,434.2 				"/>
			</g>
			<g>
				<polygon class="st17" points="610.2,406.6 614.4,404.2 618.1,406.3 613.9,408.7 				"/>
			</g>
			<g>
				<polygon class="st18" points="613.9,408.7 613.8,434.2 610.2,432.1 610.2,406.6 				"/>
			</g>
		</g>
	</g>
	<g>
		<g class="st0">
			<g>
				<polygon class="st16" points="628.5,417.1 632.7,414.7 632.6,440.2 628.4,442.6 				"/>
			</g>
			<g>
				<polygon class="st17" points="624.9,415 629,412.6 632.7,414.7 628.5,417.1 				"/>
			</g>
			<g>
				<polygon class="st18" points="628.5,417.1 628.4,442.6 624.8,440.5 624.9,415 				"/>
			</g>
		</g>
	</g>
</g>
</svg>
