<?xml version="1.0" encoding="utf-8"?>
<!-- Generator: Adobe Illustrator 19.0.0, SVG Export Plug-In . SVG Version: 6.00 Build 0)  -->
<svg version="1.1" xmlns="http://www.w3.org/2000/svg" xmlns:xlink="http://www.w3.org/1999/xlink" x="0px" y="0px"
	 viewBox="0 0 500 500" style="enable-background:new 0 0 500 500;" xml:space="preserve">
<style type="text/css">
	.st0{fill:#9A999E;}
	.st1{fill:#C2C3C9;}
	.st2{fill:#AEADB3;}
	.st3{opacity:0.45;fill:#94DDE6;}
	.st4{opacity:0.51;fill:#FFFFFF;}
</style>
<g id="BACKGROUND">
</g>
<g id="OBJECTS">
	<g id="XMLID_226_">
		<polygon id="XMLID_211_" class="st0" points="334.5,135.3 334.5,341.6 336.9,340.3 336.9,133.9 		"/>
		<polygon id="XMLID_210_" class="st1" points="149.7,135.3 149.7,341.6 147.4,340.3 147.4,133.9 		"/>
		<g id="XMLID_200_">
			<polygon id="XMLID_205_" class="st0" points="116,376.5 242.2,449.1 368.3,375.4 242.2,301.8 			"/>
			<polygon id="XMLID_203_" class="st0" points="368.3,360.2 368.3,375.4 343.9,374.5 			"/>
			<polygon id="XMLID_202_" class="st2" points="116,361.3 242.2,433.9 368.3,360.2 242.2,286.6 			"/>
			<polygon id="XMLID_201_" class="st1" points="116,361.3 116,376.5 242.2,449.1 242.2,433.9 			"/>
		</g>
		<g id="XMLID_194_">
			<polygon id="XMLID_199_" class="st0" points="145,360.9 242.2,416.9 339.3,360.1 242.2,303.4 			"/>
			<polygon id="XMLID_198_" class="st0" points="145,339.1 145,360.9 163.7,349.8 			"/>
			<polygon id="XMLID_197_" class="st0" points="339.3,338.2 339.3,360.1 320.5,349.2 			"/>
			<polygon id="XMLID_196_" class="st2" points="145,339.1 242.2,395 339.3,338.2 242.2,281.6 			"/>
			<polygon id="XMLID_195_" class="st1" points="145,339.1 145,360.9 242.2,416.9 242.2,395 			"/>
		</g>
		<polygon id="XMLID_175_" class="st3" points="145,136.5 145,338.9 242.1,395 339.3,338.9 339.3,135.7 242.2,79.1 		"/>
		<g id="XMLID_184_">
			<polygon id="XMLID_176_" class="st0" points="145,136.5 242.2,192.5 339.3,135.7 242.2,79.1 			"/>
			<polygon id="XMLID_182_" class="st0" points="145,114.7 145,136.5 163.7,125.5 			"/>
			<polygon id="XMLID_183_" class="st0" points="339.3,113.9 339.3,135.7 320.5,124.8 			"/>
			<polygon id="XMLID_181_" class="st2" points="145,114.7 242.2,170.6 339.3,113.9 242.2,57.2 			"/>
			<polygon id="XMLID_180_" class="st1" points="145,114.7 145,136.5 242.2,192.5 242.2,170.6 			"/>
		</g>
		<g id="XMLID_186_">
			<polygon id="XMLID_193_" class="st0" points="164.1,103.4 219.4,135.3 274.7,102.9 219.4,70.7 			"/>
			<polygon id="XMLID_192_" class="st0" points="164.1,91 164.1,103.4 174.7,97.1 			"/>
			<polygon id="XMLID_191_" class="st0" points="274.7,90.5 274.7,102.9 264,96.7 			"/>
			<polygon id="XMLID_190_" class="st2" points="164.1,91 219.4,122.8 274.7,90.5 219.4,58.2 			"/>
			<polygon id="XMLID_188_" class="st1" points="164.1,91 164.1,103.4 219.4,135.3 219.4,122.8 			"/>
		</g>
		<polygon id="XMLID_185_" class="st1" points="242.2,192.5 242.2,395.3 239.8,393.7 239.8,191.1 		"/>
		<polygon id="XMLID_209_" class="st0" points="242.2,192.2 242.2,395.3 244.5,394 244.5,190.8 		"/>
		<polygon id="XMLID_206_" class="st1" points="147.4,135.3 147.4,341.6 145,340.3 145,133.9 		"/>
		<polygon id="XMLID_207_" class="st0" points="336.9,135.3 336.9,341.6 339.3,340.3 339.3,133.9 		"/>
		<polygon id="XMLID_204_" class="st4" points="147.4,137.9 239.8,374.1 239.8,393.7 228.1,386.9 147.4,179.3 		"/>
		<polygon id="XMLID_13_" class="st4" points="184.4,159.2 239.8,300.8 239.8,320.4 239.8,343.5 163.7,147.3 		"/>
		<polygon id="XMLID_208_" class="st0" points="297.9,156.3 297.9,370.2 289.4,368.9 289.4,154.9 		"/>
		<ellipse id="XMLID_225_" class="st0" cx="219.4" cy="90.5" rx="20.1" ry="10.3"/>
		<polygon id="XMLID_212_" class="st0" points="199.3,90.2 199.3,75.2 239.5,75 239.5,91 		"/>
		<ellipse id="XMLID_214_" class="st1" cx="219.4" cy="75" rx="20.1" ry="10.3"/>
	</g>
</g>
<g id="DESIGNED_BY_FREEPIK">
</g>
</svg>
