<?xml version="1.0" encoding="utf-8"?>
<!-- Generator: Adobe Illustrator 19.0.0, SVG Export Plug-In . SVG Version: 6.00 Build 0)  -->
<svg version="1.1" id="Layer_1" xmlns="http://www.w3.org/2000/svg" xmlns:xlink="http://www.w3.org/1999/xlink" x="0px" y="0px"
	 viewBox="0 0 1400 980" style="enable-background:new 0 0 1400 980;" xml:space="preserve">
<style type="text/css">
	.st0{enable-background:new    ;}
	.st1{fill:#2A3038;}
	.st2{fill:#775F40;}
	.st3{fill:#6A6D73;}
	.st4{fill:#4B525E;}
	.st5{fill:#E8B374;}
	.st6{fill:#FECC87;}
	.st7{fill:#C69360;}
	.st8{fill:#DDA86F;}
	.st9{fill:#F29820;}
</style>
<g>
	<g>
		<g>
			<g class="st0">
				<g>
					<polygon class="st1" points="601.4,436.3 581.9,425 581.1,162.6 600.6,174 					"/>
				</g>
				<g>
					<polygon class="st2" points="342.1,323.3 322.5,311.9 322.5,296.9 342,308.2 					"/>
				</g>
				<g>
					<polygon class="st3" points="342,308.2 322.5,296.9 594.2,140 613.7,151.4 					"/>
				</g>
				<g>
					<polygon class="st4" points="613.7,151.4 614.5,428.7 601.4,436.3 600.6,174 342.1,323.3 342,308.2 					"/>
				</g>
			</g>
		</g>
		<g>
			<g class="st0">
				<g>
					<polygon class="st1" points="334.4,540.2 320.3,532 320.2,517 334.3,525.2 					"/>
				</g>
				<g>
					<polygon class="st3" points="334.3,525.2 320.2,517 585.3,363.9 599.4,372.1 					"/>
				</g>
				<g>
					<polygon class="st4" points="599.4,372.1 599.5,387.2 334.4,540.2 334.3,525.2 					"/>
				</g>
			</g>
		</g>
	</g>
	<g>
		<g class="st0">
			<g>
				<polygon class="st4" points="977.4,735.5 993.6,726 993.6,738 977.3,747.5 				"/>
			</g>
			<g>
				<polygon class="st3" points="475.5,445.7 491.8,436.3 993.6,726 977.4,735.5 				"/>
			</g>
			<g>
				<polygon class="st1" points="977.4,735.5 977.3,747.5 475.5,457.7 475.5,445.7 				"/>
			</g>
		</g>
	</g>
	<g>
		<g>
			<g class="st0">
				<g>
					<polygon class="st1" points="1105.7,727.2 1086.2,715.9 1085.4,453.6 1104.9,464.9 					"/>
				</g>
				<g>
					<polygon class="st2" points="846.4,614.2 826.9,602.8 826.8,587.8 846.3,599.1 					"/>
				</g>
				<g>
					<polygon class="st3" points="846.3,599.1 826.8,587.8 1098.5,431 1118,442.3 					"/>
				</g>
				<g>
					<polygon class="st4" points="1118,442.3 1118.8,719.6 1105.7,727.2 1104.9,464.9 846.4,614.2 846.3,599.1 					"/>
				</g>
			</g>
		</g>
		<g>
			<g class="st0">
				<g>
					<polygon class="st1" points="838.7,831.1 824.6,822.9 824.5,807.9 838.6,816.1 					"/>
				</g>
				<g>
					<polygon class="st3" points="838.6,816.1 824.5,807.9 1089.6,654.8 1103.7,663 					"/>
				</g>
				<g>
					<polygon class="st4" points="1103.7,663 1103.8,678.1 838.7,831.1 838.6,816.1 					"/>
				</g>
			</g>
		</g>
	</g>
	<g>
		<g class="st0">
			<g>
				<polygon class="st4" points="316.3,330.7 335.8,319.4 335.1,581.7 315.5,593 				"/>
			</g>
			<g>
				<polygon class="st4" points="826.9,610.4 846.4,599.1 845.6,876.4 826.1,887.8 				"/>
			</g>
			<g>
				<polygon class="st3" points="303.2,308.1 322.8,296.8 846.4,599.1 826.9,610.4 				"/>
			</g>
			<g>
				<polygon class="st1" points="826.9,610.4 826.1,887.8 813,880.2 813.8,617.9 316.3,330.7 315.5,593 302.5,585.5 303.2,308.1 
									"/>
			</g>
		</g>
	</g>
	<g>
		<g class="st0">
			<g>
				<polygon class="st5" points="836.8,608.8 1138.1,433.7 1138.1,448.7 836.8,623.8 				"/>
			</g>
			<g>
				<polygon class="st6" points="294.2,295.5 595.6,120.4 1138.1,433.7 836.8,608.8 				"/>
			</g>
			<g>
				<polygon class="st7" points="836.8,608.8 836.8,623.8 294.2,310.6 294.2,295.5 				"/>
			</g>
		</g>
	</g>
	<polygon class="st7" points="316.3,330.7 316.3,397.4 813.6,684.9 813.8,617.9 	"/>
	<polygon class="st8" points="846.2,681.3 1105.1,535.4 1104.9,468 846.2,618.3 	"/>
	<g>
		<polygon class="st5" points="555.8,477.8 324,344 324,393 555.8,527 		"/>
		<polygon class="st5" points="574.8,488.8 574.8,538 805.9,671.6 806.1,622.3 		"/>
	</g>
	<path class="st9" d="M444.6,420.3c-2.6-1.5-4.7-0.3-4.7,2.7c0,3,2.1,6.6,4.7,8.1c2.6,1.5,4.7,0.3,4.7-2.7
		C449.3,425.4,447.2,421.8,444.6,420.3z"/>
	<path class="st9" d="M689,561c-2.6-1.5-4.7-0.3-4.7,2.7c0,3,2.1,6.6,4.7,8.1c2.6,1.5,4.7,0.3,4.7-2.7
		C693.6,566.1,691.5,562.5,689,561z"/>
</g>
</svg>
