<?xml version="1.0" encoding="utf-8"?>
<!-- Generator: Adobe Illustrator 19.0.0, SVG Export Plug-In . SVG Version: 6.00 Build 0)  -->
<svg version="1.1" xmlns="http://www.w3.org/2000/svg" xmlns:xlink="http://www.w3.org/1999/xlink" x="0px" y="0px"
	 viewBox="0 0 500 500" style="enable-background:new 0 0 500 500;" xml:space="preserve">
<style type="text/css">
	.st0{enable-background:new    ;}
	.st1{fill:#C1BFBF;}
	.st2{fill:#A5A5A5;}
	.st3{fill:#D1D1D1;}
	.st4{fill:#B5B5B5;}
	.st5{fill:#241B2A;}
	.st6{fill:#00B1FD;}
	.st7{fill:#007FFF;}
	.st8{fill:#22273B;}
	.st9{fill:#FFFFFF;}
	.st10{opacity:0.3;}
	.st11{fill:#008FFD;}
</style>
<g id="Objects">
	<g>
		<g class="st0">
			<g>
				<polygon class="st1" points="46.3,302.5 46.4,318.2 231.5,425.8 231.4,410.1 				"/>
			</g>
			<g>
				<polygon class="st2" points="231.4,410.1 231.5,425.8 417.8,318.2 417.7,302.5 				"/>
			</g>
			<g>
				<polygon class="st3" points="46.3,302.5 231.4,410.1 417.7,302.5 232.6,195 				"/>
			</g>
		</g>
	</g>
	<g>
		<polygon class="st4" points="311.8,241 279.9,241 279.9,353.8 329,353.8 417.7,302.5 		"/>
	</g>
	<g>
		<polygon class="st5" points="193.1,310.6 204.2,304.3 198.9,291.5 193.9,294.2 		"/>
		<polygon class="st5" points="250.5,344.7 261.5,338.4 256.3,325.7 251.2,328.3 		"/>
		<path class="st6" d="M281.1,354.2v-24.4l-13-21l-87.2-82.8l-24.3,15.2c-4.5,2.8-7.3,7.8-7.3,13.1v13.3L281.1,354.2z"/>
		<path class="st7" d="M179.5,238c3.8-0.9,7.7-1.8,11.5-2.8l-10-9.1l-24.3,15.2c-0.7,0.4-1.4,0.9-2,1.5
			C162.3,240,171.8,239.8,179.5,238z"/>
		<path class="st8" d="M149.3,253.5L149.3,253.5v9.1l5.3,2.8v-3.1C154.6,258.5,152.6,255.2,149.3,253.5z"/>
		<path class="st6" d="M281.1,354.2v-7l-131.8-79.5l0,0c0,4.3,2.3,8.3,5.9,10.6c0,0,118.5,72.8,121.3,74.5
			C279.5,354.5,281.1,354.2,281.1,354.2z"/>
		<g>
			<path class="st8" d="M238.3,305.6c-9.1-5.3-16.6-1-16.6,9.5c0,10.5,7.5,23.4,16.6,28.7c9.1,5.3,16.6,1,16.6-9.5
				C254.9,323.8,247.4,310.9,238.3,305.6z"/>
			<g>
				<path class="st9" d="M234.6,318.2c0.6,0,1.4,0.3,2.2,0.7c3.6,2.1,6.8,7.5,6.7,11.7c0,1.1-0.2,2.9-1.6,2.9
					c-0.6,0-1.4-0.3-2.2-0.7c-3.6-2.1-6.8-7.5-6.8-11.7c0-1.1,0.2-2,0.6-2.4C233.8,318.5,234.1,318.2,234.6,318.2 M234.6,315.2
					c-2.7,0-4.6,2.2-4.6,5.9c0,5.2,3.7,11.7,8.3,14.3c1.3,0.8,2.6,1.1,3.7,1.1c2.7,0,4.6-2.2,4.6-5.9c0-5.2-3.7-11.7-8.3-14.3
					C237,315.6,235.7,315.2,234.6,315.2L234.6,315.2z"/>
			</g>
		</g>
		<g>
			<path class="st8" d="M180.9,271.5c-9.1-5.3-16.6-1-16.6,9.5c0,10.5,7.5,23.4,16.6,28.7c9.1,5.3,16.6,1,16.6-9.5
				C197.5,289.7,190.1,276.8,180.9,271.5z"/>
			<g>
				<path class="st9" d="M177.3,284.1c0.6,0,1.4,0.3,2.2,0.7c3.6,2.1,6.8,7.5,6.7,11.7c0,1.1-0.2,2.9-1.6,2.9
					c-0.6,0-1.4-0.3-2.2-0.7c-3.6-2.1-6.8-7.5-6.8-11.7c0-1.1,0.2-2,0.6-2.4C176.5,284.3,176.7,284.1,177.3,284.1 M177.3,281.1
					c-2.7,0-4.6,2.2-4.6,5.9c0,5.2,3.7,11.7,8.3,14.3c1.3,0.8,2.6,1.1,3.7,1.1c2.7,0,4.6-2.2,4.6-5.9c0-5.2-3.7-11.7-8.3-14.3
					C179.6,281.5,178.4,281.1,177.3,281.1L177.3,281.1z"/>
			</g>
		</g>
		<path class="st6" d="M318.2,287.1l-21.9-55.9c-3.3-8.4-9.3-15.4-17-19.9L253,195.7c-8.8-5.2-19.7-5.3-28.6-0.3l-32.7,18.4
			c-10.5,5.9-18,15.9-20.9,27.6l-2.1,8.5l94.2,61L318.2,287.1z"/>
		<path class="st8" d="M242.4,287.7l-17.2-31.4l-27.8-16.1c-6.9-4-15.6-2.8-21.1,2.9l7.3,14.6l54.5,34
			C240.7,293.5,243.9,290.5,242.4,287.7z M220.2,257.2"/>
		<path class="st10" d="M199.2,241.3l-1.9-1.1c-6.9-4-15.6-2.8-21.1,2.9l7.3,14.6l22.7,14.2C201.8,262.2,199.2,251.8,199.2,241.3z"
			/>
		<path class="st11" d="M294,226.4c-3.5-6.3-8.5-11.5-14.7-15.2L253,195.7c-8.8-5.2-19.7-5.3-28.6-0.3l-32.7,18.4
			c-4.5,2.5-8.4,5.8-11.7,9.7l52,30C231.9,253.5,269.2,237.8,294,226.4z"/>
		<polygon class="st7" points="231.9,253.5 291.5,222.4 323.6,274.9 261.5,304 		"/>
		<path class="st8" d="M245.7,253.1l40.5-20.7c2.4-1.2,5.3-0.4,6.7,1.9l27.9,45.8l-49.4,30.2l-27.8-50.2
			C242.1,257.6,243.1,254.5,245.7,253.1z"/>
		<path class="st10" d="M292.9,234.3c-1.4-2.3-4.3-3.1-6.7-1.9l-13.1,6.7c0,0.3,0.1,0.6,0.1,0.9c0.3,15.4-7.3,29.8-18.9,39.4
			l17.1,30.9l49.4-30.2L292.9,234.3z"/>
		<path d="M255.6,279.2c0.3-0.5,0.5-1.1,0.8-1.6c-0.7,0.7-1.4,1.3-2.2,1.9l0.7,1.2C255.1,280.2,255.4,279.7,255.6,279.2z"/>
		<path d="M292.9,234.3c-1.4-2.3-4.3-3.1-6.7-1.9l-2.6,1.3c1.9,9.1,3.6,18.3,3.7,27.6c0.1,10.8-2.5,21-7,30.7
			c-2.7,5.8-6.2,11.2-10.2,16.2l1.2,2.1l49.4-30.2L292.9,234.3z"/>
		<path class="st7" d="M261.1,303.4l59.6-33.1l14.6,18.4c2.3,2.7,3.7,6,4,9.5l0,17.3c0,3.3-1.7,6.4-4.6,8c0,0-47,27.8-49.9,29.3
			c-2.2,1.2-3.8,1.3-3.8,1.3v-17.8c0-4.2-1.6-8.3-4.4-11.5L261.1,303.4z"/>
		<g>
			<path class="st9" d="M339.1,296.3l-1.9,1.2c-3.8,2.4-6.8,5.9-8.7,10l-0.9,2l-0.1,8.8l6-3.5c4-2.3,6.4-6.7,6.2-11.3
				C339.7,303.6,339.7,298.4,339.1,296.3z"/>
			<polygon class="st8" points="327.6,309.6 298.2,326.6 298.2,335.6 327.6,318.4 			"/>
			<g>
				<g>
					<path class="st9" d="M278.5,330.6c1.8,5.7,7.7,9.3,13.6,7.8c0.6-0.1,1.1-0.3,1.5-0.5l4.6-2.5l0-8.7l0,0
						c-6.3-2.4-13.1-3.2-19.7-2.1l-1.7,0.3L278.5,330.6z"/>
				</g>
				<g>
					<path class="st9" d="M278.5,330.6c1.8,5.7,7.7,9.3,13.6,7.8c0.6-0.1,1.1-0.3,1.5-0.5l4.6-2.5l0-8.7l0,0
						c-6.3-2.4-13.1-3.2-19.7-2.1l-1.7,0.3L278.5,330.6z"/>
				</g>
			</g>
		</g>
	</g>
</g>
<g id="Designed_by_Freepik">
</g>
</svg>
