<?xml version="1.0" encoding="utf-8"?>
<!-- Generator: Adobe Illustrator 19.0.0, SVG Export Plug-In . SVG Version: 6.00 Build 0)  -->
<svg version="1.1" xmlns="http://www.w3.org/2000/svg" xmlns:xlink="http://www.w3.org/1999/xlink" x="0px" y="0px"
	 viewBox="0 0 500 500" style="enable-background:new 0 0 500 500;" xml:space="preserve">
<style type="text/css">
	.st0{display:none;}
	.st1{display:inline;fill:#78EFEC;}
	.st2{fill:#D7ECF4;}
	.st3{fill:#AFD1DB;}
	.st4{fill:#88C5D3;}
	.st5{fill:#9AE1E8;}
	.st6{fill:#4CBCD6;}
	.st7{opacity:0.51;fill:#E0E0E0;}
	.st8{fill:#FF6E86;}
	.st9{fill:#EF526C;}
	.st10{fill:#FFFFFF;}
	.st11{fill:#E5A067;}
	.st12{fill:#FFDE9C;}
	.st13{fill:#8C5466;}
	.st14{fill:#836B99;}
	.st15{fill:#D1D1D1;}
	.st16{fill:#DDDDDD;}
	.st17{fill:#E8D9FF;}
	.st18{fill:#B399CE;}
	.st19{fill:#D1BCED;}
	.st20{fill:#91607C;}
	.st21{fill:#FCBEEA;}
	.st22{fill:#DD94C1;}
	.st23{fill:#EFABD9;}
	.st24{fill:#D8B979;}
	.st25{fill:#C48758;}
	.st26{fill:#D88666;}
	.st27{fill:#EA987F;}
	.st28{fill:#F9B5A5;}
	.st29{fill:#C4964D;}
	.st30{fill:#E0C46C;}
	.st31{fill:#B78946;}
	.st32{fill:#C6A74F;}
	.st33{fill:#DDBDE5;}
	.st34{fill:#DB4B6D;}
	.st35{fill:#9CE2F2;}
	.st36{fill:#69BACC;}
	.st37{fill:#77C3DB;}
	.st38{fill:#BCBCBC;}
	.st39{fill:#7AD6E5;}
	.st40{fill:#4C6970;}
	.st41{fill:#365459;}
	.st42{fill:none;stroke:#777777;stroke-width:0.331;stroke-linecap:round;stroke-miterlimit:10;}
	.st43{fill:#828282;}
	.st44{fill:#BC576A;}
	.st45{fill:#E59AA6;}
	.st46{fill:#D3D3D3;}
	.st47{fill:#E5E5E5;}
	.st48{fill:#F4BDCE;}
	.st49{fill:#359EAF;}
	.st50{fill:#D17C9B;}
	.st51{fill:#D7F9FF;}
	.st52{fill:#D692AA;}
	.st53{fill:#5DC1B7;}
	.st54{fill:#78DDD5;}
	.st55{fill:#549690;}
	.st56{fill:#BA5B31;}
	.st57{fill:#CE6B3A;}
	.st58{fill:#F79C74;}
</style>
<g id="BACKGROUND" class="st0">
	<rect class="st1" width="500" height="500"/>
</g>
<g id="OBJECTS">
	<g>
		<g>
			<polygon class="st2" points="215.8,405.1 21.3,292.8 282,142.2 476.5,254.4 			"/>
			<polygon class="st3" points="215.8,405.1 215.8,407.5 21.3,295.2 21.3,292.8 			"/>
			<polygon class="st4" points="215.8,407.5 476.5,256.8 476.5,254.4 215.8,405.1 			"/>
		</g>
		<g>
			<path class="st5" d="M424.8,235.1l-12.1-7c-3.5-1.2-8.3,1.5-11.3,6.5c-3.1,5.3-3,11.2,0.2,13.4l10.4,6
				c7.9,4.6,17.8-1.1,17.8-10.3C429.8,240.2,427.9,236.8,424.8,235.1z"/>
			<path class="st6" d="M397.3,219.2c-7.8-4.5-17.6,1.2-17.6,10.2l0,0c0,3.7,2,7.2,5.2,9l16.7,9.6c-3.2-2.2-3.3-8.1-0.2-13.4
				c3-5,7.8-7.7,11.3-6.5L397.3,219.2z"/>
			<path class="st7" d="M391.8,221.5l30.3,17.6c2.3,1.3,3.7,4,3.4,6c0,0,0.7-5.9-3.4-8.4c-4.1-2.5-29.9-17.4-29.9-17.4
				S390.7,219.6,391.8,221.5z"/>
		</g>
		<g>
			<g>
				<path class="st8" d="M278.3,114.9l-30.1-17.3l0,0c-2.5-1.8-5.8-2.2-8.8-0.4l-98.4,56.8c-7,4-11.3,11.5-11.3,19.6v72
					c0,3,1.6,5.5,3.9,6.8l30.4,17.5l3-5.5v-26.9l73.1-42.2c7.2-4.1,11.6-11.8,11.6-20.1v-42.5L278.3,114.9z"/>
				<path class="st9" d="M171.4,171.5l98.4-56.8c5.4-3.1,12.2,0.8,12.2,7.1v71.1c0,8.3-4.4,15.9-11.6,20.1l-98.7,57
					c-5.2,3-11.7-0.8-11.7-6.8v-72C160.1,183.1,164.4,175.6,171.4,171.5z"/>
			</g>
			<polygon class="st10" points="253.2,169.2 234.3,180.3 234.3,159.2 220.2,167.4 220.2,188.5 201.3,199.6 201.3,215.3 
				220.2,204.3 220.2,225.4 234.3,217.2 234.3,196 253.2,185 			"/>
			<g>
				<g>
					<path class="st11" d="M181.8,153.4c3,0,5.4-1.6,5.3-3.5l0-10.1l-10.8,0.2l0,10.1C176.4,152,178.9,153.5,181.8,153.4z"/>
					
						<ellipse transform="matrix(-1.603699e-002 -0.9999 0.9999 -1.603699e-002 44.7697 323.9385)" class="st12" cx="181.8" cy="139.9" rx="3.4" ry="5.4"/>
				</g>
				<g>
					<path class="st11" d="M230.6,125.3c3,0,5.4-1.6,5.3-3.5l0-10.1l-10.8,0.2l0,10.1C225.2,123.9,227.7,125.4,230.6,125.3z"/>
					
						<ellipse transform="matrix(-1.603699e-002 -0.9999 0.9999 -1.603699e-002 122.4813 344.1623)" class="st12" cx="230.6" cy="111.8" rx="3.4" ry="5.4"/>
				</g>
				<g>
					<path class="st13" d="M181.8,142.5c-2.6,0-4.7-2.1-4.7-4.7V128c0-9.5,5.1-18.3,13.3-23.1L217.9,89c3.6-2.1,7.9-2.1,11.6,0
						c3.6,2.1,5.8,5.8,5.8,10v10.6c0,2.6-2.1,4.7-4.7,4.7c-2.6,0-4.7-2.1-4.7-4.7V99c0-1.1-0.7-1.6-1.1-1.9c-0.4-0.2-1.2-0.5-2.2,0
						L195.1,113c-5.3,3.1-8.6,8.8-8.6,14.9v9.8C186.5,140.3,184.4,142.5,181.8,142.5z"/>
				</g>
			</g>
			<g>
				<path class="st11" d="M163.6,166.5c4.9-0.1,8.8-2.7,8.7-5.8l0-1.1l-17.7,0.4l0,1C154.7,164.2,158.7,166.6,163.6,166.5z"/>
				
					<ellipse transform="matrix(-1.603347e-002 -0.9999 0.9999 -1.603347e-002 6.2605 325.8837)" class="st12" cx="163.5" cy="159.9" rx="5.6" ry="8.8"/>
			</g>
			<g>
				<path class="st11" d="M247.7,117.6c4.9-0.1,8.8-2.7,8.7-5.8l0-1.1l-17.7,0.4l0,1C238.8,115.2,242.8,117.7,247.7,117.6z"/>
				
					<ellipse transform="matrix(-1.603361e-002 -0.9999 0.9999 -1.603361e-002 140.6691 360.2755)" class="st12" cx="247.6" cy="110.9" rx="5.6" ry="8.8"/>
			</g>
		</g>
		<g>
			<g>
				<path class="st14" d="M304.8,221.5c8.8-0.1,15.8-4.8,15.7-10.4l0-36.5l-31.7,0.7l0,36.3C288.9,217.3,296.1,221.7,304.8,221.5z"
					/>
				
					<ellipse transform="matrix(-1.603362e-002 -0.9999 0.9999 -1.603362e-002 134.4533 482.5637)" class="st15" cx="304.7" cy="175.1" rx="10.1" ry="15.8"/>
			</g>
			<g>
				<path class="st16" d="M320.5,182.5L320.5,182.5L320.5,182.5C320.5,182.5,320.5,182.5,320.5,182.5z"/>
				<path class="st17" d="M320.5,182.9c-0.1,5.5-7.1,10-15.7,10.1c-3.8,0.1-7.3-0.7-10-2.1v20.9c2.8,1.4,6.2,2.2,10,2.1
					c8.8-0.1,15.8-4.8,15.7-10.4L320.5,182.9z"/>
			</g>
			<g>
				<path class="st18" d="M304.8,187.7c9.3-0.1,16.8-5.1,16.7-11.1l0-10l-33.8,0.7l0,9.8C287.9,183.2,295.5,187.9,304.8,187.7z"/>
				
					<ellipse transform="matrix(-1.603343e-002 -0.9999 0.9999 -1.603343e-002 142.4448 474.4427)" class="st19" cx="304.7" cy="167.1" rx="10.8" ry="16.9"/>
				
					<ellipse transform="matrix(-1.603086e-002 -0.9999 0.9999 -1.603086e-002 142.444 474.4423)" class="st18" cx="304.7" cy="167.1" rx="9.3" ry="14.5"/>
				<path class="st14" d="M304.5,158.5c7.9-0.1,14.4,3.8,14.6,8.8c0-0.1,0-0.3,0-0.5c-0.1-5.1-6.6-9.2-14.7-9s-14.4,4.4-14.4,9.5
					c0,0.1,0,0.1,0,0.2C290.5,162.6,296.7,158.6,304.5,158.5z"/>
			</g>
		</g>
		<g>
			<g>
				<path class="st20" d="M285.9,242.3c5-0.1,9-2.7,8.9-5.9l0-28.9l-18,0.4l0,28.8C276.9,239.9,281,242.4,285.9,242.3z"/>
				
					<ellipse transform="matrix(-1.603087e-002 -0.9999 0.9999 -1.603087e-002 82.6362 496.9459)" class="st15" cx="285.8" cy="207.8" rx="5.8" ry="9"/>
			</g>
			<g>
				<path class="st16" d="M294.8,212L294.8,212L294.8,212C294.8,212,294.8,212,294.8,212z"/>
				<path class="st21" d="M294.8,212.2c-0.1,3.1-4,5.7-8.9,5.8c-2.2,0-4.1-0.4-5.7-1.2V238c1.6,0.8,3.5,1.2,5.7,1.2
					c5-0.1,9-2.7,8.9-5.9L294.8,212.2z"/>
			</g>
			<g>
				<path class="st22" d="M285.9,215c5.3-0.1,9.6-2.9,9.5-6.3l0-5.7l-19.2,0.4l0,5.6C276.3,212.4,280.6,215.1,285.9,215z"/>
				
					<ellipse transform="matrix(-1.603440e-002 -0.9999 0.9999 -1.603440e-002 87.1814 492.3289)" class="st23" cx="285.8" cy="203.3" rx="6.1" ry="9.6"/>
				
					<ellipse transform="matrix(-1.603534e-002 -0.9999 0.9999 -1.603534e-002 87.1817 492.329)" class="st22" cx="285.8" cy="203.3" rx="5.3" ry="8.3"/>
				<path class="st20" d="M285.8,198.4c4.5-0.1,8.2,2.2,8.3,5c0-0.1,0-0.2,0-0.3c0-2.9-3.8-5.2-8.3-5.1c-4.6,0.1-8.2,2.5-8.2,5.4
					c0,0,0,0.1,0,0.1C277.8,200.7,281.3,198.4,285.8,198.4z"/>
			</g>
		</g>
		<g>
			<path class="st24" d="M358.6,199.5C358.6,199.5,358.6,199.4,358.6,199.5c0-0.1,0-0.1,0-0.2l0-0.1l0,0c-0.2-3.7-3.4-6.9-8.2-8.5
				c-0.8-1.9-1.4-3.9-1.4-6.1c-4.2,0-8.3,0-12.5,0c0,2.3-0.6,4.3-1.5,6.3c-4.9,1.8-8.2,5.2-8.1,9l0,22.1c0.1,5.6,7.3,10,16,9.9
				c8.8-0.1,15.8-4.8,15.7-10.4L358.6,199.5z"/>
			<g>
				<path class="st16" d="M358.6,201.1L358.6,201.1L358.6,201.1C358.6,201,358.6,201.1,358.6,201.1z"/>
				<path class="st25" d="M358.6,201.4c-0.1,5.5-7.1,10-15.7,10.1c-3.8,0.1-7.3-0.7-10-2.1v14.7c2.8,1.4,6.2,2.2,10,2.1
					c8.8-0.1,15.8-4.8,15.7-10.4L358.6,201.4z"/>
			</g>
			<g>
				<path class="st26" d="M342.8,194.2c6.4-0.1,11.5-3.5,11.5-7.6l0-6.9l-23.1,0.5l0,6.7C331.2,191.1,336.4,194.3,342.8,194.2z"/>
				
					<ellipse transform="matrix(-1.603071e-002 -0.9999 0.9999 -1.603071e-002 168.1705 525.6243)" class="st27" cx="342.7" cy="180.1" rx="7.4" ry="11.6"/>
				
					<ellipse transform="matrix(-1.603807e-002 -0.9999 0.9999 -1.603807e-002 168.173 525.6255)" class="st28" cx="342.7" cy="180.1" rx="6.4" ry="10"/>
				<path class="st26" d="M342.6,174.1c5.4-0.1,9.9,2.6,10,6.1c0-0.1,0-0.2,0-0.3c-0.1-3.5-4.6-6.3-10.1-6.2c-5.5,0.1-9.9,3-9.8,6.5
					c0,0,0,0.1,0,0.1C333,177,337.3,174.2,342.6,174.1z"/>
			</g>
		</g>
		<g>
			<g>
				<path class="st29" d="M116.2,262.8L116.2,262.8c7.9-4.6,17.6-4.6,25.5,0l80.2,46.3c5,2.9,5,10.2,0,13.1l0,0
					c-8,4.6-17.8,4.6-25.7,0l-80-46.1C111.1,273.1,111.1,265.8,116.2,262.8z"/>
				<path class="st30" d="M116.2,261.5L116.2,261.5c7.9-4.6,17.6-4.6,25.5,0l80.2,46.3c5,2.9,5,10.2,0,13.1h0
					c-8,4.6-17.8,4.6-25.7,0l-80-46.1C111.1,271.7,111.1,264.4,116.2,261.5z"/>
			</g>
			<path class="st31" d="M191.6,290.3L191.6,290.3l0-0.8l-0.1,0l-0.1,0.2c-0.1-0.2-0.3-0.3-0.5-0.5l-19.8-11.4
				c-1.5-0.9-3.3-0.9-4.8,0l-19.1,11c-0.3,0.2-0.6,0.5-0.7,0.8l-0.2-0.1v0.9l0,0c0,0.6,0.3,1.2,0.9,1.5l18.7,10.8c1.7,1,3.9,1,5.6,0
				l19.3-11.1C191.5,291.3,191.7,290.8,191.6,290.3z"/>
			<path class="st32" d="M147.3,288l19.1-11c1.5-0.9,3.3-0.9,4.8,0l19.8,11.4c0.9,0.5,0.9,1.8,0,2.3l-19.3,11.1c-1.7,1-3.9,1-5.6,0
				l-18.7-10.8C146.1,290.4,146.1,288.7,147.3,288z"/>
			<g>
				<g>
					<g>
						
							<ellipse transform="matrix(-1.604376e-002 -0.9999 0.9999 -1.604376e-002 -123.8762 489.2861)" class="st32" cx="178.8" cy="305.6" rx="1.5" ry="2.3"/>
						<path class="st31" d="M178.8,304.4c1.2,0,2.2,0.6,2.3,1.3c0,0,0-0.1,0-0.1c0-0.8-1.1-1.5-2.4-1.5c-1.3,0-2.3,0.7-2.3,1.5
							c0,0,0,0.1,0,0.1C176.6,305,177.6,304.4,178.8,304.4z"/>
					</g>
					<g>
						
							<ellipse transform="matrix(-1.604430e-002 -0.9999 0.9999 -1.604430e-002 -115.1706 491.5513)" class="st32" cx="184.3" cy="302.4" rx="1.5" ry="2.3"/>
						<path class="st31" d="M184.3,301.2c1.2,0,2.2,0.6,2.3,1.3c0,0,0-0.1,0-0.1c0-0.8-1.1-1.5-2.4-1.5c-1.3,0-2.3,0.7-2.3,1.5
							c0,0,0,0.1,0,0.1C182.1,301.8,183,301.2,184.3,301.2z"/>
					</g>
					<g>
						
							<ellipse transform="matrix(-1.601081e-002 -0.9999 0.9999 -1.601081e-002 -106.4717 493.8064)" class="st32" cx="189.7" cy="299.3" rx="1.5" ry="2.3"/>
						<path class="st31" d="M189.7,298.1c1.2,0,2.2,0.6,2.3,1.3c0,0,0-0.1,0-0.1c0-0.8-1.1-1.5-2.4-1.5c-1.3,0-2.3,0.7-2.3,1.5
							c0,0,0,0.1,0,0.1C187.5,298.7,188.5,298.1,189.7,298.1z"/>
					</g>
					<g>
						
							<ellipse transform="matrix(-1.604430e-002 -0.9999 0.9999 -1.604430e-002 -97.7599 496.0813)" class="st32" cx="195.2" cy="296.1" rx="1.5" ry="2.3"/>
						<path class="st31" d="M195.2,294.9c1.2,0,2.2,0.6,2.3,1.3c0,0,0-0.1,0-0.1c0-0.8-1.1-1.5-2.4-1.5c-1.3,0-2.3,0.7-2.3,1.5
							c0,0,0,0.1,0,0.1C193,295.5,194,294.9,195.2,294.9z"/>
					</g>
				</g>
				<g>
					<g>
						
							<ellipse transform="matrix(-1.604430e-002 -0.9999 0.9999 -1.604430e-002 -120.9466 500.278)" class="st32" cx="185.7" cy="309.6" rx="1.5" ry="2.3"/>
						<path class="st31" d="M185.7,308.4c1.2,0,2.2,0.6,2.3,1.3c0,0,0-0.1,0-0.1c0-0.8-1.1-1.5-2.4-1.5c-1.3,0-2.3,0.7-2.3,1.5
							c0,0,0,0.1,0,0.1C183.5,309,184.4,308.4,185.7,308.4z"/>
					</g>
					<g>
						
							<ellipse transform="matrix(-1.601081e-002 -0.9999 0.9999 -1.601081e-002 -112.2478 502.5328)" class="st32" cx="191.2" cy="306.5" rx="1.5" ry="2.3"/>
						<path class="st31" d="M191.1,305.3c1.2,0,2.2,0.6,2.3,1.3c0,0,0-0.1,0-0.1c0-0.8-1.1-1.5-2.4-1.5c-1.3,0-2.3,0.7-2.3,1.5
							c0,0,0,0.1,0,0.1C188.9,305.9,189.9,305.3,191.1,305.3z"/>
					</g>
					<g>
						
							<ellipse transform="matrix(-1.604430e-002 -0.9999 0.9999 -1.604430e-002 -103.5358 504.8079)" class="st32" cx="196.6" cy="303.3" rx="1.5" ry="2.3"/>
						<path class="st31" d="M196.6,302.1c1.2,0,2.2,0.6,2.3,1.3c0,0,0-0.1,0-0.1c0-0.8-1.1-1.5-2.4-1.5c-1.3,0-2.3,0.7-2.3,1.5
							c0,0,0,0.1,0,0.1C194.4,302.7,195.4,302.1,196.6,302.1z"/>
					</g>
					<g>
						
							<ellipse transform="matrix(-1.601081e-002 -0.9999 0.9999 -1.601081e-002 -94.8373 507.063)" class="st32" cx="202.1" cy="300.2" rx="1.5" ry="2.3"/>
						<path class="st31" d="M202.1,299c1.2,0,2.2,0.6,2.3,1.3c0,0,0-0.1,0-0.1c0-0.8-1.1-1.5-2.4-1.5c-1.3,0-2.3,0.7-2.3,1.5
							c0,0,0,0.1,0,0.1C199.9,299.6,200.8,299,202.1,299z"/>
					</g>
				</g>
				<g>
					<g>
						
							<ellipse transform="matrix(-1.601081e-002 -0.9999 0.9999 -1.601081e-002 -118.0238 511.2592)" class="st32" cx="192.6" cy="313.7" rx="1.5" ry="2.3"/>
						<path class="st31" d="M192.5,312.5c1.2,0,2.2,0.6,2.3,1.3c0,0,0-0.1,0-0.1c0-0.8-1.1-1.5-2.4-1.5c-1.3,0-2.3,0.7-2.3,1.5
							c0,0,0,0.1,0,0.1C190.3,313.1,191.3,312.5,192.5,312.5z"/>
					</g>
					<g>
						
							<ellipse transform="matrix(-1.604430e-002 -0.9999 0.9999 -1.604430e-002 -109.3118 513.5346)" class="st32" cx="198" cy="310.6" rx="1.5" ry="2.3"/>
						<path class="st31" d="M198,309.3c1.2,0,2.2,0.6,2.3,1.3c0,0,0-0.1,0-0.1c0-0.8-1.1-1.5-2.4-1.5c-1.3,0-2.3,0.7-2.3,1.5
							c0,0,0,0.1,0,0.1C195.8,309.9,196.8,309.3,198,309.3z"/>
					</g>
					<g>
						
							<ellipse transform="matrix(-1.604430e-002 -0.9999 0.9999 -1.604430e-002 -100.6064 515.7997)" class="st32" cx="203.5" cy="307.4" rx="1.5" ry="2.3"/>
						<path class="st31" d="M203.5,306.2c1.2,0,2.2,0.6,2.3,1.3c0,0,0-0.1,0-0.1c0-0.8-1.1-1.5-2.4-1.5c-1.3,0-2.3,0.7-2.3,1.5
							c0,0,0,0.1,0,0.1C201.3,306.8,202.3,306.2,203.5,306.2z"/>
					</g>
					<g>
						
							<ellipse transform="matrix(-1.601081e-002 -0.9999 0.9999 -1.601081e-002 -91.9082 518.0546)" class="st32" cx="209" cy="304.3" rx="1.5" ry="2.3"/>
						<path class="st31" d="M208.9,303c1.2,0,2.2,0.6,2.3,1.3c0,0,0-0.1,0-0.1c0-0.8-1.1-1.5-2.4-1.5c-1.3,0-2.3,0.7-2.3,1.5
							c0,0,0,0.1,0,0.1C206.7,303.6,207.7,303,208.9,303z"/>
					</g>
				</g>
				<g>
					<g>
						
							<ellipse transform="matrix(-1.604376e-002 -0.9999 0.9999 -1.604376e-002 -114.8062 522.5383)" class="st32" cx="199.7" cy="317.8" rx="1.5" ry="2.3"/>
						<path class="st31" d="M199.7,316.5c1.2,0,2.2,0.6,2.3,1.3c0,0,0-0.1,0-0.1c0-0.8-1.1-1.5-2.4-1.5c-1.3,0-2.3,0.7-2.3,1.5
							c0,0,0,0.1,0,0.1C197.5,317.1,198.5,316.5,199.7,316.5z"/>
					</g>
					<g>
						
							<ellipse transform="matrix(-1.601081e-002 -0.9999 0.9999 -1.601081e-002 -106.1077 524.793)" class="st32" cx="205.2" cy="314.6" rx="1.5" ry="2.3"/>
						<path class="st31" d="M205.2,313.4c1.2,0,2.2,0.6,2.3,1.3c0,0,0-0.1,0-0.1c0-0.8-1.1-1.5-2.4-1.5c-1.3,0-2.3,0.7-2.3,1.5
							c0,0,0,0.1,0,0.1C203,314,203.9,313.4,205.2,313.4z"/>
					</g>
					<g>
						
							<ellipse transform="matrix(-1.604430e-002 -0.9999 0.9999 -1.604430e-002 -97.3953 527.0684)" class="st32" cx="210.6" cy="311.5" rx="1.5" ry="2.3"/>
						<path class="st31" d="M210.6,310.2c1.2,0,2.2,0.6,2.3,1.3c0,0,0-0.1,0-0.1c0-0.8-1.1-1.5-2.4-1.5c-1.3,0-2.3,0.7-2.3,1.5
							c0,0,0,0.1,0,0.1C208.4,310.8,209.4,310.2,210.6,310.2z"/>
					</g>
					<g>
						
							<ellipse transform="matrix(-1.601081e-002 -0.9999 0.9999 -1.601081e-002 -88.6974 529.3232)" class="st32" cx="216.1" cy="308.3" rx="1.5" ry="2.3"/>
						<path class="st31" d="M216.1,307.1c1.2,0,2.2,0.6,2.3,1.3c0,0,0-0.1,0-0.1c0-0.8-1.1-1.5-2.4-1.5c-1.3,0-2.3,0.7-2.3,1.5
							c0,0,0,0.1,0,0.1C213.9,307.7,214.9,307.1,216.1,307.1z"/>
					</g>
				</g>
			</g>
			<g>
				<g>
					<g>
						
							<ellipse transform="matrix(-1.604430e-002 -0.9999 0.9999 -1.604430e-002 -148.9931 400.0705)" class="st32" cx="122.4" cy="273.3" rx="1.5" ry="2.3"/>
						<path class="st31" d="M122.3,272.1c1.2,0,2.2,0.6,2.3,1.3c0,0,0-0.1,0-0.1c0-0.8-1.1-1.5-2.4-1.5c-1.3,0-2.3,0.7-2.3,1.5
							c0,0,0,0.1,0,0.1C120.1,272.7,121.1,272.1,122.3,272.1z"/>
					</g>
					<g>
						
							<ellipse transform="matrix(-1.601081e-002 -0.9999 0.9999 -1.601081e-002 -140.2922 402.3265)" class="st32" cx="127.8" cy="270.2" rx="1.5" ry="2.3"/>
						<path class="st31" d="M127.8,269c1.2,0,2.2,0.6,2.3,1.3c0,0,0-0.1,0-0.1c0-0.8-1.1-1.5-2.4-1.5c-1.3,0-2.3,0.7-2.3,1.5
							c0,0,0,0.1,0,0.1C125.6,269.6,126.6,269,127.8,269z"/>
					</g>
					<g>
						
							<ellipse transform="matrix(-1.604430e-002 -0.9999 0.9999 -1.604430e-002 -131.5824 404.6005)" class="st32" cx="133.3" cy="267" rx="1.5" ry="2.3"/>
						<path class="st31" d="M133.3,265.8c1.2,0,2.2,0.6,2.3,1.3c0,0,0-0.1,0-0.1c0-0.8-1.1-1.5-2.4-1.5c-1.3,0-2.3,0.7-2.3,1.5
							c0,0,0,0.1,0,0.1C131.1,266.4,132,265.8,133.3,265.8z"/>
					</g>
					<g>
						
							<ellipse transform="matrix(-1.604430e-002 -0.9999 0.9999 -1.604430e-002 -122.877 406.8655)" class="st32" cx="138.8" cy="263.9" rx="1.5" ry="2.3"/>
						<path class="st31" d="M138.7,262.7c1.2,0,2.2,0.6,2.3,1.3c0,0,0-0.1,0-0.1c0-0.8-1.1-1.5-2.4-1.5c-1.3,0-2.3,0.7-2.3,1.5
							c0,0,0,0.1,0,0.1C136.5,263.3,137.5,262.7,138.7,262.7z"/>
					</g>
				</g>
				<g>
					<g>
						
							<ellipse transform="matrix(-1.601081e-002 -0.9999 0.9999 -1.601081e-002 -146.0683 411.053)" class="st32" cx="129.2" cy="277.4" rx="1.5" ry="2.3"/>
						<path class="st31" d="M129.2,276.2c1.2,0,2.2,0.6,2.3,1.3c0,0,0-0.1,0-0.1c0-0.8-1.1-1.5-2.4-1.5c-1.3,0-2.3,0.7-2.3,1.5
							c0,0,0,0.1,0,0.1C127,276.8,128,276.2,129.2,276.2z"/>
					</g>
					<g>
						
							<ellipse transform="matrix(-1.604376e-002 -0.9999 0.9999 -1.604376e-002 -137.3585 413.327)" class="st32" cx="134.7" cy="274.2" rx="1.5" ry="2.3"/>
						<path class="st31" d="M134.7,273c1.2,0,2.2,0.6,2.3,1.3c0,0,0-0.1,0-0.1c0-0.8-1.1-1.5-2.4-1.5c-1.3,0-2.3,0.7-2.3,1.5
							c0,0,0,0.1,0,0.1C132.5,273.6,133.5,273,134.7,273z"/>
					</g>
					<g>
						
							<ellipse transform="matrix(-1.604430e-002 -0.9999 0.9999 -1.604430e-002 -128.6529 415.5921)" class="st32" cx="140.2" cy="271.1" rx="1.5" ry="2.3"/>
						<path class="st31" d="M140.1,269.9c1.2,0,2.2,0.6,2.3,1.3c0,0,0-0.1,0-0.1c0-0.8-1.1-1.5-2.4-1.5c-1.3,0-2.3,0.7-2.3,1.5
							c0,0,0,0.1,0,0.1C137.9,270.5,138.9,269.9,140.1,269.9z"/>
					</g>
					<g>
						
							<ellipse transform="matrix(-1.601081e-002 -0.9999 0.9999 -1.601081e-002 -119.9526 417.8482)" class="st32" cx="145.6" cy="267.9" rx="1.5" ry="2.3"/>
						<path class="st31" d="M145.6,266.7c1.2,0,2.2,0.6,2.3,1.3c0,0,0-0.1,0-0.1c0-0.8-1.1-1.5-2.4-1.5c-1.3,0-2.3,0.7-2.3,1.5
							c0,0,0,0.1,0,0.1C143.4,267.3,144.4,266.7,145.6,266.7z"/>
					</g>
				</g>
				<g>
					<g>
						
							<ellipse transform="matrix(-1.601081e-002 -0.9999 0.9999 -1.601081e-002 -143.139 422.0445)" class="st32" cx="136.1" cy="281.5" rx="1.5" ry="2.3"/>
						<path class="st31" d="M136.1,280.2c1.2,0,2.2,0.6,2.3,1.3c0,0,0-0.1,0-0.1c0-0.8-1.1-1.5-2.4-1.5c-1.3,0-2.3,0.7-2.3,1.5
							c0,0,0,0.1,0,0.1C133.9,280.8,134.9,280.2,136.1,280.2z"/>
					</g>
					<g>
						
							<ellipse transform="matrix(-1.604430e-002 -0.9999 0.9999 -1.604430e-002 -134.429 424.3189)" class="st32" cx="141.6" cy="278.3" rx="1.5" ry="2.3"/>
						<path class="st31" d="M141.5,277.1c1.2,0,2.2,0.6,2.3,1.3c0,0,0-0.1,0-0.1c0-0.8-1.1-1.5-2.4-1.5c-1.3,0-2.3,0.7-2.3,1.5
							c0,0,0,0.1,0,0.1C139.3,277.7,140.3,277.1,141.5,277.1z"/>
					</g>
					<g>
						
							<ellipse transform="matrix(-1.601081e-002 -0.9999 0.9999 -1.601081e-002 -125.7287 426.5747)" class="st32" cx="147" cy="275.2" rx="1.5" ry="2.3"/>
						<path class="st31" d="M147,273.9c1.2,0,2.2,0.6,2.3,1.3c0,0,0-0.1,0-0.1c0-0.8-1.1-1.5-2.4-1.5s-2.3,0.7-2.3,1.5
							c0,0,0,0.1,0,0.1C144.8,274.5,145.8,273.9,147,273.9z"/>
					</g>
					<g>
						
							<ellipse transform="matrix(-1.604430e-002 -0.9999 0.9999 -1.604430e-002 -117.0181 428.8488)" class="st32" cx="152.5" cy="272" rx="1.5" ry="2.3"/>
						<path class="st31" d="M152.5,270.8c1.2,0,2.2,0.6,2.3,1.3c0,0,0-0.1,0-0.1c0-0.8-1.1-1.5-2.4-1.5c-1.3,0-2.3,0.7-2.3,1.5
							c0,0,0,0.1,0,0.1C150.3,271.4,151.3,270.8,152.5,270.8z"/>
					</g>
				</g>
				<g>
					<g>
						
							<ellipse transform="matrix(-1.601081e-002 -0.9999 0.9999 -1.601081e-002 -139.9282 433.3131)" class="st32" cx="143.3" cy="285.5" rx="1.5" ry="2.3"/>
						<path class="st31" d="M143.2,284.3c1.2,0,2.2,0.6,2.3,1.3c0,0,0-0.1,0-0.1c0-0.8-1.1-1.5-2.4-1.5c-1.3,0-2.3,0.7-2.3,1.5
							c0,0,0,0.1,0,0.1C141,284.9,142,284.3,143.2,284.3z"/>
					</g>
					<g>
						
							<ellipse transform="matrix(-1.604430e-002 -0.9999 0.9999 -1.604430e-002 -131.2179 435.5876)" class="st32" cx="148.7" cy="282.4" rx="1.5" ry="2.3"/>
						<path class="st31" d="M148.7,281.1c1.2,0,2.2,0.6,2.3,1.3c0,0,0-0.1,0-0.1c0-0.8-1.1-1.5-2.4-1.5c-1.3,0-2.3,0.7-2.3,1.5
							c0,0,0,0.1,0,0.1C146.5,281.7,147.5,281.1,148.7,281.1z"/>
					</g>
					<g>
						
							<ellipse transform="matrix(-1.604430e-002 -0.9999 0.9999 -1.604430e-002 -122.5125 437.8526)" class="st32" cx="154.2" cy="279.2" rx="1.5" ry="2.3"/>
						<path class="st31" d="M154.2,278c1.2,0,2.2,0.6,2.3,1.3c0,0,0-0.1,0-0.1c0-0.8-1.1-1.5-2.4-1.5c-1.3,0-2.3,0.7-2.3,1.5
							c0,0,0,0.1,0,0.1C152,278.6,152.9,278,154.2,278z"/>
					</g>
					<g>
						
							<ellipse transform="matrix(-1.601081e-002 -0.9999 0.9999 -1.601081e-002 -113.8126 440.1085)" class="st32" cx="159.7" cy="276.1" rx="1.5" ry="2.3"/>
						<path class="st31" d="M159.6,274.8c1.2,0,2.2,0.6,2.3,1.3c0,0,0-0.1,0-0.1c0-0.8-1.1-1.5-2.4-1.5c-1.3,0-2.3,0.7-2.3,1.5
							c0,0,0,0.1,0,0.1C157.4,275.4,158.4,274.8,159.6,274.8z"/>
					</g>
				</g>
			</g>
		</g>
		<g>
			<path class="st33" d="M391.8,240.6l-12.1-7c-3.5-1.2-8.3,1.5-11.3,6.5c-3.1,5.3-3,11.2,0.2,13.4l10.4,6
				c7.9,4.6,17.8-1.1,17.8-10.3C396.8,245.7,394.9,242.4,391.8,240.6z"/>
			<path class="st34" d="M364.2,224.7c-7.8-4.5-17.6,1.2-17.6,10.2l0,0c0,3.7,2,7.2,5.2,9l16.7,9.6c-3.2-2.2-3.3-8.1-0.2-13.4
				c3-5,7.8-7.7,11.3-6.5L364.2,224.7z"/>
			<path class="st7" d="M358.8,227.1l30.3,17.6c2.3,1.3,3.7,4,3.4,6c0,0,0.7-5.9-3.4-8.4C385,240,359.1,225,359.1,225
				S357.6,225.2,358.8,227.1z"/>
		</g>
		<g>
			<g>
				<path class="st35" d="M348.4,249c-2.1-3.5-5.5-5.2-7.7-3.9l-1.2,0.7l7.5,12.5l1.1-0.7C350.4,256.3,350.5,252.5,348.4,249z"/>
				
					<ellipse transform="matrix(-0.86 0.5103 -0.5103 -0.86 767.1547 293.646)" class="st36" cx="343.3" cy="252.1" rx="4.7" ry="7.3"/>
			</g>
			<g>
				<path class="st37" d="M345.8,250.5c-1.2-1.9-3.1-2.9-4.4-2.2l-38.2,22l4.2,7l38.1-22C346.9,254.6,347,252.5,345.8,250.5z"/>
				
					<ellipse transform="matrix(-0.86 0.5103 -0.5103 -0.86 707.8027 353.4604)" class="st38" cx="305.4" cy="273.8" rx="2.6" ry="4.1"/>
			</g>
			<g>
				<path class="st35" d="M333.1,268.7v-0.5c0,0-10.6-10.7-26.4-15.2l-1.9,1.1c0,0,15.6,9.5,26.2,15.4L333.1,268.7z"/>
				<path class="st36" d="M304.9,254c15.8,4.6,26.4,15.2,26.4,15.2v8.3c-16.5-4.1-26.4-15.2-26.4-15.2V254z"/>
				<polygon class="st39" points="331.3,269.3 333.1,268.2 333.1,276.5 331.3,277.6 				"/>
			</g>
			<g>
				<path class="st35" d="M321.5,263.9c-1.9-3.2-5.1-4.8-7.2-3.6l-1.7,1l7,11.6l1.6-0.9C323.2,270.7,323.4,267.1,321.5,263.9z"/>
				
					<ellipse transform="matrix(-0.86 0.5103 -0.5103 -0.86 724.2222 335.3171)" class="st36" cx="316.1" cy="267" rx="4.3" ry="6.8"/>
			</g>
			<g>
				<path class="st37" d="M319.3,265.2c-1.7-2.9-4.5-4.3-6.4-3.2l-55.9,32.2l6.2,10.3l55.8-32.2C320.9,271.2,321,268,319.3,265.2z"
					/>
				
					<ellipse transform="matrix(-0.86 0.5103 -0.5103 -0.86 636.6785 423.9423)" class="st38" cx="260.2" cy="299.3" rx="3.8" ry="6"/>
			</g>
			<g>
				<path class="st40" d="M269,294.2c-1.7-2.9-4.5-4.3-6.4-3.2l-5.6,3.2l6.2,10.3l5.5-3.2C270.6,300.2,270.7,297,269,294.2z"/>
				
					<ellipse transform="matrix(-0.86 0.5103 -0.5103 -0.86 636.6785 423.9423)" class="st41" cx="260.2" cy="299.3" rx="3.8" ry="6"/>
			</g>
			<g>
				<path class="st37" d="M262.6,298c-1.3-2.3-3.6-3.4-5-2.5l-7.2,4.1l4.9,8.2l7.1-4.1C263.9,302.7,263.9,300.2,262.6,298z"/>
				
					<ellipse transform="matrix(-0.86 0.5103 -0.5103 -0.86 625.2636 435.5903)" class="st36" cx="252.9" cy="303.6" rx="3" ry="4.8"/>
			</g>
			<line class="st42" x1="253.1" y1="303.5" x2="235.8" y2="313.5"/>
			<g>
				<path class="st43" d="M271.6,292.5c-0.1-0.1-0.1-0.2-0.2-0.3c-1.3-2.2-3.3-3.5-5-3.5l-1.2,0.7c0,0,0.1,0,0.1,0
					c1.6-1,4.2,0.4,5.8,3c0.1,0.1,0.1,0.2,0.2,0.3c0,0.1,0.1,0.1,0.2,0.1c0,0,0.1,0,0.1,0C271.7,292.7,271.7,292.6,271.6,292.5z"/>
				<path class="st43" d="M279.5,288c-0.1-0.1-0.1-0.2-0.2-0.3c-1.3-2.2-3.3-3.5-5-3.5l-1.2,0.7c0,0,0.1,0,0.1,0
					c1.6-1,4.2,0.4,5.8,3c0.1,0.1,0.1,0.2,0.2,0.3c0,0.1,0.1,0.1,0.2,0.1c0,0,0.1,0,0.1,0C279.5,288.2,279.5,288.1,279.5,288z"/>
				<path class="st43" d="M287.3,283.5c-0.1-0.1-0.1-0.2-0.2-0.3c-1.3-2.2-3.3-3.5-5-3.5l-1.2,0.7c0,0,0.1,0,0.1,0
					c1.6-1,4.2,0.4,5.8,3c0.1,0.1,0.1,0.2,0.2,0.3c0,0.1,0.1,0.1,0.2,0.1c0,0,0.1,0,0.1,0C287.3,283.7,287.3,283.6,287.3,283.5z"/>
				<path class="st43" d="M295.1,279c-0.1-0.1-0.1-0.2-0.2-0.3c-1.3-2.2-3.3-3.5-5-3.5l-1.2,0.7c0,0,0.1,0,0.1,0
					c1.6-1,4.2,0.4,5.8,3c0.1,0.1,0.1,0.2,0.2,0.3c0,0.1,0.1,0.1,0.2,0.1c0,0,0.1,0,0.1,0C295.1,279.2,295.2,279.1,295.1,279z"/>
				<path class="st43" d="M302.9,274.5c-0.1-0.1-0.1-0.2-0.2-0.3c-1.3-2.2-3.3-3.5-5-3.5l-1.2,0.7c0,0,0.1,0,0.1,0
					c1.6-1,4.2,0.4,5.8,3c0.1,0.1,0.1,0.2,0.2,0.3c0,0.1,0.1,0.1,0.2,0.1c0,0,0.1,0,0.1,0C303,274.7,303,274.6,302.9,274.5z"/>
				<path class="st43" d="M310.8,269.9c-0.1-0.1-0.1-0.2-0.2-0.3c-1.3-2.2-3.3-3.5-5-3.5l-1.2,0.7c0,0,0.1,0,0.1,0
					c1.6-1,4.2,0.4,5.8,3c0.1,0.1,0.1,0.2,0.2,0.3c0,0.1,0.1,0.1,0.2,0.1c0,0,0.1,0,0.1,0C310.8,270.1,310.8,270,310.8,269.9z"/>
			</g>
		</g>
		<g>
			<path class="st44" d="M82.1,297.3l24.7-14.3c2.4-1.4,5.4-1.4,7.9,0l56.6,32.7c2.6,1.5,2.6,5.2,0,6.7L149.4,335
				c-3.4,2-7.7,2-11.1,0l-56.3-32.5C80.1,301.4,80.1,298.5,82.1,297.3z"/>
			<path class="st45" d="M82.1,296.1l24.7-14.3c2.4-1.4,5.4-1.4,7.9,0l56.6,32.7c2.6,1.5,2.6,5.2,0,6.7l-21.8,12.6
				c-3.4,2-7.7,2-11.1,0l-56.3-32.5C80.1,300.1,80.1,297.2,82.1,296.1z"/>
			<g>
				<g>
					<path class="st46" d="M95.3,302.3c3.6-0.1,6.6-2,6.5-4.3l0-1.8l-13.2,0.3l0,1.8C88.7,300.5,91.6,302.3,95.3,302.3z"/>
					
						<ellipse transform="matrix(-1.603330e-002 -0.9999 0.9999 -1.603330e-002 -199.5131 396.256)" class="st47" cx="95.2" cy="296.3" rx="4.2" ry="6.6"/>
				</g>
				<g>
					<path class="st46" d="M111,293.2c3.6-0.1,6.6-2,6.5-4.3l0-1.8l-13.2,0.3l0,1.8C104.4,291.4,107.4,293.3,111,293.2z"/>
					
						<ellipse transform="matrix(-1.603311e-002 -0.9999 0.9999 -1.603311e-002 -174.4787 402.7683)" class="st47" cx="110.9" cy="287.2" rx="4.2" ry="6.6"/>
				</g>
			</g>
			<g>
				<g>
					<path class="st46" d="M112,311.9c3.6-0.1,6.6-2,6.5-4.3l0-1.8l-13.2,0.3l0,1.8C105.4,310.1,108.4,312,112,311.9z"/>
					
						<ellipse transform="matrix(-1.603311e-002 -0.9999 0.9999 -1.603311e-002 -192.1418 422.7812)" class="st47" cx="112" cy="305.9" rx="4.2" ry="6.6"/>
				</g>
				<g>
					<path class="st46" d="M127.7,302.9c3.6-0.1,6.6-2,6.5-4.3l0-1.8l-13.2,0.3l0,1.8C121.1,301.1,124.1,302.9,127.7,302.9z"/>
					
						<ellipse transform="matrix(-1.603311e-002 -0.9999 0.9999 -1.603311e-002 -167.1073 429.2935)" class="st47" cx="127.7" cy="296.9" rx="4.2" ry="6.6"/>
				</g>
			</g>
			<g>
				<g>
					<path class="st46" d="M128.8,321.6c3.6-0.1,6.6-2,6.5-4.3l0-1.8l-13.2,0.3l0,1.8C122.1,319.8,125.1,321.6,128.8,321.6z"/>
					
						<ellipse transform="matrix(-1.603330e-002 -0.9999 0.9999 -1.603330e-002 -184.7704 449.3064)" class="st47" cx="128.7" cy="315.6" rx="4.2" ry="6.6"/>
				</g>
				<g>
					<path class="st46" d="M144.5,312.5c3.6-0.1,6.6-2,6.5-4.3l0-1.8l-13.2,0.3l0,1.8C137.9,310.7,140.8,312.6,144.5,312.5z"/>
					
						<ellipse transform="matrix(-1.603311e-002 -0.9999 0.9999 -1.603311e-002 -159.736 455.8187)" class="st47" cx="144.4" cy="306.5" rx="4.2" ry="6.6"/>
				</g>
			</g>
			<g>
				<g>
					<path class="st46" d="M145.5,331.2c3.6-0.1,6.6-2,6.5-4.3l0-1.8l-13.2,0.3l0,1.8C138.9,329.4,141.9,331.3,145.5,331.2z"/>
					
						<ellipse transform="matrix(-1.603311e-002 -0.9999 0.9999 -1.603311e-002 -177.3991 475.8315)" class="st47" cx="145.4" cy="325.2" rx="4.2" ry="6.6"/>
				</g>
				<g>
					<path class="st46" d="M161.2,322.1c3.6-0.1,6.6-2,6.5-4.3l0-1.8l-13.2,0.3l0,1.8C154.6,320.3,157.6,322.2,161.2,322.1z"/>
					
						<ellipse transform="matrix(-1.603311e-002 -0.9999 0.9999 -1.603311e-002 -152.3646 482.3438)" class="st47" cx="161.2" cy="316.1" rx="4.2" ry="6.6"/>
				</g>
			</g>
		</g>
		<g>
			<path class="st48" d="M329.6,304.1c0.2-1.5-0.6-2.9-1.2-3.3l-17.1-10.5l-59.5,34.4c-16,9.3-10.1,13.3-40.7,32
				c-1.4,0.9,2.4,5.2,3,4.9c22.3-14.1,44.8-21.1,54.2-23.6c3.3-0.9,6.4-2.2,9.3-3.9L329.6,304.1L329.6,304.1z"/>
			<path class="st49" d="M334.1,287.1L334.1,287.1c-5.3-3.1-11.8-3.1-17.1,0l-5.6,3.2l17.1,10.5c0.6,0.4,1.3,1.8,1.2,3.3l0,0
				l4.5-2.6C339.7,298.3,339.7,290.3,334.1,287.1z"/>
			
				<ellipse transform="matrix(-0.86 0.5103 -0.5103 -0.86 578.88 559.4911)" class="st50" cx="212.7" cy="359.2" rx="1.8" ry="2.9"/>
			<path class="st51" d="M300.5,302.5l7.8,4.5c1.3,0.7,2.9,0.7,4.2,0l3.5-2c1.1-0.6,1.1-2.2,0-2.8l-7.8-4.5c-1.1-0.6-2.5-0.6-3.6,0
				l-4.1,2.4C299.6,300.6,299.6,302,300.5,302.5z"/>
			<path class="st52" d="M300.5,300.9l4.1-2.4c1.1-0.6,2.5-0.6,3.6,0l7.8,4.5c0.4,0.2,0.6,0.6,0.7,1c0.2-0.7-0.1-1.4-0.7-1.8
				l-7.8-4.5c-1.1-0.6-2.5-0.6-3.6,0l-4.1,2.4c-0.6,0.4-0.8,1-0.6,1.6C300,301.4,300.2,301.1,300.5,300.9z"/>
		</g>
		<g>
			<path class="st53" d="M257,242.2c4-0.1,7.2-2.2,7.2-4.7l0-2l-14.5,0.3l0,1.9C249.7,240.2,253,242.3,257,242.2z"/>
			
				<ellipse transform="matrix(-1.603026e-002 -0.9999 0.9999 -1.603026e-002 25.4189 496.2856)" class="st54" cx="256.9" cy="235.6" rx="4.6" ry="7.2"/>
			<path class="st55" d="M249.7,235.8c0,0.1,0,0.2,0,0.4h14.4c0-0.2,0.1-0.4,0.1-0.6c0,0,0-0.1,0-0.1h-14.5
				C249.7,235.5,249.7,235.6,249.7,235.8z"/>
		</g>
		<g>
			<path class="st53" d="M254.6,254c4-0.1,7.2-2.2,7.2-4.7l0-2l-14.5,0.3l0,1.9C247.3,252.1,250.6,254.1,254.6,254z"/>
			
				<ellipse transform="matrix(-1.603009e-002 -0.9999 0.9999 -1.603009e-002 11.1371 505.8963)" class="st54" cx="254.5" cy="247.5" rx="4.6" ry="7.2"/>
			<path class="st55" d="M247.3,247.6c0,0.1,0,0.2,0,0.4h14.4c0-0.2,0.1-0.4,0.1-0.6c0,0,0-0.1,0-0.1h-14.5
				C247.3,247.3,247.2,247.5,247.3,247.6z"/>
		</g>
		<g>
			<path class="st53" d="M235.8,249.2c4-0.1,7.2-2.2,7.2-4.7l0-2l-14.5,0.3l0,1.9C228.6,247.2,231.8,249.2,235.8,249.2z"/>
			
				<ellipse transform="matrix(-1.603009e-002 -0.9999 0.9999 -1.603009e-002 -3.0381 482.2338)" class="st54" cx="235.8" cy="242.6" rx="4.6" ry="7.2"/>
			<path class="st55" d="M228.5,242.7c0,0.1,0,0.2,0,0.4H243c0-0.2,0.1-0.4,0.1-0.6c0,0,0-0.1,0-0.1h-14.5
				C228.5,242.5,228.5,242.6,228.5,242.7z"/>
		</g>
		<g>
			<path class="st53" d="M263.6,265.9c4-0.1,7.2-2.2,7.2-4.7l0-2l-14.5,0.3l0,1.9C256.4,263.9,259.6,265.9,263.6,265.9z"/>
			
				<ellipse transform="matrix(-1.603026e-002 -0.9999 0.9999 -1.603026e-002 8.5105 526.9767)" class="st54" cx="263.6" cy="259.3" rx="4.6" ry="7.2"/>
			<path class="st55" d="M256.3,259.4c0,0.1,0,0.2,0,0.4h14.4c0-0.2,0.1-0.4,0.1-0.6c0,0,0-0.1,0-0.1h-14.5
				C256.3,259.2,256.3,259.3,256.3,259.4z"/>
		</g>
		<g>
			<path class="st53" d="M273.2,253.9c4-0.1,7.2-2.2,7.2-4.7l0-2l-14.5,0.3l0,1.9C265.9,252,269.2,254,273.2,253.9z"/>
			
				<ellipse transform="matrix(-1.603009e-002 -0.9999 0.9999 -1.603009e-002 30.1343 524.396)" class="st54" cx="273.1" cy="247.4" rx="4.6" ry="7.2"/>
			<path class="st55" d="M265.9,247.5c0,0.1,0,0.2,0,0.4h14.4c0-0.2,0.1-0.4,0.1-0.6c0,0,0-0.1,0-0.1h-14.5
				C265.9,247.2,265.9,247.4,265.9,247.5z"/>
		</g>
		<g>
			<path class="st56" d="M213,257.9c0,0-11.5,8-12.6,16.4v17.6c0,0,7.3-13.6,12.6-13.2V257.9z"/>
			<path class="st57" d="M225.4,288.8c8.5-0.1,15.3-4.7,15.2-10.1l0-15.4l-30.8,0.7l0,15.3C209.9,284.7,216.9,288.9,225.4,288.8z"/>
			
				<ellipse transform="matrix(-1.603104e-002 -0.9999 0.9999 -1.603104e-002 -34.8809 493.1162)" class="st58" cx="225.2" cy="263.7" rx="9.8" ry="15.4"/>
			
				<ellipse transform="matrix(-1.602987e-002 -0.9999 0.9999 -1.602987e-002 -34.8811 493.1158)" class="st56" cx="225.2" cy="263.7" rx="4.6" ry="7.2"/>
		</g>
	</g>
</g>
<g id="DESIGNED_BY_FREEPIK">
</g>
</svg>
