<?xml version="1.0" encoding="utf-8"?>
<!-- Generator: Adobe Illustrator 19.0.0, SVG Export Plug-In . SVG Version: 6.00 Build 0)  -->
<svg version="1.1" id="OBJECTS" xmlns="http://www.w3.org/2000/svg" xmlns:xlink="http://www.w3.org/1999/xlink" x="0px" y="0px"
	 viewBox="0 0 500 500" style="enable-background:new 0 0 500 500;" xml:space="preserve">
<style type="text/css">
	.st0{fill:#5B5B5B;}
	.st1{fill:#7C7C7C;}
	.st2{fill:#CCCCCC;}
	.st3{fill:#AF3910;}
	.st4{fill:#B0B0B0;}
	.st5{fill:#EFEFEF;}
	.st6{fill:#E2E2E2;}
	.st7{fill:url(#SVGID_1_);}
	.st8{fill:#FFFFFF;}
	.st9{fill:#D1D1D1;}
</style>
<g>
	<g>
		<g>
			<path class="st0" d="M310.7,302.1v-99.2l14.6-8.5c0,0,1.8,65,9.3,90.3c0.5,1.8-0.2,3.8-1.9,4.8L310.7,302.1z"/>
			<polygon class="st1" points="310.7,302.1 293.2,291.9 293.2,192.7 310.7,202.8 			"/>
			<polygon class="st2" points="293.2,192.7 307.7,184.2 325.3,194.3 310.7,202.8 			"/>
		</g>
		<g>
			<path class="st3" d="M341.3,167.9c-9.6-16.1-25.7-24.2-36-18.1L224,196.4l35,58.1l81-46.3C350.3,202.1,350.8,184,341.3,167.9z"/>
			
				<ellipse transform="matrix(-0.86 0.5103 -0.5103 -0.86 564.4411 295.7795)" class="st4" cx="241.6" cy="225.3" rx="21.7" ry="33.9"/>
		</g>
		<g>
			<path class="st5" d="M323,177.4c-10.6-17.9-28.5-26.9-39.9-20.1l-11.9,6.8c-36.6,21-78.7,30.5-120.8,27.3h0l77.4,134.3l41.3-56.6
				c14-19.2,31.8-35.2,52.4-47l0,0C333,215.3,333.6,195.3,323,177.4z"/>
		</g>
		
			<ellipse transform="matrix(-0.86 0.5103 -0.5103 -0.86 471.7099 396.1273)" class="st3" cx="181.5" cy="262.8" rx="50.3" ry="78.7"/>
		
			<ellipse transform="matrix(-0.86 0.5103 -0.5103 -0.86 471.0923 396.7676)" class="st6" cx="181.1" cy="263" rx="46.4" ry="72.5"/>
		<linearGradient id="SVGID_1_" gradientUnits="userSpaceOnUse" x1="181.2653" y1="270.8065" x2="219.2878" y2="232.784">
			<stop  offset="0" style="stop-color:#941800"/>
			<stop  offset="1" style="stop-color:#941800;stop-opacity:0.8"/>
		</linearGradient>
		<path class="st7" d="M221,239.4c-6.6-11-14.5-20.3-23.1-27.4l-26.8,33.2l2.2,8.1l16.8,26.3l41.4-16.7
			C229,255.1,225.6,247.1,221,239.4z"/>
		
			<ellipse transform="matrix(-0.86 0.5103 -0.5103 -0.86 470.6313 395.0869)" class="st8" cx="181.1" cy="262.1" rx="12.6" ry="19.7"/>
		
			<ellipse transform="matrix(-0.86 0.5103 -0.5103 -0.86 470.0157 395.7232)" class="st9" cx="180.7" cy="262.3" rx="10.2" ry="16"/>
		
			<ellipse transform="matrix(-0.86 0.5103 -0.5103 -0.86 469.0511 395.9899)" class="st8" cx="180.2" cy="262.3" rx="5.3" ry="8.3"/>
	</g>
</g>
</svg>
