<?xml version="1.0" encoding="utf-8"?>
<!-- Generator: Adobe Illustrator 19.0.0, SVG Export Plug-In . SVG Version: 6.00 Build 0)  -->
<svg version="1.1" id="Objects" xmlns="http://www.w3.org/2000/svg" xmlns:xlink="http://www.w3.org/1999/xlink" x="0px" y="0px"
	 viewBox="0 0 500 500" style="enable-background:new 0 0 500 500;" xml:space="preserve">
<style type="text/css">
	.st0{enable-background:new    ;}
	.st1{fill:#86AE32;}
	.st2{fill:#658226;}
	.st3{fill:#93BF37;}
	.st4{fill:#FFEED4;}
	.st5{fill:#AAD63E;}
	.st6{fill:#9FCBD2;}
	.st7{fill:#E1D0C7;}
	.st8{fill:#D1837D;}
	.st9{fill:#4C3B41;}
	.st10{fill:#A9D2EE;}
	.st11{fill:#B8E2FF;}
	.st12{fill:#AFB6B8;}
	.st13{fill:#FFFFFF;}
	.st14{fill:#E7E7E7;}
	.st15{fill:#36272C;}
	.st16{fill:#F7AD69;}
	.st17{fill:#DB975C;}
	.st18{fill:#FFC480;}
	.st19{fill:#A4A2A5;}
	.st20{fill:#EDE7E9;}
	.st21{fill:#8A888B;}
	.st22{fill:#C7C3C6;}
	.st23{fill:#8FBB46;}
	.st24{fill:#FFFFFE;}
	.st25{fill:#EDECEB;}
	.st26{fill:#DEDFE0;}
	.st27{fill:#E2A06A;}
	.st28{fill:#FFCC99;}
	.st29{fill:#F4B882;}
	.st30{fill:#DCDDDE;}
	.st31{fill:#BC4D3C;}
	.st32{fill:#8A3627;}
	.st33{fill:#A14131;}
	.st34{fill:#B98197;}
	.st35{fill:#C5C3C3;}
	.st36{fill:#260B09;}
	.st37{fill:#67BC58;}
	.st38{fill:#509344;}
	.st39{fill:#71CC60;}
</style>
<g>
	<g class="st0">
		<g>
			<polygon class="st1" points="69.4,293.8 69.5,309.5 254.6,417 254.6,401.3 			"/>
		</g>
		<g>
			<polygon class="st2" points="254.6,401.3 254.6,417 441,309.5 440.9,293.8 			"/>
		</g>
		<g>
			<polygon class="st3" points="69.4,293.8 254.6,401.3 440.9,293.8 255.8,186.2 			"/>
		</g>
	</g>
	<polygon class="st4" points="394.2,292.4 254.4,211.2 130.1,282.9 192.9,319.4 153,342.4 197.5,368.2 237.4,345.2 269.9,364.1 	"/>
	<g>
		<path class="st5" d="M103,287.2c0,3.4,2.8,6.2,6.2,6.2C109.2,290,106.4,287.2,103,287.2z"/>
		<path class="st5" d="M115,288.5c0,2.7-2.2,4.9-4.9,4.9C110.1,290.7,112.3,288.5,115,288.5z"/>
	</g>
	<g>
		<path class="st5" d="M133.4,312.2c0,3.4,2.8,6.2,6.2,6.2C139.6,315,136.8,312.2,133.4,312.2z"/>
		<path class="st5" d="M145.4,313.6c0,2.7-2.2,4.9-4.9,4.9C140.5,315.7,142.7,313.6,145.4,313.6z"/>
	</g>
	<g>
		<path class="st5" d="M370.1,309.1c0,3.4,2.8,6.2,6.2,6.2C376.3,311.9,373.5,309.1,370.1,309.1z"/>
		<path class="st5" d="M382.1,310.5c0,2.7-2.2,4.9-4.9,4.9C377.2,312.6,379.4,310.5,382.1,310.5z"/>
	</g>
	<g>
		<path class="st5" d="M378.3,270.6c0,3.4,2.8,6.2,6.2,6.2C384.5,273.3,381.8,270.6,378.3,270.6z"/>
		<path class="st5" d="M390.4,271.9c0,2.7-2.2,4.9-4.9,4.9C385.5,274.1,387.7,271.9,390.4,271.9z"/>
	</g>
	<g>
		<path class="st5" d="M285.8,363c0,3.4,2.8,6.2,6.2,6.2C292,365.8,289.2,363,285.8,363z"/>
		<path class="st5" d="M297.8,364.4c0,2.7-2.2,4.9-4.9,4.9C292.9,366.6,295.1,364.4,297.8,364.4z"/>
	</g>
	<g>
		<path class="st5" d="M136.9,255.1c0,3.4,2.8,6.2,6.2,6.2C143.2,257.9,140.4,255.1,136.9,255.1z"/>
		<path class="st5" d="M149,256.4c0,2.7-2.2,4.9-4.9,4.9C144.1,258.6,146.3,256.4,149,256.4z"/>
	</g>
	<g>
		<path class="st5" d="M227.1,368.2c0,3.4,2.8,6.2,6.2,6.2C233.3,371,230.5,368.2,227.1,368.2z"/>
		<path class="st5" d="M239.1,369.5c0,2.7-2.2,4.9-4.9,4.9C234.2,371.7,236.4,369.5,239.1,369.5z"/>
	</g>
	<g>
		<g>
			<g>
				<g>
					<polygon class="st6" points="292,223.3 363.5,181.7 363.4,280.4 291.8,322 					"/>
				</g>
			</g>
			<g>
				<polygon class="st6" points="185.5,161.8 257,120.2 363.5,181.7 292,223.3 				"/>
			</g>
			<g>
				<g>
					<polygon class="st7" points="292,223.3 291.8,322 185.3,260.5 185.5,161.8 					"/>
				</g>
			</g>
		</g>
		<g class="st0">
			<g>
				<polygon class="st8" points="171.8,169.7 185.5,161.8 240.5,193.6 226.8,201.5 				"/>
			</g>
			<g>
				<g>
					<polygon class="st9" points="226.8,201.5 226.7,300.3 171.6,268.5 171.8,169.7 					"/>
				</g>
			</g>
		</g>
		<g>
			<polygon class="st10" points="219.1,255.9 181.5,234.2 181.5,184.2 219.2,206 			"/>
			<polygon class="st11" points="219.2,206 219.2,206.8 205.2,247.9 200.9,245.4 215.2,203.7 			"/>
			<polygon class="st11" points="199.4,194.5 185.2,236.3 181.5,234.2 181.5,231.9 195.2,192.1 			"/>
			<g>
				<polygon class="st12" points="176.4,180.8 178.7,179.5 178.7,236.2 176.4,237.5 				"/>
			</g>
			<g>
				<polygon class="st13" points="176.4,237.5 178.7,236.2 222,261.2 219.7,262.6 				"/>
			</g>
			<g>
				<polygon class="st12" points="179.1,183.4 182.3,181.5 182.2,234.2 179,236 				"/>
			</g>
			<g>
				<polygon class="st13" points="179,236 182.2,234.2 221.6,256.9 218.4,258.8 				"/>
			</g>
			<g>
				<polygon class="st14" points="219.9,205.3 223.2,203.5 223.1,259.4 219.9,261.3 				"/>
			</g>
			<g>
				<polygon class="st13" points="177.6,180.9 180.8,179 223.2,203.5 219.9,205.3 				"/>
			</g>
			<g>
				<g>
					<polygon class="st12" points="198.1,194.6 201.3,192.7 201.3,245.2 198,247 					"/>
				</g>
				<polygon class="st14" points="198,247 195.8,245.7 195.8,193 198.1,194.3 				"/>
			</g>
			<g>
				<path class="st14" d="M177.6,180.9l42.3,24.4l-0.1,56l-42.3-24.4L177.6,180.9z M218.4,258.8l0.1-52.6l-39.4-22.8L179,236
					L218.4,258.8"/>
			</g>
			<g>
				<polygon class="st12" points="221.5,204.8 223.8,203.5 223.7,264.3 221.4,265.6 				"/>
			</g>
			<g>
				<polygon class="st13" points="174.7,177.8 177,176.4 223.8,203.5 221.5,204.8 				"/>
			</g>
			<g>
				<path class="st14" d="M174.7,177.8l46.8,27.1l-0.1,60.8l-46.8-27.1L174.7,177.8z M219.7,262.6l0.1-56.7l-43.3-25l-0.1,56.7
					L219.7,262.6"/>
			</g>
		</g>
		<g class="st0">
			<polygon class="st15" points="226.8,201.5 226.7,285.7 213.2,293.5 213,308.2 226.7,300.3 226.7,300.3 240.3,292.3 240.5,193.6 
							"/>
			<g>
				<polygon class="st8" points="158.1,261.7 171.8,253.8 226.8,285.6 213.2,293.5 				"/>
			</g>
			<g>
				<g>
					<polygon class="st9" points="213.2,293.5 213,308.2 157.9,276.4 158.1,261.7 					"/>
				</g>
			</g>
		</g>
		<g>
			<g>
				<polygon class="st16" points="257.4,329.3 257.3,333.7 213,308.2 213,303.8 				"/>
			</g>
			<g class="st0">
				<polygon class="st17" points="261.2,321.5 261.2,327.1 257.4,329.3 257.3,333.7 284.6,318 284.6,308 				"/>
				<g>
					<g>
						<polygon class="st18" points="217,296 240.4,282.5 284.6,308 261.2,321.5 						"/>
					</g>
				</g>
				<g>
					<polygon class="st16" points="261.2,321.5 261.2,327.1 217,301.6 217,296 					"/>
				</g>
			</g>
			<polygon class="st18" points="217,301.6 217,301.6 213,303.8 257.4,329.3 261.2,327.1 			"/>
		</g>
		<g>
			<g>
				<g>
					<polygon class="st19" points="213.3,292.9 227.1,284.9 227,288.5 213.2,296.5 					"/>
				</g>
				<g>
					<polygon class="st20" points="157.8,260.8 171.6,252.8 227.1,284.9 213.3,292.9 					"/>
					<polygon class="st21" points="162.2,260.8 171.6,255.4 222.7,284.9 213.3,290.3 					"/>
				</g>
				<g>
					<polygon class="st22" points="213.3,292.9 213.2,296.5 157.6,264.4 157.8,260.8 					"/>
				</g>
				<path class="st5" d="M221.9,274.5l0,10.8l-5.1,3l-3.4,2L164,261.8l0-4.2l0-6.7c0-3,1.6-5.9,4.3-7.4c2.7-1.5,5.9-1.5,8.6,0
					l40.7,23.5C220.3,268.6,221.9,271.5,221.9,274.5z"/>
				<path class="st23" d="M216.7,288.3L216.7,288.3l-3.4,2L164,261.8l0,0c0-2.9,3.1-4.7,5.7-3.3l38.4,21.8
					C211.5,282.3,214.5,285,216.7,288.3z"/>
			</g>
		</g>
		<g>
			<polygon class="st10" points="292.2,296.9 272.9,285.7 272.9,242.1 292.3,253.3 			"/>
			<polygon class="st11" points="285.8,250.1 273.6,285.7 276.9,287.7 289.1,252 			"/>
			<g class="st0">
				<g>
					<polygon class="st12" points="268.5,239.1 270.5,238 270.4,287.5 268.4,288.7 					"/>
				</g>
				<g>
					<polygon class="st13" points="268.4,288.7 270.4,287.5 294.7,301.5 292.7,302.7 					"/>
				</g>
				<g class="st0">
					<g>
						<polygon class="st12" points="270.8,241.4 273.6,239.7 273.6,285.7 270.7,287.3 						"/>
					</g>
					<g>
						<polygon class="st13" points="270.7,287.3 273.6,285.7 294.4,297.8 291.6,299.4 						"/>
					</g>
					<g>
						<polygon class="st14" points="292.9,252.7 295.8,251.1 295.7,300 292.9,301.6 						"/>
					</g>
					<g>
						<polygon class="st13" points="269.5,239.2 272.3,237.6 295.8,251.1 292.9,252.7 						"/>
					</g>
					<g>
						<path class="st14" d="M269.5,239.2l23.4,13.5l-0.1,48.9l-23.4-13.5L269.5,239.2z M291.6,299.4l0-46l-20.9-12.1l0,46
							L291.6,299.4"/>
					</g>
				</g>
				<g>
					<polygon class="st12" points="294.3,252.3 296.3,251.1 296.3,304.2 294.3,305.4 					"/>
				</g>
				<g>
					<polygon class="st13" points="267,236.5 269,235.3 296.3,251.1 294.3,252.3 					"/>
				</g>
				<g>
					<path class="st14" d="M267,236.5l27.4,15.8l-0.1,53.1l-27.4-15.8L267,236.5z M292.7,302.7l0.1-49.5l-24.3-14l-0.1,49.5
						L292.7,302.7"/>
				</g>
			</g>
		</g>
		<g>
			<g>
				<polygon class="st24" points="261.3,280.6 261.3,291.1 244.8,281.5 244.8,271.1 				"/>
			</g>
			<g>
				<path class="st25" d="M244.2,224.2l17.9,10.3l-0.1,42.6l-17.9-10.3L244.2,224.2z M261.4,275.9l0.1-41l-16.5-9.5l-0.1,41
					L261.4,275.9"/>
			</g>
			<g>
				<path class="st25" d="M244.2,269.9l17.9,10.3l0,12l-17.9-10.3L244.2,269.9z M261.3,291.1l0-10.5l-16.5-9.5l0,10.5L261.3,291.1"
					/>
			</g>
			<g>
				<polygon class="st24" points="261.4,234.9 261.4,275.9 244.9,266.4 244.9,225.4 				"/>
			</g>
			<g>
				<path class="st24" d="M242.2,220.3l22,12.7l-0.1,63.2l-22-12.7L242.2,220.3z M262,277.1l0.1-42.6l-17.9-10.3l-0.1,42.6
					L262,277.1 M262,292.2l0-12l-17.9-10.3l0,12L262,292.2"/>
			</g>
		</g>
		<polygon class="st26" points="240.4,201.5 255.8,291.4 240.4,282.5 		"/>
		<g>
			<g>
				<g>
					<polygon class="st27" points="292.3,228.6 368.3,184.7 368.1,294 292.3,338 					"/>
				</g>
				<polygon class="st28" points="292.3,228.6 368.3,184.7 359.1,179.3 242.4,112.2 166.6,156.1 				"/>
				<g>
					<polygon class="st29" points="292.3,228.6 292.3,338 283.1,332.6 283.1,233.9 166.5,166.8 166.6,156.1 283.3,223.3 					"/>
				</g>
			</g>
		</g>
		<g class="st0">
			<g>
				<polygon class="st14" points="292,207.7 360.4,168 360.3,180.1 291.9,219.8 				"/>
			</g>
			<g>
				<polygon class="st24" points="228.8,130.2 292,207.7 291.9,219.8 177.2,154 177.3,139 				"/>
			</g>
			<polygon class="st30" points="177.2,154 220.4,146.8 282.9,214.7 222.6,133.2 177.4,147.9 			"/>
			<g class="st0">
				<g>
					<polygon class="st31" points="151.7,152.3 239.4,106.9 302,86.7 222.5,132.5 					"/>
				</g>
				<g>
					<g>
						<polygon class="st32" points="222.5,132.5 302,86.7 384.2,188.3 304.8,234.2 						"/>
					</g>
				</g>
				<g>
					<polygon class="st33" points="222.5,132.5 304.8,234.2 298,233.2 221.4,139.1 158.8,156 151.7,152.3 					"/>
				</g>
			</g>
		</g>
		<g>
			<g class="st0">
				<g>
					<polygon class="st15" points="278.7,331.2 292.4,323.2 292.4,337.9 278.5,345.9 					"/>
				</g>
				<g>
					<polygon class="st34" points="257.5,319 271.1,311.1 292.4,323.2 278.7,331.2 					"/>
				</g>
				<g>
					<g>
						<polygon class="st9" points="278.7,331.2 278.5,345.9 257.3,333.7 257.3,319 						"/>
					</g>
				</g>
			</g>
			<g>
				<g>
					<g>
						<polygon class="st19" points="278.9,330.6 292.5,322.5 292.5,326.2 278.7,334.2 						"/>
					</g>
					<g>
						<polygon class="st20" points="257,318.1 271,310.1 292.5,322.5 278.9,330.6 						"/>
						<polygon class="st21" points="261.6,318.1 271,312.6 288.2,322.5 278.8,328 						"/>
					</g>
					<g>
						<polygon class="st22" points="278.9,330.6 278.7,334.2 257,321.7 257,318.1 						"/>
					</g>
					<path class="st5" d="M287.4,312.2l0,10.8l-5.1,3l-3.4,2l-15.5-8.9l0-4.2l0-6.7c0-3,1.6-5.9,4.3-7.4c2.7-1.5,5.9-1.5,8.6,0
						l6.9,3.9C285.8,306.3,287.4,309.1,287.4,312.2z"/>
					<path class="st23" d="M282.3,326L282.3,326l-3.4,2l-15.5-8.9l0,0c0-2.9,3.1-4.7,5.7-3.3l4.5,2.2C277,320,280,322.7,282.3,326z"
						/>
				</g>
			</g>
		</g>
	</g>
	<polygon class="st35" points="368.1,294 440.9,293.8 353.5,344.2 278.5,345.9 	"/>
	<g>
		<path class="st35" d="M196.3,334.7c1.1,0.2,2.2,0.4,3.3,0.6c0.4,0.1,0.8,0.1,1.2,0.1c0.7,0.1,1.4,0.2,2.1,0.3c0.5,0,1,0.1,1.4,0.1
			c0.6,0,1.2,0.1,1.8,0.1c0.5,0,1.1,0,1.6,0c0.5,0,1.1,0,1.6,0c0.6,0,1.1-0.1,1.7-0.1c0.5,0,1,0,1.4-0.1c0.6-0.1,1.2-0.1,1.8-0.2
			c0.4,0,0.8-0.1,1.2-0.2c0.6-0.1,1.3-0.2,1.9-0.3c0.3-0.1,0.7-0.1,1-0.2c0.7-0.1,1.3-0.3,2-0.5c0.3-0.1,0.6-0.1,0.9-0.2
			c0.7-0.2,1.3-0.4,2-0.6c0.2-0.1,0.5-0.1,0.7-0.2c0.7-0.2,1.4-0.5,2-0.8c0.2-0.1,0.3-0.1,0.5-0.2c0.7-0.3,1.3-0.6,2-0.9
			c0.1-0.1,0.3-0.1,0.4-0.2c0.7-0.3,1.3-0.7,1.9-1.1c0.1-0.1,0.2-0.1,0.3-0.2c0.6-0.4,1.2-0.8,1.8-1.3c0.1,0,0.1-0.1,0.2-0.1
			c0.6-0.5,1.2-0.9,1.7-1.4c0,0,0.1-0.1,0.1-0.1c0.5-0.5,1-1,1.5-1.6c0,0,0,0,0,0c0.8-1,1.6-2,2.1-3.1c5.4-10.7-4.6-22.5-22.4-26.4
			c-1.8-0.4-3.6-0.7-5.4-0.9c0,0,0,0,0,0c-1.1-0.1-2.1-0.2-3.1-0.3c0,0-0.1,0-0.1,0c-1-0.1-2-0.1-3.1-0.1c-0.1,0-0.1,0-0.2,0
			c-1,0-2,0-2.9,0.1c-0.1,0-0.2,0-0.3,0c-0.9,0.1-1.9,0.1-2.8,0.2c-0.1,0-0.2,0-0.4,0c-0.9,0.1-1.7,0.2-2.6,0.4
			c-0.2,0-0.3,0.1-0.5,0.1c-0.8,0.2-1.6,0.3-2.4,0.5c-0.2,0.1-0.4,0.1-0.6,0.2c-0.7,0.2-1.4,0.4-2.1,0.6c-0.2,0.1-0.5,0.2-0.7,0.2
			c-0.6,0.2-1.3,0.4-1.9,0.7c-0.3,0.1-0.6,0.2-0.8,0.3c-0.6,0.2-1.1,0.5-1.6,0.7c-0.3,0.1-0.6,0.3-0.9,0.5c-0.5,0.2-1,0.5-1.4,0.8
			c-0.3,0.2-0.6,0.4-0.9,0.6c-0.4,0.3-0.8,0.5-1.2,0.8c-0.3,0.2-0.6,0.5-1,0.7c-0.3,0.3-0.7,0.5-1,0.8c-0.3,0.3-0.6,0.6-0.9,0.9
			c-0.2,0.2-0.5,0.5-0.7,0.7c-0.3,0.3-0.5,0.6-0.7,0.9l-76.4-15.8c-0.1,0-0.2,0-0.3,0c-0.1,0-0.2,0-0.2,0c-0.1,0-0.2,0-0.3,0
			c-0.1,0-0.2,0-0.2,0c-0.1,0-0.3,0.1-0.4,0.1c-0.1,0-0.1,0-0.2,0c-0.2,0.1-0.4,0.2-0.6,0.3c-0.2,0.1-0.4,0.2-0.6,0.4l0,0
			c-0.1,0.1-0.3,0.2-0.4,0.3c0,0-0.1,0.1-0.1,0.1c0,0-0.1,0.1-0.1,0.1c0,0-0.1,0.1-0.1,0.1c-0.1,0.1-0.2,0.2-0.2,0.3c0,0,0,0,0,0.1
			c0,0,0,0,0,0.1c0,0-0.1,0.1-0.1,0.1c-0.1,0.1-0.1,0.2-0.2,0.3c0,0,0,0,0,0.1c0,0,0,0,0,0.1c0,0.1-0.1,0.1-0.1,0.2
			c0,0.1-0.1,0.2-0.1,0.3c0,0,0,0,0,0c0,0,0,0,0,0c0,0.1-0.1,0.2-0.1,0.4c0,0,0,0.1,0,0.1c0,0.1,0,0.2,0,0.3c0,0.1,0,0.1,0,0.2
			c0,0,0,0,0,0.1c0,0.2,0,0.4,0.1,0.6c0,0,0,0.1,0,0.1c0,0.1,0.1,0.1,0.1,0.2c0,0.1,0.1,0.2,0.1,0.2c0,0,0,0,0,0c0,0,0,0,0,0
			c0.1,0.1,0.1,0.2,0.2,0.2c0,0,0,0,0,0c0,0,0,0,0,0c0,0,0,0,0,0c0,0,0.1,0.1,0.1,0.1c0.1,0,0.2,0.1,0.2,0.1c0,0,0,0,0,0
			c0,0,0,0,0,0c0,0,0,0,0,0c0.1,0,0.1,0.1,0.2,0.1c0.1,0,0.2,0.1,0.3,0.1c0,0,0,0,0,0l0,0c0,0,0,0,0,0l76.4,15.8
			C170.4,321.1,180.1,331.2,196.3,334.7z"/>
		<path class="st36" d="M105.4,171.7l0-10.4c0-2.9,0-5.6,0-8.3c0-0.1,0-0.2-0.1-0.4c0-0.1,0-0.2,0-0.3c0-0.1-0.1-0.3-0.2-0.4
			c0-0.1-0.1-0.2-0.1-0.3c-0.1-0.1-0.2-0.3-0.4-0.4c-0.1-0.1-0.1-0.1-0.2-0.2c-0.2-0.2-0.5-0.4-0.8-0.6c-0.3-0.2-0.6-0.3-0.9-0.5
			l0,0c-0.2-0.1-0.5-0.2-0.7-0.2c-0.1,0-0.1,0-0.2-0.1c-0.1,0-0.1,0-0.2,0c-0.1,0-0.2,0-0.2-0.1c-0.2,0-0.4-0.1-0.6-0.1
			c0,0-0.1,0-0.1,0c0,0-0.1,0-0.1,0c-0.1,0-0.2,0-0.3,0c-0.2,0-0.4,0-0.6,0c0,0-0.1,0-0.1,0c0,0-0.1,0-0.1,0c-0.1,0-0.3,0-0.4,0
			c-0.2,0-0.4,0-0.7,0c0,0,0,0,0,0c0,0,0,0,0,0c-0.2,0-0.5,0.1-0.7,0.1c-0.1,0-0.1,0-0.2,0c-0.2,0-0.4,0.1-0.6,0.1
			c-0.1,0-0.2,0.1-0.4,0.1c0,0-0.1,0-0.1,0c-0.4,0.1-0.8,0.3-1.1,0.5c0,0-0.1,0.1-0.1,0.1c-0.1,0.1-0.2,0.1-0.3,0.2
			c-0.1,0.1-0.3,0.2-0.4,0.3c0,0,0,0-0.1,0.1c0,0,0,0-0.1,0c-0.1,0.1-0.3,0.3-0.4,0.4c0,0,0,0,0,0.1c0,0,0,0,0,0c0,0,0,0,0,0.1
			c0,0.1-0.1,0.1-0.1,0.2c-0.1,0.1-0.1,0.2-0.2,0.3c0,0,0,0,0,0c0,0,0,0,0,0c0,0,0,0,0,0.1c0,0.1-0.1,0.2-0.1,0.2c0,0.1,0,0.2,0,0.3
			c0,0,0,0,0,0v0c0,0,0,0,0,0l-0.2,139.6c0,0.1,0,0.2,0.1,0.4c0,0.1,0,0.2,0,0.3c0,0.1,0.1,0.3,0.2,0.4c0,0.1,0.1,0.2,0.1,0.3
			c0.1,0.1,0.2,0.3,0.4,0.4c0.1,0.1,0.1,0.1,0.2,0.2c0.2,0.2,0.5,0.4,0.8,0.6c0.3,0.2,0.6,0.3,0.9,0.5c0,0,0,0,0,0
			c0.2,0.1,0.5,0.2,0.7,0.2c0.1,0,0.1,0,0.2,0.1c0.1,0,0.1,0,0.2,0c0.1,0,0.2,0,0.2,0.1c0.2,0,0.4,0.1,0.6,0.1c0,0,0.1,0,0.1,0
			c0,0,0.1,0,0.1,0c0.1,0,0.2,0,0.3,0c0.2,0,0.4,0,0.6,0c0,0,0.1,0,0.1,0c0,0,0.1,0,0.1,0c0.1,0,0.3,0,0.4,0c0.2,0,0.4,0,0.7,0
			c0,0,0,0,0,0c0,0,0,0,0,0c0.2,0,0.5-0.1,0.7-0.1c0.1,0,0.1,0,0.2,0c0.2,0,0.4-0.1,0.6-0.1c0.1,0,0.2-0.1,0.4-0.1c0,0,0.1,0,0.1,0
			c0.4-0.1,0.8-0.3,1.1-0.5c0,0,0.1-0.1,0.1-0.1c0.1-0.1,0.2-0.1,0.3-0.2c0.1-0.1,0.3-0.2,0.4-0.3c0,0,0,0,0.1-0.1c0,0,0,0,0.1,0
			c0.1-0.1,0.3-0.3,0.4-0.4c0,0,0,0,0-0.1c0,0,0,0,0,0c0,0,0,0,0-0.1c0-0.1,0.1-0.1,0.1-0.2c0.1-0.1,0.1-0.2,0.2-0.3c0,0,0,0,0,0
			c0,0,0,0,0,0c0,0,0,0,0-0.1c0-0.1,0.1-0.2,0.1-0.2c0-0.1,0-0.2,0-0.3c0,0,0,0,0,0v0c0,0,0,0,0,0l0.1-115.7
			C105.4,175.2,105.4,173.4,105.4,171.7z"/>
		<g>
			<circle class="st37" cx="99.4" cy="141.5" r="69.8"/>
			<path class="st38" d="M104.4,71.9c24.3,7.5,42,30.1,42,56.9c0,32.9-26.7,59.6-59.6,59.6c-26.9,0-49.6-17.8-57-42.3
				c2.4,36.4,32.6,65.2,69.5,65.2c38.5,0,69.8-31.2,69.8-69.8C169.1,104.6,140.6,74.5,104.4,71.9z"/>
			<circle class="st39" cx="77.1" cy="113.1" r="32.7"/>
		</g>
	</g>
</g>
</svg>
